<?xml version="1.0" encoding="UTF-8" standalone="no"?>
<!-- Created with Inkscape (http://www.inkscape.org/) -->

<svg
   version="1.1"
   id="svg1"
   width="960"
   height="1024"
   viewBox="0 0 960.00001 1024"
   sodipodi:docname="water3.svg"
   inkscape:version="1.3.2 (091e20ef0f, 2023-11-25)"
   xmlns:inkscape="http://www.inkscape.org/namespaces/inkscape"
   xmlns:sodipodi="http://sodipodi.sourceforge.net/DTD/sodipodi-0.dtd"
   xmlns="http://www.w3.org/2000/svg"
   xmlns:svg="http://www.w3.org/2000/svg">
  <defs
     id="defs1">
    <clipPath
       clipPathUnits="userSpaceOnUse"
       id="clipPath2">
      <path
         d="M 0,500 H 500 V 0 H 0 Z"
         transform="translate(-422.03521,-66.918802)"
         id="path2" />
    </clipPath>
    <clipPath
       clipPathUnits="userSpaceOnUse"
       id="clipPath3">
      <path
         d="M 6.7838,296.306 H 493.282 V 27.5618 H 6.7838 Z"
         transform="translate(-422.03521,-66.918802)"
         id="path3" />
    </clipPath>
    <clipPath
       clipPathUnits="userSpaceOnUse"
       id="clipPath5">
      <path
         d="M 0,500 H 500 V 0 H 0 Z"
         transform="matrix(1.3333333,0,0,-1.3333333,0,666.66667)"
         id="path5" />
    </clipPath>
    <clipPath
       clipPathUnits="userSpaceOnUse"
       id="clipPath6">
      <path
         d="M 6.78622,296.111 H 492.605 V 27.5714 H 6.78622 Z"
         transform="translate(-478.18291,-121.1972)"
         id="path6" />
    </clipPath>
    <clipPath
       clipPathUnits="userSpaceOnUse"
       id="clipPath8">
      <path
         d="M 0,500 H 500 V 0 H 0 Z"
         transform="matrix(1.3333333,0,0,-1.3333333,0,666.66667)"
         id="path8" />
    </clipPath>
    <clipPath
       clipPathUnits="userSpaceOnUse"
       id="clipPath9">
      <path
         d="M 9.7157,296.297 H 491.284 V 27.6143 H 9.7157 Z"
         transform="translate(-413.96591,-175.17431)"
         id="path9" />
    </clipPath>
    <clipPath
       clipPathUnits="userSpaceOnUse"
       id="clipPath11">
      <path
         d="M 0,500 H 500 V 0 H 0 Z"
         transform="matrix(1.3333333,0,0,-1.3333333,0,666.66667)"
         id="path11" />
    </clipPath>
    <clipPath
       clipPathUnits="userSpaceOnUse"
       id="clipPath13">
      <path
         d="M 0,500 H 500 V 0 H 0 Z"
         transform="translate(-296.09031,-423.63311)"
         id="path13" />
    </clipPath>
    <clipPath
       clipPathUnits="userSpaceOnUse"
       id="clipPath15">
      <path
         d="M 0,500 H 500 V 0 H 0 Z"
         transform="translate(-222.33811,-392.31141)"
         id="path15" />
    </clipPath>
    <clipPath
       clipPathUnits="userSpaceOnUse"
       id="clipPath17">
      <path
         d="M 0,500 H 500 V 0 H 0 Z"
         transform="translate(-443.14991,-376.51171)"
         id="path17" />
    </clipPath>
    <clipPath
       clipPathUnits="userSpaceOnUse"
       id="clipPath18">
      <path
         d="M 58.5956,86.138 H 293.186 V 27.5667 H 58.5956 Z"
         transform="translate(-293.18571,-80.858002)"
         id="path18" />
    </clipPath>
    <clipPath
       clipPathUnits="userSpaceOnUse"
       id="clipPath20">
      <path
         d="M 0,500 H 500 V 0 H 0 Z"
         transform="matrix(1.3333333,0,0,-1.3333333,0,666.66667)"
         id="path20" />
    </clipPath>
    <clipPath
       clipPathUnits="userSpaceOnUse"
       id="clipPath22">
      <path
         d="M 0,500 H 500 V 0 H 0 Z"
         transform="translate(-279.01561,-115.70801)"
         id="path22" />
    </clipPath>
    <clipPath
       clipPathUnits="userSpaceOnUse"
       id="clipPath24">
      <path
         d="M 0,500 H 500 V 0 H 0 Z"
         transform="translate(-225.17041,-104.1273)"
         id="path24" />
    </clipPath>
    <clipPath
       clipPathUnits="userSpaceOnUse"
       id="clipPath26">
      <path
         d="M 0,500 H 500 V 0 H 0 Z"
         transform="translate(-272.02581,-165.158)"
         id="path26" />
    </clipPath>
    <clipPath
       clipPathUnits="userSpaceOnUse"
       id="clipPath27">
      <path
         d="M 6.78284,214.818 H 280.238 V 35.188 H 6.78284 Z"
         transform="translate(-272.02581,-165.158)"
         id="path27" />
    </clipPath>
    <clipPath
       clipPathUnits="userSpaceOnUse"
       id="clipPath29">
      <path
         d="M 0,500 H 500 V 0 H 0 Z"
         transform="matrix(1.3333333,0,0,-1.3333333,0,666.66667)"
         id="path29" />
    </clipPath>
    <clipPath
       clipPathUnits="userSpaceOnUse"
       id="clipPath31">
      <path
         d="M 0,500 H 500 V 0 H 0 Z"
         transform="translate(-257.6548,-79.353202)"
         id="path31" />
    </clipPath>
    <clipPath
       clipPathUnits="userSpaceOnUse"
       id="clipPath33">
      <path
         d="M 0,500 H 500 V 0 H 0 Z"
         transform="translate(-263.34901,-77.531099)"
         id="path33" />
    </clipPath>
    <clipPath
       clipPathUnits="userSpaceOnUse"
       id="clipPath35">
      <path
         d="M 0,500 H 500 V 0 H 0 Z"
         transform="translate(-258.07951,-102.1548)"
         id="path35" />
    </clipPath>
    <clipPath
       clipPathUnits="userSpaceOnUse"
       id="clipPath36">
      <path
         d="m 258.079,115.706 h 24.828 V 98.0375 h -24.828 z"
         transform="translate(-258.07951,-102.1548)"
         id="path36" />
    </clipPath>
    <clipPath
       clipPathUnits="userSpaceOnUse"
       id="clipPath38">
      <path
         d="M 0,500 H 500 V 0 H 0 Z"
         transform="matrix(1.3333333,0,0,-1.3333333,0,666.66667)"
         id="path38" />
    </clipPath>
    <clipPath
       clipPathUnits="userSpaceOnUse"
       id="clipPath40">
      <path
         d="M 0,500 H 500 V 0 H 0 Z"
         transform="translate(-280.53111,-95.951805)"
         id="path40" />
    </clipPath>
    <clipPath
       clipPathUnits="userSpaceOnUse"
       id="clipPath42">
      <path
         d="M 0,500 H 500 V 0 H 0 Z"
         transform="translate(-36.075701,-217.57491)"
         id="path42" />
    </clipPath>
    <clipPath
       clipPathUnits="userSpaceOnUse"
       id="clipPath43">
      <path
         d="M 35.8501,288.517 H 68.2303 V 215.163 H 35.8501 Z"
         transform="translate(-36.075701,-217.57491)"
         id="path43" />
    </clipPath>
    <clipPath
       clipPathUnits="userSpaceOnUse"
       id="clipPath45">
      <path
         d="M 0,500 H 500 V 0 H 0 Z"
         transform="matrix(1.3333333,0,0,-1.3333333,0,666.66667)"
         id="path45" />
    </clipPath>
    <clipPath
       clipPathUnits="userSpaceOnUse"
       id="clipPath47">
      <path
         d="M 0,500 H 500 V 0 H 0 Z"
         transform="translate(-50.869901,-235.76631)"
         id="path47" />
    </clipPath>
    <clipPath
       clipPathUnits="userSpaceOnUse"
       id="clipPath49">
      <path
         d="M 0,500 H 500 V 0 H 0 Z"
         transform="translate(-11.5735,-202.24901)"
         id="path49" />
    </clipPath>
    <clipPath
       clipPathUnits="userSpaceOnUse"
       id="clipPath50">
      <path
         d="M 11.3896,261.221 H 37.4413 V 200.248 H 11.3896 Z"
         transform="translate(-11.5735,-202.24901)"
         id="path50" />
    </clipPath>
    <clipPath
       clipPathUnits="userSpaceOnUse"
       id="clipPath52">
      <path
         d="M 0,500 H 500 V 0 H 0 Z"
         transform="matrix(1.3333333,0,0,-1.3333333,0,666.66667)"
         id="path52" />
    </clipPath>
    <clipPath
       clipPathUnits="userSpaceOnUse"
       id="clipPath54">
      <path
         d="M 0,500 H 500 V 0 H 0 Z"
         transform="translate(-17.744001,-224.26211)"
         id="path54" />
    </clipPath>
    <clipPath
       clipPathUnits="userSpaceOnUse"
       id="clipPath56">
      <path
         d="M 0,500 H 500 V 0 H 0 Z"
         transform="translate(-198.85131,-180.02621)"
         id="path56" />
    </clipPath>
    <clipPath
       clipPathUnits="userSpaceOnUse"
       id="clipPath58">
      <path
         d="M 0,500 H 500 V 0 H 0 Z"
         transform="translate(-207.46681,-164.71991)"
         id="path58" />
    </clipPath>
    <clipPath
       clipPathUnits="userSpaceOnUse"
       id="clipPath60">
      <path
         d="M 0,500 H 500 V 0 H 0 Z"
         transform="translate(-98.839105,-190.6971)"
         id="path60" />
    </clipPath>
    <clipPath
       clipPathUnits="userSpaceOnUse"
       id="clipPath62">
      <path
         d="M 0,500 H 500 V 0 H 0 Z"
         transform="translate(-143.8369,-137.2275)"
         id="path62" />
    </clipPath>
    <clipPath
       clipPathUnits="userSpaceOnUse"
       id="clipPath64">
      <path
         d="M 0,500 H 500 V 0 H 0 Z"
         transform="translate(-143.8345,-388.21811)"
         id="path64" />
    </clipPath>
    <clipPath
       clipPathUnits="userSpaceOnUse"
       id="clipPath66">
      <path
         d="M 0,500 H 500 V 0 H 0 Z"
         transform="translate(-118.95921,-382.26941)"
         id="path66" />
    </clipPath>
    <clipPath
       clipPathUnits="userSpaceOnUse"
       id="clipPath68">
      <path
         d="M 0,500 H 500 V 0 H 0 Z"
         transform="translate(-184.287,-311.52391)"
         id="path68" />
    </clipPath>
    <clipPath
       clipPathUnits="userSpaceOnUse"
       id="clipPath70">
      <path
         d="M 0,500 H 500 V 0 H 0 Z"
         transform="translate(-189.56781,-254.66511)"
         id="path70" />
    </clipPath>
    <clipPath
       clipPathUnits="userSpaceOnUse"
       id="clipPath72">
      <path
         d="M 0,500 H 500 V 0 H 0 Z"
         transform="translate(-194.90121,-197.19881)"
         id="path72" />
    </clipPath>
    <clipPath
       clipPathUnits="userSpaceOnUse"
       id="clipPath74">
      <path
         d="M 0,500 H 500 V 0 H 0 Z"
         transform="translate(-120.28881,-268.94661)"
         id="path74" />
    </clipPath>
    <clipPath
       clipPathUnits="userSpaceOnUse"
       id="clipPath76">
      <path
         d="M 0,500 H 500 V 0 H 0 Z"
         transform="translate(-112.1487,-149.8613)"
         id="path76" />
    </clipPath>
    <clipPath
       clipPathUnits="userSpaceOnUse"
       id="clipPath78">
      <path
         d="M 0,500 H 500 V 0 H 0 Z"
         transform="translate(-173.5897,-210.7563)"
         id="path78" />
    </clipPath>
    <clipPath
       clipPathUnits="userSpaceOnUse"
       id="clipPath79">
      <path
         d="M 90.1027,368.576 H 179.751 V 136.728 H 90.1027 Z"
         transform="translate(-124.0405,-182.26601)"
         id="path79" />
    </clipPath>
    <clipPath
       clipPathUnits="userSpaceOnUse"
       id="clipPath81">
      <path
         d="M 0,500 H 500 V 0 H 0 Z"
         transform="matrix(1.3333333,0,0,-1.3333333,0,666.66667)"
         id="path81" />
    </clipPath>
    <clipPath
       clipPathUnits="userSpaceOnUse"
       id="clipPath83">
      <path
         d="M 0,500 H 500 V 0 H 0 Z"
         transform="translate(-186.7816,-371.95821)"
         id="path83" />
    </clipPath>
    <clipPath
       clipPathUnits="userSpaceOnUse"
       id="clipPath85">
      <path
         d="M 0,500 H 500 V 0 H 0 Z"
         transform="translate(-113.46681,-389.49071)"
         id="path85" />
    </clipPath>
    <clipPath
       clipPathUnits="userSpaceOnUse"
       id="clipPath87">
      <path
         d="M 0,500 H 500 V 0 H 0 Z"
         transform="translate(-174.8011,-377.79551)"
         id="path87" />
    </clipPath>
    <clipPath
       clipPathUnits="userSpaceOnUse"
       id="clipPath89">
      <path
         d="M 0,500 H 500 V 0 H 0 Z"
         transform="translate(-174.8011,-389.39751)"
         id="path89" />
    </clipPath>
    <clipPath
       clipPathUnits="userSpaceOnUse"
       id="clipPath91">
      <path
         d="M 0,500 H 500 V 0 H 0 Z"
         transform="translate(-166.5037,-359.91741)"
         id="path91" />
    </clipPath>
    <clipPath
       clipPathUnits="userSpaceOnUse"
       id="clipPath93">
      <path
         d="M 0,500 H 500 V 0 H 0 Z"
         transform="translate(-135.538,-355.12691)"
         id="path93" />
    </clipPath>
    <clipPath
       clipPathUnits="userSpaceOnUse"
       id="clipPath95">
      <path
         d="M 0,500 H 500 V 0 H 0 Z"
         transform="translate(-164.7207,-409.95351)"
         id="path95" />
    </clipPath>
    <clipPath
       clipPathUnits="userSpaceOnUse"
       id="clipPath96">
      <path
         d="m 136.191,409.953 h 28.53 v -41.362 h -28.53 z"
         transform="translate(-164.7207,-409.95351)"
         id="path96" />
    </clipPath>
    <clipPath
       clipPathUnits="userSpaceOnUse"
       id="clipPath98">
      <path
         d="M 0,500 H 500 V 0 H 0 Z"
         transform="matrix(1.3333333,0,0,-1.3333333,0,666.66667)"
         id="path98" />
    </clipPath>
    <clipPath
       clipPathUnits="userSpaceOnUse"
       id="clipPath100">
      <path
         d="M 0,500 H 500 V 0 H 0 Z"
         transform="translate(-164.7207,-373.00511)"
         id="path100" />
    </clipPath>
    <clipPath
       clipPathUnits="userSpaceOnUse"
       id="clipPath101">
      <path
         d="m 164.721,426.425 h 7.644 v -53.42 h -7.644 z"
         transform="translate(-164.7207,-373.00511)"
         id="path101" />
    </clipPath>
    <clipPath
       clipPathUnits="userSpaceOnUse"
       id="clipPath103">
      <path
         d="M 0,500 H 500 V 0 H 0 Z"
         transform="matrix(1.3333333,0,0,-1.3333333,0,666.66667)"
         id="path103" />
    </clipPath>
    <clipPath
       clipPathUnits="userSpaceOnUse"
       id="clipPath105">
      <path
         d="M 0,500 H 500 V 0 H 0 Z"
         transform="translate(-136.19061,-368.59141)"
         id="path105" />
    </clipPath>
    <clipPath
       clipPathUnits="userSpaceOnUse"
       id="clipPath106">
      <path
         d="m 115.305,417.598 h 20.886 v -49.007 h -20.886 z"
         transform="translate(-136.19061,-368.59141)"
         id="path106" />
    </clipPath>
    <clipPath
       clipPathUnits="userSpaceOnUse"
       id="clipPath108">
      <path
         d="M 0,500 H 500 V 0 H 0 Z"
         transform="matrix(1.3333333,0,0,-1.3333333,0,666.66667)"
         id="path108" />
    </clipPath>
    <clipPath
       clipPathUnits="userSpaceOnUse"
       id="clipPath110">
      <path
         d="M 0,500 H 500 V 0 H 0 Z"
         transform="translate(-163.9833,-355.34771)"
         id="path110" />
    </clipPath>
    <clipPath
       clipPathUnits="userSpaceOnUse"
       id="clipPath112">
      <path
         d="M 0,500 H 500 V 0 H 0 Z"
         transform="translate(-156.4099,-354.17631)"
         id="path112" />
    </clipPath>
    <clipPath
       clipPathUnits="userSpaceOnUse"
       id="clipPath114">
      <path
         d="M 0,500 H 500 V 0 H 0 Z"
         transform="translate(-148.8364,-353.00501)"
         id="path114" />
    </clipPath>
    <clipPath
       clipPathUnits="userSpaceOnUse"
       id="clipPath116">
      <path
         d="M 0,500 H 500 V 0 H 0 Z"
         transform="translate(-141.26301,-351.83361)"
         id="path116" />
    </clipPath>
    <clipPath
       clipPathUnits="userSpaceOnUse"
       id="clipPath118">
      <path
         d="M 0,500 H 500 V 0 H 0 Z"
         transform="translate(-171.5568,-356.51901)"
         id="path118" />
    </clipPath>
    <clipPath
       clipPathUnits="userSpaceOnUse"
       id="clipPath120">
      <path
         d="M 0,500 H 500 V 0 H 0 Z"
         transform="translate(-174.09471,-361.98651)"
         id="path120" />
    </clipPath>
    <clipPath
       clipPathUnits="userSpaceOnUse"
       id="clipPath122">
      <path
         d="M 0,500 H 500 V 0 H 0 Z"
         transform="translate(-176.63271,-367.45391)"
         id="path122" />
    </clipPath>
    <clipPath
       clipPathUnits="userSpaceOnUse"
       id="clipPath124">
      <path
         d="M 0,500 H 500 V 0 H 0 Z"
         transform="translate(-179.1706,-372.92141)"
         id="path124" />
    </clipPath>
    <clipPath
       clipPathUnits="userSpaceOnUse"
       id="clipPath126">
      <path
         d="M 0,500 H 500 V 0 H 0 Z"
         transform="translate(-181.7085,-378.38891)"
         id="path126" />
    </clipPath>
    <clipPath
       clipPathUnits="userSpaceOnUse"
       id="clipPath128">
      <path
         d="M 0,500 H 500 V 0 H 0 Z"
         transform="translate(-176.1634,-381.59001)"
         id="path128" />
    </clipPath>
    <clipPath
       clipPathUnits="userSpaceOnUse"
       id="clipPath130">
      <path
         d="M 0,500 H 500 V 0 H 0 Z"
         transform="translate(-133.68951,-350.66221)"
         id="path130" />
    </clipPath>
    <clipPath
       clipPathUnits="userSpaceOnUse"
       id="clipPath132">
      <path
         d="M 0,500 H 500 V 0 H 0 Z"
         transform="translate(-128.1441,-353.86331)"
         id="path132" />
    </clipPath>
    <clipPath
       clipPathUnits="userSpaceOnUse"
       id="clipPath134">
      <path
         d="M 0,500 H 500 V 0 H 0 Z"
         transform="translate(-122.5986,-357.06421)"
         id="path134" />
    </clipPath>
    <clipPath
       clipPathUnits="userSpaceOnUse"
       id="clipPath136">
      <path
         d="M 0,500 H 500 V 0 H 0 Z"
         transform="translate(-117.05301,-360.26521)"
         id="path136" />
    </clipPath>
    <clipPath
       clipPathUnits="userSpaceOnUse"
       id="clipPath138">
      <path
         d="M 0,500 H 500 V 0 H 0 Z"
         transform="translate(-111.5076,-363.46621)"
         id="path138" />
    </clipPath>
    <clipPath
       clipPathUnits="userSpaceOnUse"
       id="clipPath140">
      <path
         d="M 0,500 H 500 V 0 H 0 Z"
         transform="translate(-105.9621,-366.66721)"
         id="path140" />
    </clipPath>
    <clipPath
       clipPathUnits="userSpaceOnUse"
       id="clipPath142">
      <path
         d="M 0,500 H 500 V 0 H 0 Z"
         transform="translate(-108.50061,-372.13221)"
         id="path142" />
    </clipPath>
    <clipPath
       clipPathUnits="userSpaceOnUse"
       id="clipPath144">
      <path
         d="M 0,500 H 500 V 0 H 0 Z"
         transform="translate(-111.0391,-377.59701)"
         id="path144" />
    </clipPath>
    <clipPath
       clipPathUnits="userSpaceOnUse"
       id="clipPath146">
      <path
         d="M 0,500 H 500 V 0 H 0 Z"
         transform="translate(-113.57751,-383.06201)"
         id="path146" />
    </clipPath>
    <clipPath
       clipPathUnits="userSpaceOnUse"
       id="clipPath148">
      <path
         d="M 0,500 H 500 V 0 H 0 Z"
         transform="translate(-115.30521,-395.04891)"
         id="path148" />
    </clipPath>
    <clipPath
       clipPathUnits="userSpaceOnUse"
       id="clipPath150">
      <path
         d="M 0,500 H 500 V 0 H 0 Z"
         transform="translate(-124.0404,-375.73081)"
         id="path150" />
    </clipPath>
    <clipPath
       clipPathUnits="userSpaceOnUse"
       id="clipPath152">
      <path
         d="M 0,500 H 500 V 0 H 0 Z"
         transform="translate(-151.0765,-407.84271)"
         id="path152" />
    </clipPath>
    <clipPath
       clipPathUnits="userSpaceOnUse"
       id="clipPath154">
      <path
         d="M 0,500 H 500 V 0 H 0 Z"
         transform="translate(-136.8115,-368.68741)"
         id="path154" />
    </clipPath>
    <clipPath
       clipPathUnits="userSpaceOnUse"
       id="clipPath156">
      <path
         d="M 0,500 H 500 V 0 H 0 Z"
         transform="translate(-115.92621,-417.38221)"
         id="path156" />
    </clipPath>
    <clipPath
       clipPathUnits="userSpaceOnUse"
       id="clipPath158">
      <path
         d="M 0,500 H 500 V 0 H 0 Z"
         transform="translate(-165.3414,-374.34781)"
         id="path158" />
    </clipPath>
    <clipPath
       clipPathUnits="userSpaceOnUse"
       id="clipPath160">
      <path
         d="M 0,500 H 500 V 0 H 0 Z"
         transform="translate(-171.74481,-388.13511)"
         id="path160" />
    </clipPath>
    <clipPath
       clipPathUnits="userSpaceOnUse"
       id="clipPath162">
      <path
         d="M 0,500 H 500 V 0 H 0 Z"
         transform="translate(-175.47021,-422.47921)"
         id="path162" />
    </clipPath>
    <clipPath
       clipPathUnits="userSpaceOnUse"
       id="clipPath164">
      <path
         d="M 0,500 H 500 V 0 H 0 Z"
         transform="translate(-166.20501,-440.70921)"
         id="path164" />
    </clipPath>
    <clipPath
       clipPathUnits="userSpaceOnUse"
       id="clipPath166">
      <path
         d="M 0,500 H 500 V 0 H 0 Z"
         transform="translate(-143.8351,-454.88131)"
         id="path166" />
    </clipPath>
    <clipPath
       clipPathUnits="userSpaceOnUse"
       id="clipPath167">
      <path
         d="m 129.293,453.599 h 36.156 v -25.23 h -36.156 z"
         transform="translate(-153.1882,-451.55771)"
         id="path167" />
    </clipPath>
    <clipPath
       clipPathUnits="userSpaceOnUse"
       id="clipPath169">
      <path
         d="M 0,500 H 500 V 0 H 0 Z"
         transform="matrix(1.3333333,0,0,-1.3333333,0,666.66667)"
         id="path169" />
    </clipPath>
    <clipPath
       clipPathUnits="userSpaceOnUse"
       id="clipPath170">
      <path
         d="M 118.196,437.511 H 167.74 V 414.44 h -49.544 z"
         transform="translate(-161.9649,-418.77521)"
         id="path170" />
    </clipPath>
    <clipPath
       clipPathUnits="userSpaceOnUse"
       id="clipPath172">
      <path
         d="M 0,500 H 500 V 0 H 0 Z"
         transform="matrix(1.3333333,0,0,-1.3333333,0,666.66667)"
         id="path172" />
    </clipPath>
    <clipPath
       clipPathUnits="userSpaceOnUse"
       id="clipPath174">
      <path
         d="M 0,500 H 500 V 0 H 0 Z"
         transform="translate(-142.38321,-450.63241)"
         id="path174" />
    </clipPath>
    <clipPath
       clipPathUnits="userSpaceOnUse"
       id="clipPath176">
      <path
         d="M 0,500 H 500 V 0 H 0 Z"
         transform="translate(-147.5857,-459.69871)"
         id="path176" />
    </clipPath>
    <clipPath
       clipPathUnits="userSpaceOnUse"
       id="clipPath177">
      <path
         d="M 266.258,245.797 H 425.689 V 153.263 H 266.258 Z"
         transform="translate(-388.61011,-207.34731)"
         id="path177" />
    </clipPath>
    <clipPath
       clipPathUnits="userSpaceOnUse"
       id="clipPath179">
      <path
         d="M 0,500 H 500 V 0 H 0 Z"
         transform="matrix(1.3333333,0,0,-1.3333333,0,666.66667)"
         id="path179" />
    </clipPath>
    <clipPath
       clipPathUnits="userSpaceOnUse"
       id="clipPath180">
      <path
         d="M 309.082,223.906 H 410.209 V 96.0882 H 309.082 Z"
         transform="translate(-333.71831,-197.8686)"
         id="path180" />
    </clipPath>
    <clipPath
       clipPathUnits="userSpaceOnUse"
       id="clipPath181">
      <path
         d="M 309.082,223.906 H 410.209 V 96.0882 H 309.082 Z"
         transform="translate(-334.56171,-96.0882)"
         id="path181" />
    </clipPath>
    <clipPath
       clipPathUnits="userSpaceOnUse"
       id="clipPath182">
      <path
         d="M 309.082,223.906 H 410.209 V 96.0882 H 309.082 Z"
         transform="translate(-333.62801,-101.6625)"
         id="path182" />
    </clipPath>
    <clipPath
       clipPathUnits="userSpaceOnUse"
       id="clipPath183">
      <path
         d="M 309.082,223.906 H 410.209 V 96.0882 H 309.082 Z"
         transform="translate(-340.79031,-194.19521)"
         id="path183" />
    </clipPath>
    <clipPath
       clipPathUnits="userSpaceOnUse"
       id="clipPath184">
      <path
         d="M 309.082,223.906 H 410.209 V 96.0882 H 309.082 Z"
         transform="translate(-410.20931,-168.9144)"
         id="path184" />
    </clipPath>
    <clipPath
       clipPathUnits="userSpaceOnUse"
       id="clipPath185">
      <path
         d="M 309.082,223.906 H 410.209 V 96.0882 H 309.082 Z"
         transform="translate(-332.34791,-195.64061)"
         id="path185" />
    </clipPath>
    <clipPath
       clipPathUnits="userSpaceOnUse"
       id="clipPath192">
      <path
         d="M 0,500 H 500 V 0 H 0 Z"
         transform="matrix(1.3333333,0,0,-1.3333333,0,666.66667)"
         id="path192" />
    </clipPath>
    <clipPath
       clipPathUnits="userSpaceOnUse"
       id="clipPath194">
      <path
         d="M 0,500 H 500 V 0 H 0 Z"
         transform="translate(-301.26551,-249.2493)"
         id="path194" />
    </clipPath>
    <clipPath
       clipPathUnits="userSpaceOnUse"
       id="clipPath196">
      <path
         d="M 0,500 H 500 V 0 H 0 Z"
         transform="translate(-317.36641,-248.3136)"
         id="path196" />
    </clipPath>
    <clipPath
       clipPathUnits="userSpaceOnUse"
       id="clipPath197">
      <path
         d="m 276.224,258.618 h 41.142 v -28.903 h -41.142 z"
         transform="translate(-317.36641,-248.3136)"
         id="path197" />
    </clipPath>
    <clipPath
       clipPathUnits="userSpaceOnUse"
       id="clipPath199">
      <path
         d="M 0,500 H 500 V 0 H 0 Z"
         transform="matrix(1.3333333,0,0,-1.3333333,0,666.66667)"
         id="path199" />
    </clipPath>
    <clipPath
       clipPathUnits="userSpaceOnUse"
       id="clipPath201">
      <path
         d="M 0,500 H 500 V 0 H 0 Z"
         transform="translate(-425.07441,-166.8477)"
         id="path201" />
    </clipPath>
    <clipPath
       clipPathUnits="userSpaceOnUse"
       id="clipPath203">
      <path
         d="M 0,500 H 500 V 0 H 0 Z"
         transform="translate(-357.67861,-228.02751)"
         id="path203" />
    </clipPath>
    <clipPath
       clipPathUnits="userSpaceOnUse"
       id="clipPath205">
      <path
         d="M 0,500 H 500 V 0 H 0 Z"
         transform="translate(-351.60301,-231.54261)"
         id="path205" />
    </clipPath>
    <clipPath
       clipPathUnits="userSpaceOnUse"
       id="clipPath207">
      <path
         d="M 0,500 H 500 V 0 H 0 Z"
         transform="translate(-369.69981,-220.9221)"
         id="path207" />
    </clipPath>
    <clipPath
       clipPathUnits="userSpaceOnUse"
       id="clipPath209">
      <path
         d="M 0,500 H 500 V 0 H 0 Z"
         transform="translate(-363.71891,-224.4918)"
         id="path209" />
    </clipPath>
    <clipPath
       clipPathUnits="userSpaceOnUse"
       id="clipPath211">
      <path
         d="M 0,500 H 500 V 0 H 0 Z"
         transform="translate(-375.63911,-217.3278)"
         id="path211" />
    </clipPath>
    <clipPath
       clipPathUnits="userSpaceOnUse"
       id="clipPath213">
      <path
         d="M 0,500 H 500 V 0 H 0 Z"
         transform="translate(-345.49871,-235.0419)"
         id="path213" />
    </clipPath>
    <clipPath
       clipPathUnits="userSpaceOnUse"
       id="clipPath215">
      <path
         d="M 0,500 H 500 V 0 H 0 Z"
         transform="translate(-327.17821,-245.5335)"
         id="path215" />
    </clipPath>
    <clipPath
       clipPathUnits="userSpaceOnUse"
       id="clipPath217">
      <path
         d="M 0,500 H 500 V 0 H 0 Z"
         transform="translate(-281.7088,-226.91351)"
         id="path217" />
    </clipPath>
    <clipPath
       clipPathUnits="userSpaceOnUse"
       id="clipPath219">
      <path
         d="M 0,500 H 500 V 0 H 0 Z"
         transform="translate(-339.39201,-238.53911)"
         id="path219" />
    </clipPath>
    <clipPath
       clipPathUnits="userSpaceOnUse"
       id="clipPath221">
      <path
         d="M 0,500 H 500 V 0 H 0 Z"
         transform="translate(-333.28501,-242.0364)"
         id="path221" />
    </clipPath>
    <clipPath
       clipPathUnits="userSpaceOnUse"
       id="clipPath223">
      <path
         d="M 0,500 H 500 V 0 H 0 Z"
         transform="translate(-398.03781,-202.16721)"
         id="path223" />
    </clipPath>
    <clipPath
       clipPathUnits="userSpaceOnUse"
       id="clipPath225">
      <path
         d="M 0,500 H 500 V 0 H 0 Z"
         transform="translate(-416.69311,-184.8449)"
         id="path225" />
    </clipPath>
    <clipPath
       clipPathUnits="userSpaceOnUse"
       id="clipPath227">
      <path
         d="M 0,500 H 500 V 0 H 0 Z"
         transform="translate(-381.55291,-213.71891)"
         id="path227" />
    </clipPath>
    <clipPath
       clipPathUnits="userSpaceOnUse"
       id="clipPath229">
      <path
         d="M 0,500 H 500 V 0 H 0 Z"
         transform="translate(-423.78061,-174.89021)"
         id="path229" />
    </clipPath>
    <clipPath
       clipPathUnits="userSpaceOnUse"
       id="clipPath231">
      <path
         d="M 0,500 H 500 V 0 H 0 Z"
         transform="translate(-412.46261,-189.42581)"
         id="path231" />
    </clipPath>
    <clipPath
       clipPathUnits="userSpaceOnUse"
       id="clipPath233">
      <path
         d="M 0,500 H 500 V 0 H 0 Z"
         transform="translate(-420.51431,-180.02801)"
         id="path233" />
    </clipPath>
    <clipPath
       clipPathUnits="userSpaceOnUse"
       id="clipPath235">
      <path
         d="M 0,500 H 500 V 0 H 0 Z"
         transform="translate(-407.91091,-193.8207)"
         id="path235" />
    </clipPath>
    <clipPath
       clipPathUnits="userSpaceOnUse"
       id="clipPath237">
      <path
         d="M 0,500 H 500 V 0 H 0 Z"
         transform="translate(-387.28101,-210.00281)"
         id="path237" />
    </clipPath>
    <clipPath
       clipPathUnits="userSpaceOnUse"
       id="clipPath239">
      <path
         d="M 0,500 H 500 V 0 H 0 Z"
         transform="translate(-392.76861,-206.1483)"
         id="path239" />
    </clipPath>
    <clipPath
       clipPathUnits="userSpaceOnUse"
       id="clipPath241">
      <path
         d="M 0,500 H 500 V 0 H 0 Z"
         transform="translate(-403.09121,-198.0618)"
         id="path241" />
    </clipPath>
    <clipPath
       clipPathUnits="userSpaceOnUse"
       id="clipPath243">
      <path
         d="M 0,500 H 500 V 0 H 0 Z"
         transform="translate(-432.36251,-170.3489)"
         id="path243" />
    </clipPath>
    <clipPath
       clipPathUnits="userSpaceOnUse"
       id="clipPath245">
      <path
         d="M 0,500 H 500 V 0 H 0 Z"
         transform="translate(-427.59901,-171.5309)"
         id="path245" />
    </clipPath>
    <clipPath
       clipPathUnits="userSpaceOnUse"
       id="clipPath246">
      <path
         d="M 315.704,258.612 H 429.048 V 171.529 H 315.704 Z"
         transform="translate(-427.59901,-171.5309)"
         id="path246" />
    </clipPath>
    <clipPath
       clipPathUnits="userSpaceOnUse"
       id="clipPath248">
      <path
         d="M 0,500 H 500 V 0 H 0 Z"
         transform="matrix(1.3333333,0,0,-1.3333333,0,666.66667)"
         id="path248" />
    </clipPath>
    <clipPath
       clipPathUnits="userSpaceOnUse"
       id="clipPath250">
      <path
         d="M 0,500 H 500 V 0 H 0 Z"
         transform="translate(-435.63161,-174.9422)"
         id="path250" />
    </clipPath>
    <clipPath
       clipPathUnits="userSpaceOnUse"
       id="clipPath252">
      <path
         d="M 0,500 H 500 V 0 H 0 Z"
         transform="translate(-322.70811,-256.39991)"
         id="path252" />
    </clipPath>
    <clipPath
       clipPathUnits="userSpaceOnUse"
       id="clipPath254">
      <path
         d="M 0,500 H 500 V 0 H 0 Z"
         transform="translate(-334.03331,-250.28231)"
         id="path254" />
    </clipPath>
    <clipPath
       clipPathUnits="userSpaceOnUse"
       id="clipPath256">
      <path
         d="M 0,500 H 500 V 0 H 0 Z"
         transform="translate(-344.26061,-244.7832)"
         id="path256" />
    </clipPath>
    <clipPath
       clipPathUnits="userSpaceOnUse"
       id="clipPath258">
      <path
         d="M 0,500 H 500 V 0 H 0 Z"
         transform="translate(-353.79221,-238.59851)"
         id="path258" />
    </clipPath>
    <clipPath
       clipPathUnits="userSpaceOnUse"
       id="clipPath260">
      <path
         d="M 0,500 H 500 V 0 H 0 Z"
         transform="translate(-363.71101,-232.77491)"
         id="path260" />
    </clipPath>
    <clipPath
       clipPathUnits="userSpaceOnUse"
       id="clipPath262">
      <path
         d="M 0,500 H 500 V 0 H 0 Z"
         transform="translate(-374.44761,-226.2363)"
         id="path262" />
    </clipPath>
    <clipPath
       clipPathUnits="userSpaceOnUse"
       id="clipPath264">
      <path
         d="M 0,500 H 500 V 0 H 0 Z"
         transform="translate(-386.71171,-218.9463)"
         id="path264" />
    </clipPath>
    <clipPath
       clipPathUnits="userSpaceOnUse"
       id="clipPath266">
      <path
         d="M 0,500 H 500 V 0 H 0 Z"
         transform="translate(-398.75741,-210.5502)"
         id="path266" />
    </clipPath>
    <clipPath
       clipPathUnits="userSpaceOnUse"
       id="clipPath268">
      <path
         d="M 0,500 H 500 V 0 H 0 Z"
         transform="translate(-409.20801,-202.24361)"
         id="path268" />
    </clipPath>
    <clipPath
       clipPathUnits="userSpaceOnUse"
       id="clipPath270">
      <path
         d="M 0,500 H 500 V 0 H 0 Z"
         transform="translate(-417.76211,-193.212)"
         id="path270" />
    </clipPath>
    <clipPath
       clipPathUnits="userSpaceOnUse"
       id="clipPath272">
      <path
         d="M 0,500 H 500 V 0 H 0 Z"
         transform="translate(-425.01571,-184.5363)"
         id="path272" />
    </clipPath>
    <clipPath
       clipPathUnits="userSpaceOnUse"
       id="clipPath274">
      <path
         d="M 0,500 H 500 V 0 H 0 Z"
         transform="translate(-430.29681,-174.5378)"
         id="path274" />
    </clipPath>
    <clipPath
       clipPathUnits="userSpaceOnUse"
       id="clipPath276">
      <path
         d="M 0,500 H 500 V 0 H 0 Z"
         transform="translate(-367.54881,-238.25151)"
         id="path276" />
    </clipPath>
    <clipPath
       clipPathUnits="userSpaceOnUse"
       id="clipPath278">
      <path
         d="M 0,500 H 500 V 0 H 0 Z"
         transform="translate(-347.99211,-249.54281)"
         id="path278" />
    </clipPath>
    <clipPath
       clipPathUnits="userSpaceOnUse"
       id="clipPath280">
      <path
         d="M 0,500 H 500 V 0 H 0 Z"
         transform="translate(-367.54881,-238.25151)"
         id="path280" />
    </clipPath>
    <clipPath
       clipPathUnits="userSpaceOnUse"
       id="clipPath282">
      <path
         d="M 0,500 H 500 V 0 H 0 Z"
         transform="translate(-393.62311,-208.6977)"
         id="path282" />
    </clipPath>
    <clipPath
       clipPathUnits="userSpaceOnUse"
       id="clipPath283">
      <path
         d="m 347.141,223.519 h 40.926 v -36.054 h -40.926 z"
         transform="translate(-363.99901,-214.92081)"
         id="path283" />
    </clipPath>
    <clipPath
       clipPathUnits="userSpaceOnUse"
       id="clipPath285">
      <path
         d="M 0,500 H 500 V 0 H 0 Z"
         transform="matrix(1.3333333,0,0,-1.3333333,0,666.66667)"
         id="path285" />
    </clipPath>
    <clipPath
       clipPathUnits="userSpaceOnUse"
       id="clipPath287">
      <path
         d="M 0,500 H 500 V 0 H 0 Z"
         transform="translate(-301.05891,-225.32091)"
         id="path287" />
    </clipPath>
    <clipPath
       clipPathUnits="userSpaceOnUse"
       id="clipPath289">
      <path
         d="M 0,500 H 500 V 0 H 0 Z"
         transform="translate(-327.81761,-213.57831)"
         id="path289" />
    </clipPath>
    <clipPath
       clipPathUnits="userSpaceOnUse"
       id="clipPath291">
      <path
         d="M 0,500 H 500 V 0 H 0 Z"
         transform="translate(-396.02551,-208.35141)"
         id="path291" />
    </clipPath>
    <clipPath
       clipPathUnits="userSpaceOnUse"
       id="clipPath292">
      <path
         d="m 356.589,208.351 h 39.437 v -27.397 h -39.437 z"
         transform="translate(-396.02551,-208.35141)"
         id="path292" />
    </clipPath>
    <clipPath
       clipPathUnits="userSpaceOnUse"
       id="clipPath294">
      <path
         d="M 0,500 H 500 V 0 H 0 Z"
         transform="matrix(1.3333333,0,0,-1.3333333,0,666.66667)"
         id="path294" />
    </clipPath>
    <clipPath
       clipPathUnits="userSpaceOnUse"
       id="clipPath296">
      <path
         d="M 0,500 H 500 V 0 H 0 Z"
         transform="translate(-430.67941,-168.6008)"
         id="path296" />
    </clipPath>
    <clipPath
       clipPathUnits="userSpaceOnUse"
       id="clipPath298">
      <path
         d="M 0,500 H 500 V 0 H 0 Z"
         transform="translate(-415.95551,-159.81431)"
         id="path298" />
    </clipPath>
    <clipPath
       clipPathUnits="userSpaceOnUse"
       id="clipPath299">
      <path
         d="M 276.133,222.192 H 422.23 V 158.965 H 276.133 Z"
         transform="translate(-415.95551,-159.81431)"
         id="path299" />
    </clipPath>
    <clipPath
       clipPathUnits="userSpaceOnUse"
       id="clipPath301">
      <path
         d="M 0,500 H 500 V 0 H 0 Z"
         transform="matrix(1.3333333,0,0,-1.3333333,0,666.66667)"
         id="path301" />
    </clipPath>
    <clipPath
       clipPathUnits="userSpaceOnUse"
       id="clipPath303">
      <path
         d="M 0,500 H 500 V 0 H 0 Z"
         transform="translate(-430.67941,-168.6008)"
         id="path303" />
    </clipPath>
    <clipPath
       clipPathUnits="userSpaceOnUse"
       id="clipPath305">
      <path
         d="M 0,500 H 500 V 0 H 0 Z"
         transform="translate(-385.21911,-183.35381)"
         id="path305" />
    </clipPath>
    <clipPath
       clipPathUnits="userSpaceOnUse"
       id="clipPath307">
      <path
         d="M 0,500 H 500 V 0 H 0 Z"
         transform="translate(-280.3171,-230.98901)"
         id="path307" />
    </clipPath>
    <clipPath
       clipPathUnits="userSpaceOnUse"
       id="clipPath309">
      <path
         d="M 0,500 H 500 V 0 H 0 Z"
         transform="translate(-293.18011,-223.62251)"
         id="path309" />
    </clipPath>
    <clipPath
       clipPathUnits="userSpaceOnUse"
       id="clipPath311">
      <path
         d="M 0,500 H 500 V 0 H 0 Z"
         transform="translate(-306.52741,-215.98211)"
         id="path311" />
    </clipPath>
    <clipPath
       clipPathUnits="userSpaceOnUse"
       id="clipPath313">
      <path
         d="M 0,500 H 500 V 0 H 0 Z"
         transform="translate(-319.90811,-208.21991)"
         id="path313" />
    </clipPath>
    <clipPath
       clipPathUnits="userSpaceOnUse"
       id="clipPath315">
      <path
         d="M 0,500 H 500 V 0 H 0 Z"
         transform="translate(-332.84021,-200.8275)"
         id="path315" />
    </clipPath>
    <clipPath
       clipPathUnits="userSpaceOnUse"
       id="clipPath317">
      <path
         d="M 0,500 H 500 V 0 H 0 Z"
         transform="translate(-344.73361,-194.27171)"
         id="path317" />
    </clipPath>
    <clipPath
       clipPathUnits="userSpaceOnUse"
       id="clipPath319">
      <path
         d="M 0,500 H 500 V 0 H 0 Z"
         transform="translate(-355.36601,-189.21161)"
         id="path319" />
    </clipPath>
    <clipPath
       clipPathUnits="userSpaceOnUse"
       id="clipPath321">
      <path
         d="M 0,500 H 500 V 0 H 0 Z"
         transform="translate(-367.72801,-184.251)"
         id="path321" />
    </clipPath>
    <clipPath
       clipPathUnits="userSpaceOnUse"
       id="clipPath323">
      <path
         d="M 0,500 H 500 V 0 H 0 Z"
         transform="translate(-381.41341,-179.4645)"
         id="path323" />
    </clipPath>
    <clipPath
       clipPathUnits="userSpaceOnUse"
       id="clipPath325">
      <path
         d="M 0,500 H 500 V 0 H 0 Z"
         transform="translate(-395.81151,-175.0122)"
         id="path325" />
    </clipPath>
    <clipPath
       clipPathUnits="userSpaceOnUse"
       id="clipPath327">
      <path
         d="M 0,500 H 500 V 0 H 0 Z"
         transform="translate(-410.41571,-171.7617)"
         id="path327" />
    </clipPath>
    <clipPath
       clipPathUnits="userSpaceOnUse"
       id="clipPath329">
      <path
         d="M 0,500 H 500 V 0 H 0 Z"
         transform="translate(-424.15261,-169.6217)"
         id="path329" />
    </clipPath>
    <clipPath
       clipPathUnits="userSpaceOnUse"
       id="clipPath331">
      <path
         d="M 0,500 H 500 V 0 H 0 Z"
         transform="translate(-335.97791,-260.9097)"
         id="path331" />
    </clipPath>
    <clipPath
       clipPathUnits="userSpaceOnUse"
       id="clipPath333">
      <path
         d="M 0,500 H 500 V 0 H 0 Z"
         transform="translate(-336.92511,-376.51171)"
         id="path333" />
    </clipPath>
    <clipPath
       clipPathUnits="userSpaceOnUse"
       id="clipPath335">
      <path
         d="M 0,500 H 500 V 0 H 0 Z"
         transform="translate(-335.87661,-371.41521)"
         id="path335" />
    </clipPath>
    <clipPath
       clipPathUnits="userSpaceOnUse"
       id="clipPath337">
      <path
         d="M 0,500 H 500 V 0 H 0 Z"
         transform="translate(-343.92041,-255.28451)"
         id="path337" />
    </clipPath>
    <clipPath
       clipPathUnits="userSpaceOnUse"
       id="clipPath339">
      <path
         d="M 0,500 H 500 V 0 H 0 Z"
         transform="translate(-420.46681,-191.1924)"
         id="path339" />
    </clipPath>
    <clipPath
       clipPathUnits="userSpaceOnUse"
       id="clipPath341">
      <path
         d="M 0,500 H 500 V 0 H 0 Z"
         transform="translate(-338.25511,-365.21661)"
         id="path341" />
    </clipPath>
    <clipPath
       clipPathUnits="userSpaceOnUse"
       id="clipPath343">
      <path
         d="M 0,500 H 500 V 0 H 0 Z"
         transform="translate(-421.88371,-187.70201)"
         id="path343" />
    </clipPath>
    <clipPath
       clipPathUnits="userSpaceOnUse"
       id="clipPath345">
      <path
         d="M 0,500 H 500 V 0 H 0 Z"
         transform="translate(-310.29881,-279.89751)"
         id="path345" />
    </clipPath>
    <clipPath
       clipPathUnits="userSpaceOnUse"
       id="clipPath347">
      <path
         d="M 0,500 H 500 V 0 H 0 Z"
         transform="translate(-335.64071,-368.27241)"
         id="path347" />
    </clipPath>
  </defs>
  <sodipodi:namedview
     id="namedview1"
     pagecolor="#ffffff"
     bordercolor="#000000"
     borderopacity="0.25"
     inkscape:showpageshadow="2"
     inkscape:pageopacity="0.0"
     inkscape:pagecheckerboard="0"
     inkscape:deskcolor="#d1d1d1"
     showgrid="true"
     inkscape:lockguides="false"
     inkscape:zoom="0.78125"
     inkscape:cx="479.36"
     inkscape:cy="512"
     inkscape:window-width="1920"
     inkscape:window-height="1044"
     inkscape:window-x="0"
     inkscape:window-y="0"
     inkscape:window-maximized="1"
     inkscape:current-layer="layer-MC0">
    <inkscape:grid
       id="grid347"
       units="px"
       originx="0"
       originy="0"
       spacingx="64.000001"
       spacingy="64.000001"
       empcolor="#0099e5"
       empopacity="0.30196078"
       color="#0099e5"
       opacity="0.14901961"
       empspacing="5"
       dotted="false"
       gridanglex="30"
       gridanglez="30"
       visible="true" />
  </sodipodi:namedview>
  <g
     inkscape:groupmode="layer"
     id="layer1"
     inkscape:label="BG"
     sodipodi:insensitive="true">
    <rect
       style="fill:none;stroke-width:2.13543"
       id="rect347"
       width="960"
       height="1024"
       x="0"
       y="0"
       inkscape:export-filename="water2.svg"
       inkscape:export-xdpi="96"
       inkscape:export-ydpi="96" />
  </g>
  <g
     id="layer-MC0"
     inkscape:groupmode="layer"
     inkscape:label="Water"
     style="display:inline"
     transform="matrix(1.4306308,0,0,1.4306308,3.0615656,26.549177)">
    <g
       opacity="0.100006"
       id="g10"
       clip-path="url(#clipPath11)"
       style="display:inline">
      <path
         d="m 0,0 c -4.115,-2.095 -8.23,-4.19 -12.35,-6.265 -1.659,-0.857 -3.392,-1.767 -3.722,-3.061 -0.842,-3.204 6.53,-6.2 10.548,-9.337 3.251,-2.521 4.429,-5.597 3.091,-8.043 -1.36,-2.446 -4.327,-4.378 -6.827,-5.515 -3.787,-1.743 -12.372,-2.398 -17.989,-1.043 -5.633,1.336 -11.126,3.566 -16.801,3.767 -3.002,0.111 -6.118,-0.32 -8.904,0.64 -4.222,1.483 -3.593,4.485 -5.01,6.909 -1.51,2.548 -5.76,4.719 -7.883,7.207 -2.936,3.501 -1.174,7.118 2.68,9.504 3.882,2.365 9.547,3.714 15.069,5.034 5.545,1.318 11.206,2.687 15.017,5.076 3.206,2.015 5.028,4.705 8.994,6.319 6.164,2.476 17.236,1.503 24.259,-2.138 C 2.502,7.827 4.454,6.272 4.717,4.745 5.055,2.703 2.452,1.258 0,0 m -24.958,-51.577 c -4.594,-3.399 -11.93,-5.369 -18.136,-7.94 -12.09,-5.045 -20.028,-12.588 -22.326,-21.214 -0.631,-2.334 -0.854,-4.753 -1.963,-6.978 -1.005,-2.017 -2.748,-3.83 -5.259,-5.3 -3.059,-1.808 -7.492,-3.078 -12.673,-2.869 -5.204,0.21 -11.097,2.211 -13.165,4.931 -3.798,5.007 6.223,8.535 5.142,13.547 -0.791,3.739 -7.656,7.821 -5.572,11.064 2.209,3.451 13.001,2.947 15.763,6.246 1.783,2.104 -0.484,5.033 -3.645,7.352 -3.157,2.298 -7.222,4.321 -10.035,6.715 -2.812,2.395 -6.388,6.525 -5.249,8.336 0.655,0.999 2.878,0.898 3.658,0.79 7.201,-0.926 12.292,-6.682 19.345,-6.871 2.757,-0.076 5.039,0.604 7.071,1.339 6.772,2.457 12.43,5.73 20.365,7.251 7.952,1.538 19.394,0.738 25.946,-3.482 6.345,-4.069 5.304,-9.517 0.733,-12.917 m 2.178,-23.858 c 4.516,0.441 6.818,2.729 7.93,5.032 1.112,2.304 1.497,4.87 3.889,6.76 3.641,2.85 11.535,3.608 18.969,2.413 7.413,-1.193 14.28,-4.059 19.569,-7.375 3.497,-2.183 6.486,-4.687 7.327,-7.232 1.629,-5.047 -5.509,-8.638 -13.261,-10.582 -7.752,-1.944 -16.859,-3.057 -22.371,-6.397 -6.348,-3.838 -6.662,-9.822 -7.803,-15.303 -1.141,-5.48 -4.107,-11.277 -13.39,-13.223 -3.087,-0.649 -7.541,-0.603 -10.198,1.016 -2.204,1.336 -2.124,3.156 -1.068,4.482 1.038,1.308 2.866,2.37 3.737,3.747 0.397,0.623 0.583,1.317 0.052,2.038 -0.974,1.336 -4.127,2.104 -6.705,2.247 -2.595,0.125 -5.082,-0.13 -7.688,0.23 -6.119,0.818 -12.156,-0.135 -17.196,2.282 -3.563,1.716 -5.183,4.271 -5.15,6.486 0.011,2.216 1.437,4.186 2.828,6.119 3.085,4.24 6.149,8.481 9.234,12.72 2.213,3.059 5.28,6.436 11.879,6.628 6.277,0.193 13.428,-2.691 19.416,-2.088 m -53.264,-36.646 c -5.168,-0.89 -11.209,-0.882 -17.193,0.006 -4.512,0.677 -9.501,1.835 -13.154,0.928 -3.732,-0.942 -4.145,-3.663 -3.529,-6.076 0.622,-2.433 1.905,-5.025 0.366,-7.067 -2.088,-2.752 -8.543,-3.483 -14.553,-3.614 -3.971,-0.083 -8.382,0.058 -12.104,1.431 -1.953,0.712 -3.542,1.714 -5.369,2.536 -8.245,3.797 -19.088,3.578 -28.921,4.414 -12.626,1.072 -26.22,4.676 -34.436,10.61 -8.217,5.933 -9.166,14.233 -0.08,17.604 3.703,1.356 8.598,1.831 13.621,1.75 8.291,-0.131 17.147,-1.788 24.784,-4.624 4.833,-1.796 9.281,-4.078 14.554,-5.255 8.433,-1.885 17.008,-0.425 22.179,2.427 5.172,2.853 7.621,6.858 10.005,10.769 0.991,1.605 2.642,3.443 6.147,3.3 2.937,-0.106 5.693,-1.693 6.889,-3.24 1.195,-1.547 1.345,-3.145 2.05,-4.72 1.491,-3.312 5.698,-6.619 11.274,-8.834 l 1.302,-0.318 c 4.493,0.443 9.392,0.624 14.251,-0.35 4.861,-0.973 9.568,-3.35 10.303,-5.908 0.845,-2.937 -3.551,-4.936 -8.386,-5.769 m -141.967,17.138 c -0.804,-1.578 -1.192,-3.28 -2.553,-4.685 -1.382,-1.404 -4.09,-2.489 -7.456,-2.198 -3.498,0.299 -6.566,1.924 -9.218,3.426 -3.763,2.121 -7.797,4.573 -8.148,7.146 -0.416,2.949 4.19,4.974 3.971,7.911 -0.253,3.371 -8.365,6.865 -14.255,6.118 -3.548,-0.423 -5.713,-1.994 -8.261,-3.207 -2.819,-1.352 -6.288,-2.31 -10.181,-2.83 -4.042,-0.53 -8.718,-0.549 -13.072,0.57 -3.6,0.933 -6.62,2.536 -9.386,4.163 -3.967,2.349 -7.761,4.884 -9.676,7.693 -3.621,5.271 0.057,10.218 4.491,14.314 5.345,4.921 11.823,9.417 19.308,13.379 3.731,1.982 8.141,3.921 14.064,3.861 2.914,-0.007 5.942,-0.512 8.915,-0.876 4.634,-0.547 9.294,-0.743 13.874,-1.621 4.601,-0.879 9.342,-2.649 11.183,-5.041 2.988,-3.917 -2.915,-7.154 -1.948,-11.1 0.673,-2.75 5.099,-5.6 10.323,-6.656 3.729,-0.744 7.455,-0.626 11.194,-0.941 3.761,-0.316 8.114,-1.336 9.868,-3.251 1.175,-1.271 0.881,-2.626 1.593,-3.946 2.452,-4.589 15.004,-6.755 18.816,-11.253 0.301,-0.372 0.567,-0.781 0.434,-1.145 -0.282,-0.748 -2.017,-0.893 -3.531,-0.876 -7.192,0.041 -15.978,1.204 -20.172,-1.396 l -0.935,-0.157 c -4.459,-1.818 -7.686,-4.4 -9.242,-7.402 m -65.795,82.827 c -9.736,-1.289 -16.381,-2.694 -27.254,-0.988 -5.906,0.922 -12.13,2.766 -15.472,5.685 -2.147,1.842 -2.861,3.928 -2.843,5.829 0.014,8.142 11.66,13.431 22.612,17.979 9.655,4.001 19.287,8.004 28.94,12.006 8.844,3.68 18.268,7.932 18.498,14.471 0.177,5.07 -5.324,10.734 -3.477,15.484 2.124,5.516 13.788,7.9 25.266,7.038 8.344,-0.643 17.429,-2.924 22.985,-6.845 2.008,-1.422 3.465,-2.985 4.603,-4.568 1.325,-1.829 2.253,-3.811 1.239,-5.414 -0.729,-1.151 -2.414,-1.987 -3.722,-2.964 -4.811,-3.581 -4.094,-9.355 1.756,-13.904 2.022,-1.579 4.599,-3.036 5.94,-4.749 2.593,-3.323 -0.611,-6.574 -5.686,-7.961 -5.08,-1.367 -11.603,-1.328 -17.867,-1.286 -6.265,0.042 -12.784,0.061 -17.806,-1.368 -4.783,-1.347 -7.678,-3.872 -10.368,-6.351 -1.917,-1.802 -3.856,-3.7 -3.699,-5.986 0.124,-2.147 2.135,-4.432 1.992,-6.541 -0.125,-2.19 -2.538,-3.902 -5.387,-5.213 -4.418,-1.998 -6.262,-2.234 -12.316,-3.206 0,0 -1.892,-0.214 -2.442,-0.356 -1.061,-0.267 -3.46,-0.528 -5.492,-0.792 m -14.115,49.921 c -6.048,2.207 -6.573,6.674 -4.101,9.54 2.498,2.844 7.041,5.049 8.294,8.246 1.172,2.988 -0.78,6.524 -4.207,9.625 -3.427,3.1 -8.233,5.817 -13.239,8.369 -2.004,1.029 -4.117,2.065 -5.314,3.337 -1.25,1.315 -1.398,2.718 -1.152,3.997 0.744,3.916 4.635,7.085 8.976,9.891 6.224,4.002 13.634,7.538 22.876,9.662 6.911,1.565 15.264,2.294 23.56,0.633 8.297,-1.661 16.046,-6.31 15.607,-10.52 -0.838,-8.401 -16.907,-5.606 -17.504,-14.549 -0.135,-2.028 0.182,-4.224 -0.513,-6.032 -1.025,-2.666 -4.007,-3.927 -5.21,-6.467 -1.436,-3.033 -0.533,-6.983 0.418,-10.593 1.043,-3.958 2.192,-8.177 0.757,-11.438 -0.786,-1.788 -2.705,-3.757 -4.877,-4.286 -5.567,-1.357 -12.042,-1.768 -18.414,-0.752 -2.037,0.325 -4.101,0.671 -5.957,1.337 m 86.324,32.343 c 2.143,6.85 13.982,10.537 25.053,13.626 7.523,2.095 15.409,4.207 24.741,4.148 9.332,-0.058 20.566,-2.965 25.067,-7.84 2.841,-3.083 2.503,-6.417 0.318,-9.025 -2.208,-2.608 -6.093,-4.58 -10.22,-6.341 -5.19,-2.203 -9.621,-4.239 -15.705,-5.837 -4.712,-1.841 -5.797,-5.775 -2.498,-9.162 0.653,-0.688 1.499,-1.37 1.921,-2.083 1.596,-2.828 -3.648,-4.42 -7.401,-5.929 -5.666,-2.291 -8.808,-6.096 -8.517,-10.293 0.194,-2.642 1.668,-5.501 0.377,-7.872 -1.265,-2.392 -7.096,-3.869 -11.462,-1.946 -5.086,2.244 -2.724,6.157 -6.092,9.096 -1.455,1.269 -3.931,2.289 -4.95,3.628 -1.394,1.854 0.476,3.482 2.095,4.891 3.482,2.978 6.093,6.463 5.349,10.375 -0.992,5.282 -7.872,10.464 -14.725,15.154 -1.228,0.842 -2.504,1.708 -3.135,2.67 -0.603,0.94 -0.493,1.875 -0.216,2.74 m 102.746,-131.403 c -6.13,0.014 -13.257,2.033 -16.771,5.139 -1.781,1.564 -2.584,3.283 -3.356,4.96 -1.24,2.688 -2.481,5.375 -3.716,8.043 -1.643,3.596 -3.369,7.276 -7.078,10.669 -3.709,3.392 -9.858,6.508 -16.703,7.391 -3.933,0.503 -8.772,0.533 -11.125,2.428 -2.357,1.915 0.141,3.817 2.127,5.32 3.241,2.425 5.192,5.402 5.64,8.631 0.321,2.177 -0.041,4.515 1.166,6.499 1.837,3.004 7.485,4.904 14.006,4.689 6.519,-0.216 13.579,-2.505 17.527,-5.717 3.019,-2.447 4.146,-5.206 5.229,-7.864 2.881,-7.128 5.735,-14.233 8.617,-21.361 1.647,-4.086 3.391,-8.317 7.987,-12.099 1.966,-1.615 4.398,-3.103 6.281,-4.732 2.853,-2.476 4.844,-4.014 4.713,-6.556 0,0 -0.293,-0.884 -0.492,-1.147 -2.106,-2.771 -7.902,-4.308 -14.052,-4.293 m -77.387,-1.161 c 6.956,1.464 15.319,1.682 21.283,3.896 2.682,1.008 4.864,2.499 4.817,4.405 -0.084,3.007 -5.285,5.846 -9.146,8.582 -4.143,2.929 -7.18,6.496 -6.084,9.526 1.307,3.626 7.949,5.424 14.109,6.88 1.004,0.231 2.069,0.478 3.286,0.342 0.907,-0.096 1.798,-0.407 2.605,-0.733 5.471,-2.228 8.901,-5.624 10.942,-8.892 2.025,-3.286 2.934,-6.6 4.849,-9.88 3.487,-5.91 10.368,-11.661 19.416,-16.234 2.728,-0.8 5.944,-1.376 8.334,-2.488 4.846,-2.228 4.949,-5.983 2.257,-8.265 -2.692,-2.283 -7.369,-3.616 -11.005,-5.447 -4.295,-2.162 -7.117,-5.006 -10.541,-7.576 -3.424,-2.57 -7.712,-4.948 -13.786,-5.742 -6.074,-0.794 -14.286,0.411 -18.803,3.56 -2.748,1.92 -3.775,4.241 -6.32,6.226 -6.565,5.123 -21.537,6.833 -25.76,12.377 -3.272,4.307 2.592,7.999 9.547,9.463 m 63.426,81.249 c 3.603,-2.366 10.394,-3.481 12.396,-6.198 1.356,-1.871 -0.317,-3.609 -2.609,-4.72 -3.375,-1.652 -8.135,-2.528 -13.29,-2.438 -5.067,0.084 -10.333,1.044 -15.499,1.468 -5.429,0.44 -10.694,0.262 -15.757,-0.144 -6.478,-0.533 -13.183,-1.68 -15.728,-4.698 -3.584,-4.228 1.977,-11.093 -4.63,-13.992 -4.623,-2.043 -12.906,-0.814 -19.23,1.371 -6.323,2.184 -11.718,5.212 -18.162,7.267 -4.981,1.589 -11.28,2.634 -16.581,2.988 -0.548,0.035 -1.646,0.025 -2.069,-0.105 -3.368,-1.023 -8.41,-0.764 -11.132,1.33 -2.744,2.096 -1.555,5.101 0.253,6.91 2.597,2.603 7.868,4.075 13.687,4.571 5.801,0.478 12.156,0.038 18.418,-0.651 8.741,-0.963 18.177,-2.422 25.403,-0.818 3.178,0.722 5.651,1.978 7.752,3.357 4.048,2.668 6.947,5.84 8.565,9.328 1.618,3.489 1.946,7.333 4.788,10.47 3.426,3.786 10.976,6.331 19.866,5.751 8.868,-0.579 18.5,-4.777 20.283,-9.461 1.51,-3.96 -1.957,-8.137 3.276,-11.586 M -229.62,-41.551 c -2.75,1.744 -7.053,2.545 -10.941,2.849 -3.887,0.304 -7.736,0.253 -11.631,0.871 -8.989,1.391 -16.51,6.359 -18.302,11.083 -1.819,4.745 1.305,9.099 6.623,12.158 5.34,3.057 12.695,4.948 20.249,6.532 7.043,1.458 15.559,2.609 23.498,0.244 7.777,-2.315 12.697,-7.413 20.8,-9.082 5.799,-1.209 12.937,-0.64 16.882,-3.36 2.306,-1.598 2.118,-3.607 0.837,-5.076 -1.304,-1.468 -3.529,-2.583 -5.118,-3.935 -5.044,-4.351 -2.497,-11.34 5.866,-16.027 3.262,-1.814 7.548,-3.576 8.299,-5.821 0.615,-1.843 -1.589,-3.333 -4.448,-4.035 -2.833,-0.724 -6.69,-1.403 -9.417,-2.212 -3.866,-1.11 -8.966,-4.085 -13.026,-5.104 -1.876,-0.47 -6.409,-0.93 -9.056,-0.861 -3.64,0.073 -7.792,1.061 -11.331,2.108 -2.571,0.771 -5.213,1.663 -6.974,2.951 -3.641,2.624 -2.414,5.745 -1.116,8.37 1.323,2.605 2.248,5.823 -1.694,8.347 m 154.585,30.392 c 1.012,-3.949 5.867,-7.826 7.937,-11.782 2.181,-4.16 1.116,-8.37 -2.855,-11.377 -3.26,-2.443 -9.286,-4.103 -15.654,-2.76 -9.428,1.988 -14.227,7.883 -20.532,12.342 -0.334,0.237 -0.906,1.038 -0.906,1.038 -3.324,3.781 -5.184,7.763 -5.428,11.565 -0.159,2.679 0.19,5.678 -3.615,7.978 -1.099,0.658 -2.474,1.196 -3.355,1.938 -2.561,2.143 0.784,4.307 4.747,4.802 3.968,0.476 8.705,0.138 12.099,1.14 4.908,1.457 5.229,5.242 3.558,8.585 -0.824,1.622 -2.024,3.287 -1.885,4.848 0.173,2.166 2.88,3.722 5.817,4.93 7.632,3.129 17.679,4.751 28.473,4.62 5.469,-0.051 11.288,-0.595 16.63,-2.168 5.316,-1.552 10.078,-4.265 11.443,-7.216 1.571,-3.376 -1.5,-6.36 -5.814,-8.246 -4.288,-1.908 -9.789,-3.032 -14.53,-4.656 -5.198,-1.791 -9.503,-4.188 -12.557,-7.056 -2.651,-2.462 -4.406,-5.353 -3.573,-8.525 m -26.178,68.713 c 8.031,-0.879 16.461,-2.275 23.702,-1.397 11.021,1.326 15.82,7.596 15.685,13.843 -0.02,1.316 -0.225,2.683 0.337,3.903 1.996,4.289 12.837,5.175 21.784,3.217 8.201,-1.812 15.561,-5.514 19.384,-9.777 3.818,-4.243 4.009,-8.945 0.522,-12.374 -2.29,-2.249 -5.989,-3.899 -9.509,-5.58 -3.767,-1.823 -7.562,-4.566 -4.477,-7.488 1.817,-1.723 5.758,-3.11 6.124,-4.899 0.211,-1.014 -0.836,-1.811 -2.003,-2.463 -3.765,-2.117 -9.09,-3.449 -15.085,-3.738 -10.836,-0.533 -22.961,2.214 -33.899,1.844 -8.37,-0.276 -15.499,-2.397 -20.371,-5.523 -1.827,-1.16 -3.398,-2.493 -5.867,-3.299 -2.469,-0.805 -6.213,-0.942 -9.11,0.222 -3.232,1.303 -4.057,3.591 -3.921,5.446 0.137,1.856 0.846,3.753 -0.667,5.654 -1.925,2.378 -8.526,4.834 -11.871,6.066 -5.178,0.287 -10.513,0.604 -15.573,1.885 -5.043,1.299 -9.842,3.799 -10.75,6.544 -1.31,4.027 5.844,6.322 12.62,7.347 13.154,1.995 27.996,2.177 42.945,0.567 M 68.89,-21.2 c 3.466,3.235 6.223,7.024 4.515,11.193 -1.119,2.72 -4.088,5.517 -3.796,8.107 0.296,2.619 3.82,4.41 7.709,5.758 -0.68,2.936 -1.524,5.862 -2.555,8.773 C 74.584,12.211 74.357,11.804 74.07,11.416 72.362,9.109 69.522,7.328 66.243,6.336 63.468,5.498 60.379,5.226 57.393,5.68 54.085,6.182 50.914,7.128 47.636,7.786 41.999,8.946 36.087,9.24 30.89,8.666 25.301,8.018 19.781,6.404 13.758,7.843 7.572,9.332 4.114,13.415 -1.973,15.134 c -6.364,1.794 -13.215,0.343 -19.777,1.777 -6.653,1.459 -11.174,6.042 -8.829,8.994 2.309,2.915 9.394,3.625 12.955,6.069 3.057,2.103 3.061,5.477 -0.009,8.339 -1.015,0.947 -2.291,1.813 -3.052,2.783 -2.735,3.468 2.136,6.222 6.276,8.394 4.355,2.276 8.424,5.041 8.199,8.665 -0.065,1.416 -0.813,2.896 -0.611,4.276 0.281,1.787 2.093,3.204 3.949,4.519 3.156,2.234 6.876,4.452 12.432,4.964 5.049,0.475 10.73,-0.652 15.55,-2.611 -5.296,3.605 -10.975,7.096 -17.047,10.451 -0.955,0.528 -1.925,1.042 -2.892,1.559 -4.329,-1.32 -8.609,-3.2 -11.915,-5.545 -2.191,-1.549 -4.38,-3.393 -7.534,-3.272 -2.63,0.087 -5.347,1.495 -7.883,2.871 -1.991,1.068 -4.172,2.304 -5.217,4.136 -1.564,2.688 0.028,5.158 1.014,7.45 1.043,2.359 1.284,5.307 0.881,8.299 -4.356,1.67 -8.793,3.247 -13.295,4.742 0.424,-0.358 0.828,-0.721 1.204,-1.091 3.107,-3.022 4.354,-6.495 2.4,-9.177 -2.886,-3.977 -11.663,-5.307 -19.623,-6.434 -7.961,-1.126 -16.612,-2.719 -18.833,-6.875 -1.673,-3.152 0.834,-7.038 -0.108,-10.373 -1.18,-4.116 -6.981,-5.599 -11.416,-6.158 -6.129,-0.773 -13.012,0.959 -19.552,1.897 -4.974,0.714 -9.649,0.507 -14.248,-0.048 -5.878,-0.708 -14.861,-3.496 -18.573,-0.28 -2.341,2.031 4.836,2.716 7.598,3.935 4.859,2.146 6.092,6.091 4.207,9.898 -1.862,3.806 -6.51,7.435 -12.067,10.513 -2.814,1.55 -5.907,3.002 -8.023,4.802 -5.422,4.561 -1.506,10.357 7.287,10.862 5.645,0.311 11.967,-1.207 17.763,-1.179 8.491,0.033 14.131,3.287 19.618,6.08 4.508,2.301 9.755,4.453 15.849,5.567 -3.425,0.644 -6.869,1.249 -10.332,1.807 -5.389,-1.785 -11.011,-3.424 -16.029,-5.455 -2.031,-0.833 -4.005,-1.729 -6.529,-2.198 -7.368,-1.36 -18.118,1.222 -24.194,-1.161 -1.648,-0.622 -3.14,-1.647 -5.479,-1.323 -1.69,0.225 -3.076,1.097 -3.775,1.985 -0.695,0.868 -0.878,1.762 -1.38,2.637 -0.956,1.728 -3.062,3.392 -5.825,4.626 -2.522,1.12 -6.018,2.263 -6.067,3.796 -0.001,0.569 0.538,1.045 1.23,1.414 0.891,0.474 2.02,0.796 3.256,1.047 -5.262,0.042 -10.525,-0.004 -15.781,-0.15 -1.524,-2.796 6.914,-6.434 9.287,-8.036 5.11,-3.45 7.507,-8.695 8.612,-13.527 0.381,-1.574 0.715,-3.223 -0.507,-4.481 -2.081,-2.124 -7.665,-2.322 -12.506,-2.566 -13.813,-0.718 -26.339,-3.479 -35.893,-7.918 -2.692,-1.243 -5.156,-2.638 -6.649,-4.407 -2.562,-3.037 -2.154,-7.085 -6.508,-9.361 -5.935,-3.098 -17.272,-1.441 -26.785,0.356 -2.078,0.405 -4.264,0.818 -5.93,1.688 -3.661,1.86 -2.973,4.701 -1.009,6.578 1.58,1.489 3.751,2.746 6.376,3.718 2.843,1.057 6.257,1.783 8.849,2.993 4.883,2.321 6.264,6.472 3.49,10.394 -0.85,1.172 -2.121,2.391 -4.023,3.256 -1.924,0.867 -4.317,1.332 -6.359,2.147 -4.245,1.681 -6.099,4.505 -6.804,7.022 -0.284,1.011 -0.412,2.034 -0.357,3.03 -2.336,-0.506 -4.663,-1.03 -6.976,-1.578 0.057,-0.456 0.125,-0.915 0.219,-1.376 0.17,-0.933 0.381,-2.045 -0.38,-2.487 -0.4,-0.23 -0.987,-0.213 -1.534,-0.178 -3.731,0.25 -7.496,0.546 -11.225,0.728 -19.55,-5.407 -38.055,-12.361 -54.921,-20.861 1.195,-2.507 2.063,-5.132 1.59,-6.285 -0.347,-0.841 -1.367,-1.189 -2.336,-1.481 -7.164,-2.059 -14.756,-3.385 -21.69,-5.793 -0.777,-0.271 -1.546,-0.56 -2.306,-0.862 -5.04,-3.407 -9.725,-6.92 -14.07,-10.522 -0.094,-0.152 -0.195,-0.3 -0.285,-0.456 -3.964,-6.813 -4.151,-16.748 -12.168,-19.794 -2.467,-0.93 -5.403,-1.047 -8.418,-0.999 -1.937,-2.486 -3.723,-4.999 -5.376,-7.533 3.842,-0.379 7.782,-1.579 11.67,-1.889 5.117,-0.402 9.547,0.79 12.699,2.475 15.182,8.126 5.232,25.412 20.927,33.27 3.215,1.602 7.325,2.677 11.719,3.46 5.595,1.001 12.78,1.371 18.47,-0.969 3.978,-1.644 6.172,-4.255 6.652,-6.639 0.503,-2.387 -0.462,-4.582 -1.409,-6.759 -1.333,-3.036 -2.666,-6.071 -4,-9.107 -1.294,-3.018 -1.998,-6.917 3.287,-9.369 5.113,-2.363 13.765,-2.184 16.592,-5.305 1.353,-1.478 0.469,-2.992 -0.741,-4.211 -6.802,-6.85 -22.053,-9.674 -33.019,-14.633 -3.83,-1.74 -7.262,-3.898 -7.906,-6.741 -0.383,-1.722 0.264,-3.607 -0.027,-5.355 -0.268,-1.749 -1.88,-3.472 -5.145,-3.717 -4.775,-0.346 -9.463,2.422 -13.767,4.361 -8.276,3.74 -18.849,5.172 -27.78,8.384 -5.084,1.826 -11.817,5.057 -15.558,9.361 -1.082,-2.426 -2.034,-4.865 -2.868,-7.315 2.572,-1.205 5.305,-2.308 8.161,-3.282 4.445,-1.517 9.916,-3.274 10.642,-5.792 0.746,-2.598 -4.169,-3.838 -7.551,-5.273 -6.72,-2.872 -8.217,-8.585 -3.614,-13.623 2.037,-2.209 5.127,-4.307 6.079,-6.584 0.979,-2.299 -0.455,-4.425 -2.882,-5.979 -1.983,-1.27 -4.434,-1.699 -6.486,-2.813 -1.788,-0.971 -3.643,-1.839 -5.603,-2.579 0.468,-1.649 0.978,-3.294 1.557,-4.933 2.267,1.327 4.904,2.499 7.583,3.605 5.366,2.192 11.087,4.245 14.984,7.197 3.294,2.48 4.985,6.121 1.072,9.271 -1.802,1.468 -4.538,2.582 -6.541,3.984 -6.229,4.317 -3.117,10.046 4.412,11.926 7.556,1.858 17.764,0.703 26.912,-1.384 7.058,-1.623 13.876,-3.799 20.124,-6.41 5.893,-2.471 11.647,-5.463 18.442,-6.598 8.439,-1.435 16.144,0.335 24.476,0.025 2.219,-0.081 4.794,-0.401 6.342,-1.42 1.017,-0.673 1.353,-1.479 1.652,-2.224 1.24,-3.158 2.476,-6.297 3.712,-9.435 0.738,-1.813 1.437,-3.741 0.187,-5.251 -1.181,-1.436 -3.961,-2.203 -6.522,-2.983 -14.519,-4.421 -25.706,-11.249 -32.044,-19.56 -1.509,-1.985 -2.85,-4.137 -6.116,-5.324 -3.266,-1.187 -9.206,-0.871 -12.024,1.269 -2.16,1.651 -1.854,3.879 -3.371,5.735 -1.986,2.43 -4.297,2.36 -6.649,2.021 -6.289,-0.905 -12.274,-2.416 -18.356,-3.72 -6.619,-1.419 -13.54,-3.071 -21.023,-2.039 -2.374,0.328 -4.804,0.727 -7.167,1.234 3.664,-5.58 8.006,-11.056 13.052,-16.381 10.006,3.691 23.054,5.395 36.821,4.782 3.27,-0.147 6.632,-0.418 9.612,-0.057 2.5,0.293 4.663,1.02 7.354,0.949 4.441,-0.084 8.577,-2.229 12.015,-4.153 3.966,-2.251 7.954,-4.504 11.942,-6.757 7.528,-4.242 16.954,-8.956 26.471,-8.693 5.252,0.139 9.24,1.849 12.284,3.815 1.088,0.717 2.144,1.474 3.781,1.861 1.615,0.389 4.018,0.257 5.548,-0.585 2.444,-1.351 0.912,-3.138 -0.007,-4.591 -1.419,-2.284 -0.605,-5.18 2.164,-7.67 0.838,-0.74 1.868,-1.472 2.352,-2.268 0.932,-1.53 -0.314,-2.962 -2.249,-3.841 -1.956,-0.877 -4.507,-1.324 -6.798,-1.965 -8.317,-2.3 -13.341,-7.026 -13.161,-12.433 l -0.003,-1.589 c -1.155,-3.439 -3.602,-6.698 -8.285,-8.855 -1.82,-0.843 -4.029,-1.487 -6.461,-1.881 5.656,-1.819 11.417,-3.499 17.266,-5.044 0.8,0.331 1.629,0.618 2.523,0.806 4.288,0.868 9.37,-0.513 14.18,-1.267 13.594,-2.094 26.165,1.037 39.806,-1.55 3.633,-0.7 7.886,-2.224 9.725,-5.361 0.827,-1.39 0.965,-2.82 0.637,-4.097 3.487,-0.304 6.982,-0.568 10.485,-0.788 0.149,0.296 0.288,0.595 0.402,0.901 1.456,3.91 -0.859,8.942 -7.716,12.043 -4.116,1.868 -9.264,2.781 -14.155,3.325 -5.798,0.641 -11.566,0.867 -17.102,0.648 -5.86,-0.219 -11.852,-0.901 -17.884,0.48 -7.15,1.648 -12.162,5.928 -12.857,9.719 -0.695,3.791 2.167,7.123 6.094,9.759 2.483,1.688 5.462,3.187 9.171,4.13 8.232,2.11 19.987,1.172 29.156,-2.329 7.819,-2.966 13.454,-7.422 21.232,-10.404 13.613,-5.195 30.17,-4.69 45.175,-8.049 1.864,-0.412 3.916,-0.993 4.909,-1.938 1.517,-1.45 -0.285,-2.906 -2.665,-3.442 -2.374,-0.557 -5.305,-0.569 -7.578,-1.19 -4.076,-1.136 -5.135,-4.051 -3.754,-6.788 1.35,-2.664 4.62,-5.184 8.03,-7.542 2.94,0.086 5.876,0.202 8.81,0.346 -0.613,0.552 -1.184,1.115 -1.751,1.673 -1.404,1.423 -2.803,2.826 -4.202,4.229 -0.64,0.629 -1.285,1.278 -1.413,1.933 -0.139,0.794 0.502,1.479 1.254,2.06 1.955,1.544 4.647,2.787 7.842,3.625 4.971,1.276 10.988,1.563 16.883,1.819 5.917,0.255 11.916,0.524 16.909,1.798 4.971,1.276 8.83,3.74 8.596,6.933 -0.138,1.736 -1.433,3.622 -0.488,5.152 0.931,1.491 3.864,2.248 7.013,2.344 3.127,0.097 6.469,-0.369 9.745,-0.831 4.771,-0.674 9.921,-1.313 13.806,-0.38 3.692,0.924 5.475,3.127 9.194,4.03 4.448,1.113 11.358,-0.147 14.968,-2.73 0.52,-0.385 1.001,-0.789 1.183,-1.212 0.229,-0.525 -0.026,-1.019 -0.148,-1.521 -0.625,-2.452 1.896,-5.456 6.204,-7.317 0,0 1.127,-0.515 2.76,-1.354 12.065,4.224 23.6,9.093 34.453,14.605 1.321,4.147 2.696,8.258 5.467,11.485 7.719,8.977 24.141,8.852 34.779,14.907 5.793,4.974 10.938,10.112 15.424,15.38 -6.644,-0.313 -14.353,0.976 -19.891,3.824 -2.176,1.118 -3.959,2.408 -5.978,3.595 -6.781,3.998 -16.407,6.666 -25.475,7.081 -9.046,0.414 -17.355,-1.456 -21.93,-4.934 -2.833,-2.137 -3.02,-5.186 -5.664,-7.393 -2.766,-2.337 -7.821,-1.077 -12.365,-0.731 -1.029,0.065 -2.137,0.194 -3.002,0.582 -1.784,0.819 -1.337,2.164 -0.439,3.049 6.852,6.729 26.326,8.346 28.643,16.322 0.781,2.717 -0.643,5.829 0.962,8.337 1.907,2.98 7.611,4.445 12.593,6.053 4.964,1.59 9.864,3.93 9.186,7.367 -0.785,4.091 -8.975,7.649 -11.703,11.745 -2.984,4.466 1.07,8.526 6.246,11.359 6.421,3.518 14.933,6.101 25.003,6.584 6.315,0.308 13.372,-0.275 19.593,-2.295 9.806,-3.169 15.728,-9.919 12.977,-14.769 -2.812,-4.963 -12.897,-7.27 -16.657,-11.957 -2.457,-3.024 -1.945,-6.96 1.351,-10.523 3.604,-3.877 10.067,-7.051 15.723,-10.371 1.55,-0.911 3.072,-1.872 4.473,-2.865 1.003,1.932 1.932,3.874 2.776,5.824 -0.779,0.431 -1.563,0.845 -2.343,1.244 -3.397,1.745 -7.17,3.435 -9.242,5.606 -2.093,2.173 -2.153,4.511 -1.354,6.58 1.523,3.808 5.77,6.836 9.215,10.072 M -90.121,-141.434 c 3.945,0.692 7.864,1.438 11.753,2.244 -0.533,-0.027 -1.069,-0.049 -1.593,-0.092 -3.789,-0.301 -7.292,-1.034 -10.16,-2.152 m -226.803,31.56 c -0.23,2.232 -1.06,4.54 -2.441,6.805 -0.861,1.408 -2.096,2.938 -4.454,3.911 -3.499,1.437 -7.905,1.087 -11.179,0.313 -4.04,-0.931 -7.467,-2.335 -11.075,-3.59 2.278,-1.419 4.619,-2.819 7.025,-4.197 2.648,0.474 5.237,0.842 7.104,1.316 0.589,0.159 1.223,0.315 1.91,0.232 1.2,-0.154 2.42,-1.055 3.19,-2.065 0.748,-1.008 1.157,-2.133 1.516,-3.235 0.454,-1.379 0.875,-2.761 1.273,-4.143 2.69,-1.302 5.419,-2.567 8.187,-3.793 -0.241,0.513 -0.444,1.024 -0.574,1.529 -0.603,2.353 -0.234,4.606 -0.482,6.917 M 49.498,28.407 c 7.954,-1.836 16.809,-3.867 21.885,-7.617 -1.785,3.776 -3.869,7.517 -6.257,11.213 -0.745,0.194 -1.489,0.369 -2.222,0.503 -4.276,0.779 -8.445,0.807 -12.718,1.665 -3.708,0.744 -8.038,2.607 -9.691,5.869 -1.073,2.148 -0.664,4.32 0.288,6.006 0.946,1.706 2.382,3.067 3.436,4.688 0.791,1.206 1.345,2.566 1.679,4.018 -3.226,3.033 -6.686,6.012 -10.38,8.927 2.879,-4.575 1.571,-9.249 -1.741,-13.032 -3.486,-3.998 -9.158,-8.055 -5.65,-12.926 3.239,-4.541 12.857,-7.364 21.371,-9.314"
         style="fill:#d9cbae;fill-opacity:1;fill-rule:nonzero;stroke:none"
         transform="matrix(1.3333333,0,0,-1.3333333,551.95453,433.10093)"
         clip-path="url(#clipPath9)"
         id="path10" />
    </g>
  </g>
</svg>
