<?xml version="1.0" encoding="UTF-8" standalone="no"?>
<!-- Uploaded to: SVG Repo, www.svgrepo.com, Transformed by: SVG Repo Mixer Tools -->

<svg
   width="800"
   height="800"
   viewBox="0 0 91 91"
   id="Layer_1"
   version="1.1"
   xml:space="preserve"
   fill="#000000"
   sodipodi:docname="arrow_down.svg"
   inkscape:version="1.3.2 (091e20ef0f, 2023-11-25)"
   inkscape:export-filename="arrow_top.svg"
   inkscape:export-xdpi="96"
   inkscape:export-ydpi="96"
   xmlns:inkscape="http://www.inkscape.org/namespaces/inkscape"
   xmlns:sodipodi="http://sodipodi.sourceforge.net/DTD/sodipodi-0.dtd"
   xmlns="http://www.w3.org/2000/svg"
   xmlns:svg="http://www.w3.org/2000/svg"><defs
   id="defs2"><style
     type="text/css"
     id="style2"> .st0{fill:#565a75;} </style><style
     type="text/css"
     id="style1"> .st0{fill:#565a75;} </style></defs><sodipodi:namedview
   id="namedview2"
   pagecolor="#ffffff"
   bordercolor="#000000"
   borderopacity="0.25"
   inkscape:showpageshadow="2"
   inkscape:pageopacity="0.0"
   inkscape:pagecheckerboard="0"
   inkscape:deskcolor="#d1d1d1"
   inkscape:zoom="1"
   inkscape:cx="399.5"
   inkscape:cy="400"
   inkscape:window-width="1920"
   inkscape:window-height="1044"
   inkscape:window-x="0"
   inkscape:window-y="0"
   inkscape:window-maximized="1"
   inkscape:current-layer="g2" />







<g
   id="g2"
   transform="matrix(0,0.49150672,0.49150672,0,23.081505,23.736684)"
   style="fill:#800000"> <path
   class="st0"
   d="m 41.2,48.2 c 7.4,6.6 14.2,13.7 20.9,21 5.5,6 10.9,14.3 18.6,17.4 1.2,0.5 2.8,-0.8 2.7,-2 C 82.7,76.3 75.8,68.9 70.7,62.7 65.8,56.6 60.4,50.9 54.8,45.3 66.8,37.7 76.6,27.6 84.2,15.4 89.2,7.4 76.4,-0.1 71.7,8 64.4,20.6 55.1,31.8 42.4,39.1 c -3.1,1.8 -4,6.6 -1.2,9.1 z"
   id="path1"
   style="fill:#565a75;fill-opacity:1" /> <path
   class="st0"
   d="m 25.8,69.2 c 5.5,6 10.9,14.3 18.6,17.4 1.2,0.5 2.8,-0.8 2.7,-2 C 46.4,76.3 39.5,68.9 34.4,62.7 29.5,56.6 24.1,50.9 18.5,45.3 30.5,37.7 40.3,27.6 47.9,15.4 52.9,7.4 40.1,-0.1 35.4,8 28.1,20.6 18.9,31.8 6.1,39.1 c -3.1,1.8 -4,6.6 -1.2,9.1 7.4,6.6 14.3,13.7 20.9,21 z"
   id="path2"
   style="fill:#565a75;fill-opacity:1" /> </g></svg>
