<?xml version="1.0" encoding="UTF-8" standalone="no"?>
<svg
   version="1.0"
   width="899.1637"
   height="1280"
   id="svg24"
   sodipodi:docname="grandpa_disgust0.svg"
   xml:space="preserve"
   inkscape:version="1.3.2 (091e20ef0f, 2023-11-25)"
   xmlns:inkscape="http://www.inkscape.org/namespaces/inkscape"
   xmlns:sodipodi="http://sodipodi.sourceforge.net/DTD/sodipodi-0.dtd"
   xmlns="http://www.w3.org/2000/svg"
   xmlns:svg="http://www.w3.org/2000/svg"><sodipodi:namedview
     id="namedview24"
     pagecolor="#d9cbae"
     bordercolor="#1a1417"
     borderopacity="0.25"
     inkscape:showpageshadow="2"
     inkscape:pageopacity="0.0"
     inkscape:pagecheckerboard="0"
     inkscape:deskcolor="#67413a"
     inkscape:document-units="mm"
     inkscape:zoom="0.30864198"
     inkscape:cx="568.62"
     inkscape:cy="793.8"
     inkscape:window-width="1920"
     inkscape:window-height="1044"
     inkscape:window-x="0"
     inkscape:window-y="0"
     inkscape:window-maximized="1"
     inkscape:current-layer="svg24" /><defs
     id="defs1" /><g
     id="g4"
     transform="matrix(5.2580977,0,0,5.2580977,8.9588623e-5,5.9761661e-5)"><path
       d="m 11.587503,239.58944 c 28.20905,4.28475 56.92982,4.50024 85.37327,2.94431 11.256837,-0.84275 22.548177,-0.99454 33.795957,0.0829 6.64636,0.49424 35.78721,2.72169 38.16814,-3.23105 -1.49851,-31.69837 -4.53349,-63.66665 -13.84392,-94.15262 -3.82898,-10.8248 -7.11757,-19.80924 -14.59072,-28.76697 -2.35526,-2.44574 -7.4346,-7.57521 -10.34493,-9.24817 -2.52153,-1.44905 -3.57542,-0.9321 -5.02325,-3.37979 -1.43875,-2.70392 -2.49995,-7.219686 -4.54283,-9.127656 -2.08002,-1.94265 -5.16257,-1.24761 -8.98327,-0.6219 0.70193,-9.48557 -3.67658,-11.90138 -9.70857,-13.70519 -10.602787,-4.04659 -21.074137,-2.0137 -23.742727,10.89345 -4.94808,0 -7.7275,2.12933 -10.73227,4.17532 -1.2283,0.83636 -0.37384,2.96722 -1.84099,3.62458 -2.71448,0.966456 -7.51135,0.72973 -10.12498,1.919166 -11.8851,5.40878 -22.47075,13.25229 -29.42262,24.70727 -15.58524,24.45657 -26.29110986,75.97461 -24.4385099,104.96122 -0.81167996,1.27286 0.31074,3.09804 0.59604,4.46677 0.36013,1.19059 1.52633,1.98259 2.74342,1.84721 1.69842,1.82648 4.32539,2.23306 6.6627599,2.61114 z"
       id="path62"
       fill="#d9cbae"
       style="fill:#af4b3b;fill-opacity:1;fill-rule:evenodd;stroke:none;stroke-width:0.215922" /><path
       style="fill:#67413a;fill-opacity:1;stroke:none;stroke-width:2.13543;stroke-dasharray:none;stroke-opacity:1"
       d="m 78.144653,91.276754 -0.10878,6.75593 1.20165,3.696176 4.20652,6.08321 4.99932,6.69248 6.4968,6.64879 1.65204,1.88459 4.327837,6.32209 6.53627,-13.9373 6.94715,-15.20669 -2.1909,-3.674596 -2.30715,-5.81625 z"
       id="path142" /><path
       d="m 128.34911,106.50082 c -0.17317,-0.0965 -0.0207,-0.34396 0.1533,-0.26213 8.36588,3.92459 14.78372,10.81012 19.29951,18.76575 4.67601,8.2377 7.3411,17.59059 9.63876,26.732 l 0.0829,0.33032 c 2.45006,9.77909 4.53327,19.65923 6.40877,29.56355 1.89946,10.02978 3.42408,20.12174 4.65052,30.25537 0.60674,5.01046 1.14762,10.02978 1.56953,15.05924 0.21074,2.51333 0.40227,5.0286 0.57435,7.54495 0.0687,1.00636 0.1335,2.01273 0.18904,3.01998 l 0.0398,0.75562 c 0.0343,0.68534 0.11574,1.3724 -0.0536,2.04845 -0.14618,0.58277 -0.45473,1.11049 -0.72614,1.64554 -0.53678,1.05758 -2.00829,0.88333 -2.58674,0 l -0.16798,-0.25731 c -0.38359,-0.59286 -0.70232,-1.14383 -0.82267,-1.88161 -0.11638,-0.71449 -0.1207,-1.46309 -0.17295,-2.1847 -0.0961,-1.3277 -0.17792,-2.65669 -0.2712,-3.98483 -0.19584,-2.79575 -0.41587,-5.58978 -0.65943,-8.38164 -0.48172,-5.51162 -0.99842,-11.01827 -1.63301,-16.51477 -1.12754,-9.76829 -2.54248,-19.51067 -4.21047,-29.20124 -1.62972,-9.46648 -3.69001,-18.83691 -5.83935,-28.19557 l -0.22265,-0.96809 c -3.7633,-16.33966 -9.56339,-35.15679 -25.24037,-43.88888 z m -89.108127,63.98241 c 0.0615,-0.16345 0.32626,-0.20102 0.37095,0 0.56356,2.5373 0.61926,5.15059 0.70542,7.74835 0.0849,2.56256 0.0814,5.13677 0.0441,7.70084 -0.13776,9.42347 -0.39644,18.83895 -0.62013,28.2609 -0.11185,4.71292 -0.21678,9.42649 -0.29732,14.14006 -0.0305,1.76791 -0.056,3.5357 -0.0773,5.30365 l -0.026,2.33171 c -0.0129,1.0309 -0.04,2.04921 -0.16571,3.0791 -0.0829,0.67735 -0.25954,1.32339 -0.63352,1.904 -0.2654,0.41213 -0.64366,0.62133 -1.01235,0.90139 l -0.069,0.0534 c -0.47027,0.37161 -0.9656,0.3742 -1.43134,0 l -0.13524,-0.10701 c -0.4449,-0.34791 -0.8294,-0.61974 -1.11344,-1.16995 -0.39513,-0.76501 -0.4584,-1.59609 -0.52555,-2.43905 -0.10191,-1.27825 -0.0343,-2.57529 -0.0212,-3.85722 0.0263,-2.57163 0.062,-5.14282 0.1071,-7.71423 0.16561,-9.42951 0.49295,-18.86075 1.08954,-28.27342 0.28105,-4.43366 0.66214,-8.88167 1.17332,-13.29739 l 0.0974,-0.82756 c 0.15503,-1.2992 0.29646,-2.6215 0.45581,-3.94813 -2.37881,-1.67317 -4.46979,-3.70327 -6.25287,-6.00629 -0.13128,-0.1695 0.0849,-0.40722 0.24334,-0.24312 1.82195,1.8865 3.91099,3.3904 6.22373,4.573 0.37894,-2.77697 0.89996,-5.53904 1.87031,-8.11304 z m 39.74091,-84.055256 c 0.0326,-0.0253 0.0836,-0.0363 0.11465,0 0.51131,0.5961 0.40762,1.50751 0.4241,2.2629 l 0.002,0.0703 c 0.0367,1.10444 0.0436,2.20542 0.04,3.31051 l -0.0114,3.51758 v 0 c -0.002,0.48366 -0.0408,0.98712 -0.016,1.47366 l 0.0129,0.18829 v 0 c 0.26861,0.27508 0.39341,0.67259 0.30229,1.07183 -0.0164,0.51217 -0.28415,0.93948 -0.67475,1.20808 l 0.83715,1.187676 v 0 l 0.83797,1.18703 c 1.72715,2.44963 3.47331,4.87745 5.2931,7.25972 1.85563,2.4289 3.8352,4.76625 5.90675,7.01356 1.01202,1.09818 2.04132,2.18103 3.09459,3.23969 0.42801,0.43028 0.86671,0.84987 1.30052,1.27416 l 0.4316,0.42644 c 0.255,0.255 0.57586,0.5072 0.74515,0.83043 0.0995,0.19066 0.12221,0.66051 0.15784,0.73824 0.31956,0.70239 -0.22564,1.82238 -1.13165,1.47194 l 0.0411,-0.0274 c 0.16496,-0.11472 0.0593,-0.11639 -0.31727,-0.005 -0.23752,-8.7e-4 -0.46022,-0.0555 -0.66827,-0.16371 l -0.062,-0.0341 c -0.29299,-0.14888 -0.55452,-0.43705 -0.79257,-0.66748 l -0.059,-0.0563 c -0.54433,-0.51 -1.06319,-1.05089 -1.58486,-1.584 -1.08889,-1.11221 -2.15317,-2.24817 -3.18355,-3.41458 -2.05557,-2.32721 -4.00426,-4.74877 -5.84975,-7.24547 -1.87981,-2.54291 -3.62705,-5.21645 -5.12965,-7.99968 -0.57025,-1.05629 -1.09299,-2.13287 -1.59415,-3.221976 -0.97553,-0.31309 -1.20203,-1.35059 -1.13402,-2.51937 -0.35994,-0.83821 -0.68425,-1.69369 -0.87599,-2.56774 -0.0261,-0.11984 0.12783,-0.23277 0.22002,-0.12804 0.31201,0.35454 0.60091,0.73197 0.87859,1.11912 0.16755,-0.81943 0.37959,-1.57364 0.47935,-2.0545 l 0.43249,-2.12207 v 0 c -2.43711,-0.12697 -5.10763,0.87426 -6.78772,2.62711 -0.0902,0.45646 -0.44156,0.78315 -0.78401,1.20981 -0.39125,0.48777 -0.73262,1.03513 -0.98719,1.60754 -0.56464,1.26875 -0.24594,3.138416 -1.34174,4.069256 -0.11422,0.0969 -0.24183,0.16431 -0.37354,0.20599 0.51997,2.54954 0.284,5.35887 0.27267,7.94543 l -4.3e-4,0.22763 c 0.003,2.89486 -0.0941,5.7921 -0.20599,8.68458 l -0.11379,2.86269 c -0.14745,3.81789 -0.24322,7.63763 0.12782,11.43456 1.69391,-1.50022 3.44546,-2.932 5.25726,-4.29597 1.19131,-0.89709 2.40651,-1.76226 3.64377,-2.59493 l 1.00532,-0.67174 c 1.20467,-0.80782 2.4386,-1.63904 3.7576,-2.21753 1.72522,-0.75637 3.36579,-0.4964 5.03141,0.27941 1.65871,0.77278 3.26797,1.67037 4.89494,2.50793 1.65483,0.85159 3.3131,1.69606 4.9703,2.54269 1.09775,0.56096 2.70636,1.0673 3.51153,2.09984 0.0514,-0.22845 0.1112,-0.45625 0.18116,-0.68318 -0.0799,-0.34612 -0.049,-0.7201 0.1451,-1.07658 2.705497,-4.97117 5.208677,-10.06109 7.694367,-15.14475 1.25817,-2.5727 2.45438,-5.17585 3.71493,-7.74705 l 1.22541,-2.50421 c 0.20476,-0.41716 0.41012,-0.83401 0.61662,-1.25023 0.3092,-0.62315 0.63114,-1.24026 0.94379,-1.861886 0.13214,-0.26263 0.29776,-0.5235 0.42642,-0.78862 l 0.0609,-0.13294 c 0.003,-0.007 0.29985,-0.94058 0.0705,-0.85159 l -0.0198,0.01 c -0.11703,0.0663 -0.21074,-0.081 -0.13495,-0.1749 0.32431,-0.40097 0.77602,-0.0458 0.96107,0.32539 0.50988,1.02147 -0.42436,2.624916 -0.78373,3.603026 l -0.0197,0.0547 c -1.11523,3.15655 -2.37794,6.25395 -3.67174,9.34055 -2.48073,5.91776 -5.14563,11.74462 -7.80471,17.58163 l -0.0315,0.1004 v 0 c 0.56701,-0.43465 1.17245,-0.82913 1.69088,-1.21304 1.30784,-0.96884 2.65389,-1.88996 3.99779,-2.80806 2.46454,-1.68379 4.99589,-3.25655 7.56912,-4.76723 l 0.5152,-0.30132 c 1.28538,-0.74881 2.55867,-1.35598 4.08437,-1.13121 1.41745,0.20893 2.73522,0.9703 4.01574,1.58879 l 0.13233,0.0634 3.95677,1.88111 c -0.42299,-1.68678 -0.88096,-3.36535 -1.3588,-5.03766 -0.93192,-3.26193 -1.95733,-6.49644 -3.06932,-9.70201 -1.03859,-2.99505 -2.16132,-5.95733 -3.34885,-8.896176 l -0.35759,-0.88202 c -0.48418,-1.21002 -0.96563,-2.52948 -2.34952,-2.90201 -1.38297,-0.37247 -2.96935,0.17986 -4.23336,-0.60847 -0.11487,-0.0717 -0.10062,-0.26105 0.0387,-0.29603 l 0.77996,-0.19658 c 1.46443,-0.36429 3.18122,-0.73075 4.56605,-0.37648 1.50691,0.38607 2.75365,1.65073 3.48476,2.96547 0.81291,1.46255 1.38594,3.09931 2.00288,4.658876 l 0.0978,0.24557 c 0.708,1.76494 1.38902,3.54046 2.04067,5.32721 1.30287,3.57135 2.48893,7.18566 3.56249,10.83258 0.51735,1.7576 1.00814,3.52362 1.47993,5.29396 0.1356,0.50915 0.35929,1.12647 0.54283,1.77034 0.2103,0.20513 0.40938,0.43401 0.59616,0.69505 0.30984,0.43314 0.0874,0.94099 -0.29776,1.20031 -0.0149,0.44307 -0.11336,0.8598 -0.34871,1.21694 -0.91875,1.39464 -3.34765,1.03534 -3.24898,-0.83951 0.0149,-0.28696 0.12675,-0.56096 0.29603,-0.79243 l -0.005,-0.0376 v 0 l -0.0192,-0.0687 v 0 c -0.4217,-0.20211 -0.84512,-0.42731 -1.29143,-0.64777 l -4.15261,-2.0519 v 0 c -1.20268,-0.59443 -2.53578,-1.51275 -3.8732,-1.73925 -1.24683,-0.21112 -2.56233,0.71782 -3.63374,1.2783 l -0.0695,0.036 c -2.58998,1.32749 -5.16074,2.69902 -7.72136,4.08179 -1.24997,0.67518 -2.48374,1.37844 -3.72896,2.06162 -1.04118,0.57132 -2.16483,1.3914 -3.33513,1.71377 -0.49986,0.38866 -1.09364,0.33662 -1.57083,0.0427 0.21808,1.35059 0.2047,2.73659 0.27163,4.11741 0.09,1.84598 0.10377,3.69709 0.13347,5.54558 l 0.0121,0.69304 c 0.0786,4.08653 0.1207,8.17415 0.13625,12.26154 0.0553,14.55485 -0.10559,29.11401 -0.14316,43.66885 -0.019,7.31283 -0.16388,14.63193 -0.35389,21.94196 -0.0806,3.09754 -0.24896,6.19137 -0.430847,9.28425 l -0.10011,1.68694 c -0.21182,3.55947 -0.33683,7.15823 -0.99583,10.66976 -0.0859,0.45797 -0.86109,0.46963 -0.9371,0 -0.60647,-3.7627 -0.6402,-7.60795 -0.7568,-11.41478 l -0.0246,-0.76082 c -0.14013,-4.0874 -0.20663,-8.1722 -0.19238,-12.26176 0.0518,-14.56067 0.43033,-29.11227 0.73996,-43.66885 0.15568,-7.31369 0.2604,-14.63063 0.50223,-21.94195 0.12092,-3.65836 0.25781,-7.31434 0.42019,-10.97119 0.0725,-1.63275 0.14229,-3.26384 0.25073,-4.89415 l 0.049,-0.69865 c 0.0337,-0.45581 0.0609,-0.90601 0.0939,-1.35211 -1.47323,0.53808 -2.82058,-0.45818 -4.14591,-1.13985 -1.52743,-0.78573 -3.05421,-1.57277 -4.58229,-2.357 l -1.52929,-0.78286 v 0 l -3.06055,-1.56161 c -1.37801,-0.70326 -2.4397,-1.40306 -3.90948,-0.57824 -5.29504,2.97065 -10.16084,6.92331 -14.57039,11.07095 -0.84555,0.79545 -2.6323,0.58169 -2.84649,-0.75141 -0.91493,-5.69505 -0.35848,-11.47253 0.10863,-17.18484 l 0.1722,-2.12077 c 0.20866,-2.53301 0.43592,-5.06604 0.73875,-7.58872 0.13542,-1.12849 0.2703,-2.2563 0.41954,-3.38263 l 0.11485,-0.84447 c 0.18656,-1.33504 0.30834,-2.6621 0.70606,-3.94251 -0.12545,-0.0406 -0.24615,-0.1071 -0.35411,-0.20944 -1.19577,-1.134456 -0.61926,-3.103006 -0.0736,-4.452516 0.53873,-1.33202 1.36031,-2.49455 2.38917,-3.49513 0.22435,-0.21851 0.54067,-0.35908 0.85851,-0.36642 2.49454,-1.65266 5.23113,-2.47748 8.07935,-1.57536 0.08,-0.38251 0.16158,-0.7644 0.24747,-1.14533 l 0.0874,-0.38059 c 0.22153,-0.94509 0.3038,-2.5062 1.11912,-3.13842 z M 104.54824,235.67703 c 0.77408,-0.2129 1.62157,0.0114 2.1888,0.57867 0.56701,0.56722 0.79157,1.4145 0.57823,2.18858 -0.10666,0.3811 -0.29948,0.71189 -0.57823,0.9928 -0.26065,0.25885 -0.56468,0.44359 -0.91191,0.55424 l -0.0809,0.0242 -0.12653,0.0527 c -0.38801,0.10429 -0.77624,0.10429 -1.16403,0 -0.37096,-0.10407 -0.6929,-0.29171 -0.96625,-0.5629 -0.27142,-0.27336 -0.45905,-0.5953 -0.56313,-0.96647 -0.10429,-0.38801 -0.10429,-0.77602 0,-1.16403 l 0.0529,-0.12653 v 0 c 0.10667,-0.3811 0.29949,-0.71211 0.57824,-0.99259 0.2807,-0.27876 0.61171,-0.47179 0.99281,-0.57867 z m 45.96308,-77.13554 c 0.12718,-0.14596 0.33338,0.041 0.25436,0.19627 -1.20571,2.3637 -2.54961,4.71055 -3.8704,7.01422 0.1058,0.63848 0.21074,1.27178 0.33144,1.8891 0.51454,2.63122 1.14482,5.21493 1.55572,7.8712 1.4769,9.54784 2.24364,19.19932 2.90155,28.83288 0.65986,9.6681 0.74428,19.34053 0.84339,29.02764 0.009,0.8395 -0.63718,1.81525 -1.5026,1.97352 -0.39621,0.0723 -0.69267,0.0583 -1.08803,0 -0.90061,-0.13258 -1.46394,-1.16425 -1.50259,-1.97352 -0.25825,-5.41402 -0.60566,-10.82113 -1.00814,-16.22673 -0.71341,-9.58346 -1.14935,-19.19198 -1.72565,-28.78537 l -0.20296,-3.35291 c -0.21781,-3.63309 -0.41705,-7.2687 -0.48194,-10.9072 -0.0432,-2.41055 0.0857,-4.82045 0.006,-7.22819 -0.0732,-2.22292 -0.29862,-4.63994 0.19152,-6.82399 0.0181,-0.0818 0.14747,-0.10256 0.18483,-0.0242 0.50957,1.07269 0.83238,2.23867 1.08112,3.42883 1.31323,-1.66087 2.65065,-3.32541 4.0319,-4.91157 z M 64.488893,99.822084 c 0.18439,-0.0132 0.17705,0.263796 0,0.284306 -2.57724,0.29893 -5.06692,1.3477 -7.50039,2.23911 l -0.20845,0.076 c -2.45848,0.89197 -4.85543,1.92926 -7.16212,3.16563 -4.50995,2.41746 -8.65133,5.5345 -12.31293,9.10282 -14.61897,14.24478 -21.28123,34.78627 -26.163,54.09009 -2.7124099,10.72504 -4.6412399,21.63146 -5.8914199,32.62144 -0.61819,5.43518 -1.05521,10.89108 -1.31,16.35541 -0.13042,2.80051 -0.21268,5.6036 -0.24701,8.40691 -0.0177,1.43588 -0.0229,2.87219 -0.0212,4.30807 8.6e-4,0.65813 0.11832,1.48662 -0.0577,2.12553 -0.16324,0.59184 -0.62359,1.11308 -0.96409,1.60624 -0.40356,0.58515 -1.12884,0.55427 -1.53801,0 l -0.15088996,-0.20173 c -0.43638,-0.57883 -0.86336,-1.13229 -0.9257,-1.88882 -0.0667,-0.811 -0.0197,-1.64705 -0.0227,-2.46172 -0.007,-1.64122 0.0134,-3.28266 0.0462,-4.92345 0.0633,-3.14511 0.18721,-6.28893 0.37139,-9.4293 0.37397,-6.37292 0.98956996,-12.73289 1.87095996,-19.05573 1.56673,-11.23872 3.91509,-22.37012 6.99111,-33.2923 2.9019799,-10.30356 6.3398899,-20.57668 11.2374199,-30.12085 4.54731,-8.86142 10.51279,-17.10509 18.38443,-23.29816 3.66052,-2.87996 7.64535,-5.28014 11.94155,-7.08762 2.16677,-0.91162 4.44215,-1.65591 6.75618,-2.08019 2.28834,-0.419536 4.56675,-0.36102 6.87624,-0.541686 z M 104.99187,217.46484 c 0.40874,-0.003 0.86455,0.0868 1.21521,0.31287 l 0.46855,0.3621 v 0 c 0.12696,0.16302 0.25327,0.32669 0.37916,0.49079 0.293,0.38175 0.33187,0.9995 0.27076,1.45445 -0.0138,0.3038 -0.10407,0.58622 -0.27076,0.84814 l -0.35671,0.46185 v 0 c -0.34288,0.27962 -0.62876,0.47913 -1.04398,0.61365 -0.21706,0.0702 -0.42608,0.0849 -0.63446,0.0742 l -0.0694,-0.004 0.0417,0.006 -0.073,-0.008 v 0 c -0.0678,-0.006 -0.13581,-0.0132 -0.20405,-0.0225 -0.0464,-0.006 -0.0931,-0.009 -0.13948,-0.0158 -0.0447,-0.004 -0.0879,-0.005 -0.13301,-0.001 -0.52771,0.0497 -1.05823,-0.24961 -1.43285,-0.59336 -0.33749,-0.30984 -0.64043,-0.96689 -0.59336,-1.43264 l 0.0201,-0.19464 c 0.0356,-0.32837 0.0647,-0.45756 0.20384,-0.78737 0.13516,-0.32086 0.32409,-0.60393 0.58126,-0.84317 0.4923,-0.45797 1.09494,-0.71557 1.77055,-0.72032 z m -1.63351,-24.02845 c 0.70045,-0.76328 1.90335,-0.81942 2.772,-0.35778 0.21161,0.11271 0.40593,0.29343 0.59249,0.44415 0.47006,0.38002 0.65468,1.06557 0.68059,1.64316 0.0257,0.57111 -0.27552,1.24932 -0.68059,1.6436 l -0.0982,0.0952 v 0 c -0.24205,0.23535 -0.58882,0.44005 -0.92739,0.50223 -0.54606,0.1004 -1.00468,0.0974 -1.51318,-0.11724 -0.43693,-0.18431 -0.8134,-0.48063 -1.06956,-0.88272 l -0.0416,-0.068 c -0.0175,-0.0282 -0.0342,-0.0569 -0.0497,-0.0862 l -0.0226,-0.0444 c -0.48669,-0.9358 -0.35584,-1.99512 0.35778,-2.772 z m 0.36279,-24.15504 c 0.31589,-0.0991 0.63157,-0.11315 0.94747,-0.0423 0.21441,4.3e-4 0.41435,0.0546 0.59961,0.16194 0.20124,0.0563 0.37614,0.15827 0.52426,0.30574 0.17835,0.10537 0.32064,0.24745 0.42623,0.42602 0.21009,0.22952 0.35173,0.49877 0.42536,0.80797 l 0.0846,0.63157 -0.0846,0.63179 -0.23967,0.56766 v 0 c -0.0659,0.0859 -0.13214,0.17187 -0.19908,0.25738 -0.1058,0.179 -0.24831,0.32172 -0.42731,0.42752 -0.11638,0.11574 -0.24982,0.20232 -0.39902,0.26235 -0.52901,0.37916 -1.23378,0.50288 -1.8606,0.33014 -0.37225,-0.10407 -0.69548,-0.29257 -0.96949,-0.56485 -0.27227,-0.27422 -0.46077,-0.59745 -0.56485,-0.96949 l -0.0429,-0.29714 c -0.0553,-0.39856 -0.0641,-0.61933 0.0488,-1.126 0.0495,-0.22283 0.19304,-0.53699 0.26818,-0.66935 0.32129,-0.56485 0.84619,-0.952 1.46308,-1.14093 z m 27.42909,-17.37783 c 0.90704,-0.006 1.81408,-0.005 2.72102,0.005 l 0.68017,0.009 c 1.13899,0.0179 2.11452,-0.0995 3.00995,0.69073 0.64992,0.57349 0.36361,1.53564 -0.25328,1.9677 -0.93472,0.65424 -2.10718,0.32517 -3.1816,0.25306 -1.13316,-0.076 -2.26718,-0.13906 -3.40163,-0.19002 -2.19657,-0.0982 -4.39401,-0.16086 -6.59273,-0.17057 -2.19398,-0.009 -4.3912,0.0114 -6.58497,0.0469 -2.23219,0.0363 -4.55637,0.24421 -6.77605,0.0132 -0.30488,-0.0317 -0.37354,-0.4327 -0.0726,-0.53699 2.09163,-0.72356 4.44453,-0.95805 6.63657,-1.23464 2.26091,-0.28567 4.52183,-0.48777 6.797,-0.61884 2.33691,-0.13408 4.67729,-0.21851 7.0181,-0.23492 z m -27.43324,-7.10684 0.0748,0.002 c 0.39923,0.001 0.77287,0.0949 1.12129,0.28177 l 0.0743,0.0415 0.47935,0.37009 c 0.29344,0.29581 0.49662,0.64409 0.6089,1.04528 l 0.0846,0.62962 v 0 c 0.0125,0.32605 -0.0557,0.63006 -0.20383,0.91249 -0.0957,0.29365 -0.25889,0.54758 -0.48971,0.7622 -0.21463,0.23082 -0.46877,0.39406 -0.7622,0.48971 -0.2607,0.13673 -0.5398,0.20538 -0.83781,0.20546 l -0.0749,-0.002 c -0.4273,-0.002 -0.8259,-0.10926 -1.19512,-0.32345 l -0.47956,-0.37031 v 0 c -0.29344,-0.2956 -0.49662,-0.64388 -0.6089,-1.04506 l -0.0849,-0.62963 v 0 c -0.0121,-0.32604 0.0557,-0.63049 0.20426,-0.91248 0.0954,-0.29366 0.25868,-0.5478 0.4895,-0.76242 0.21462,-0.23082 0.46855,-0.39406 0.76242,-0.4895 0.2605,-0.13692 0.53958,-0.20541 0.83742,-0.20529 z m 7.0215,-55.636606 c 0.51022,-0.7391 1.43501,-0.0818 1.30265,0.51238 0.035,1.66886 0.12027,3.28849 0.50008,4.92323 0.17381,0.74838 0.40161,1.49763 0.75291,2.18318 l 0.14755,0.28868 c 0.45475,0.89838 0.80775,1.74565 0.19534,2.7312 -0.28869,0.464666 -0.81036,0.813596 -1.37585,0.789196 -2.50793,-0.10818 -2.85255,-3.598976 -3.00499,-5.547676 -0.15719,-2.00699 0.33166,-4.21263 1.48231,-5.88019 z"
       id="path63"
       fill="#1a1417"
       style="fill-rule:evenodd;stroke:none;stroke-width:0.215922" /><path
       d="M 130.93678,29.514184 C 123.30665,9.4402236 109.55257,-5.2572264 86.365263,3.9741436 c -0.66518,-0.45285 -1.53314,-0.5743 -2.36489,-0.044 -12.631,7.9311704 -21.72682,20.6467504 -25.66865,34.9850504 -2.39894,0.4561 -4.72999,1.25163 -6.81206,2.55618 -4.52503,2.8353 -7.5694,7.34688 -10.42314,11.74091 -0.8582,1.32103 -0.0636,3.50807 1.54919,3.80802 0.70053,0.13056 1.39477,0.20821 2.08511,0.22859 -0.16808,0.61009 -0.3893,1.19958 -0.67103,1.74027 -1.02,1.95715 0.907,4.0351 2.71297,3.50005 0.2004,0.10605 0.41035,0.19324 0.62788,0.25874 0.0247,1.1087 0.59447,2.59282 1.72204,2.81686 1.82355,0.39126 4.24699,-1.00438 3.8167,-3.04394 0.55088,0.0969 1.09981,0.10909 1.63485,0.0419 0.0599,1.06207 0.0412,2.17034 0.18782,3.15 0.47931,4.61698 5.0924,7.7184 9.49164,6.31387 0.2698,1.43858 0.58666,3.45992 2.00355,4.24026 1.65655,4.64714 4.51701,9.95056 9.2021,12.06798 -0.41707,1.06858 -0.19086,2.36857 1.06532,3.08363 8.57574,4.88918 18.86897,6.54355 28.564467,4.72586 3.87482,-0.23076 7.65009,-1.10631 11.27375,-2.97172 2.6425,-1.36028 5.07179,-3.08775 7.44318,-4.86857 2.37269,-1.78147 4.90956,-3.51609 6.80338,-5.82914 2.05691,-2.51215 3.01444,-5.46782 3.63581,-8.61369 2.84745,-14.27932 1.86396,-28.30007 -3.30847,-41.90248 -6.40265,-16.83767 6.40035,14.39403 0,-2.44452 z"
       id="path64"
       fill="#d9cbae"
       style="fill:#67413a;fill-opacity:1;fill-rule:evenodd;stroke:none;stroke-width:0.216882" /><path
       style="fill:#af4b3b;fill-opacity:1;stroke:none;stroke-width:2.13543;stroke-dasharray:none;stroke-opacity:1"
       d="m 103.94341,83.778924 2.75675,1.24095 2.95383,0.25932 3.50967,0.1792 3.39368,-0.40691 2.75185,-0.97296 -1.00743,-2.15854 c 0,0 -0.38901,-1.33128 -1.76895,-0.91152 -1.37993,0.41976 -3.9382,-0.0684 -4.14823,-0.17379 -0.21003,-0.10537 -3.25531,0.4411 -3.45737,0.40908 -0.20206,-0.032 -0.97247,-0.1385 -1.99794,0.16367 -1.02546,0.30218 -1.32315,0.48478 -1.90721,0.87325 -0.58406,0.38847 -1.07865,1.49825 -1.07865,1.49825 z"
       id="path158" /><path
       style="fill:#d9cbae;fill-opacity:1;stroke:none;stroke-width:2.13543;stroke-dasharray:none;stroke-opacity:1"
       d="m 48.886803,43.481764 -3.70907,3.00277 -2.73377,4.72848 c 0,0 -1.22657,1.83456 -1.34746,2.04791 -0.1209,0.21334 0.0417,2.68763 0.0417,2.68763 l 0.98541,0.94651 1.70015,0.34334 1.13377,-0.59486 -0.47896,2.97877 -0.70133,0.59951 1.21368,2.05186 1.19084,0.34953 1.27538,-0.51652 0.10548,1.71859 1.03129,1.57141 1.97576,0.18824 1.79522,-1.01179 0.62453,-1.50467 1.58478,-0.45707 0.87664,-3.05544 2.6235,-4.32616 2.80949,-1.63988 2.8213,-1.53843 1.56549,-0.53177 1.40091,0.66253 1.52001,2.22445 1.2536,2.27662 1.00246,0.94828 2.0638,0.47306 1.57627,-0.22346 1.05434,-0.94688 -1.21702,-4.54804 -0.22788,-3.98534 -0.70042,-2.34088 -4.17283,-5.25975 -3.8489,-1.99612 -4.65645,-1.0189 -4.32762,1.10965 -4.75663,1.86992 -2.41395,2.77499 z"
       id="path151" /><path
       d="m 97.320433,77.572114 c 0.0203,-2.12981 1.86601,-2.49708 3.619247,-2.21312 2.96816,0.48016 5.94734,0.81806 8.95571,0.87894 l 0.51844,0.009 v 0 c 0.0835,-0.12178 0.22307,-0.21419 0.41251,-0.23448 1.66762,-0.18016 3.37119,-0.15097 5.0479,-0.20045 1.46272,-0.0429 2.96584,-0.18925 4.42837,-0.0745 l 0.11641,0.0102 c 1.7875,0.17307 3.67381,1.08538 3.45794,3.18312 -0.19851,1.9425 -2.05538,3.66212 -3.53821,4.74152 -0.29981,0.21631 -0.60639,0.41908 -0.92185,0.60388 -0.099,0.12622 -0.24337,0.21417 -0.41019,0.23215 -1.46021,0.78868 -3.07138,1.2553 -4.7392,1.41073 -3.53589,0.329 -7.64647,-0.0271 -11.0426,-1.55938 -1.10414,-0.49814 -2.13406,-1.12019 -3.04452,-1.88412 -1.403947,-1.17857 -2.875567,-2.96565 -2.859957,-4.9037 z m 13.931747,4.22308 c -1.41748,-0.0427 -2.83266,0.15561 -4.18268,0.59285 -0.9149,0.29518 -1.7488,0.86291 -2.62543,1.25744 2.95444,1.12676 6.38671,1.37245 9.4177,1.16735 1.32973,-0.0901 2.61885,-0.39665 3.82004,-0.92399 -0.18712,-0.13511 -0.37655,-0.27254 -0.57488,-0.3922 -0.59924,-0.36283 -1.22593,-0.67154 -1.87948,-0.91722 -1.27309,-0.47765 -2.61635,-0.74132 -3.97527,-0.78423 z"
       id="path65"
       fill="#1a1417"
       style="fill-rule:evenodd;stroke:none;stroke-width:0.193302"
       sodipodi:nodetypes="scccscccccccccccsscccccccc" /><path
       d="m 94.048963,0.06241364 c 3.90496,-0.27565 7.881057,0.38258 11.599727,1.56003996 5.93086,1.87733 11.37764,5.19042 15.85257,9.5035604 4.61199,4.445 8.0229,9.92539 10.09695,15.97836 2.50108,7.29982 2.87542,15.09413 3.57942,22.71429 0.35562,3.85002 0.94162,7.64133 1.55086,11.45406 l 0.0964,0.6022 c 0.59512,3.71476 0.92999,7.47181 0.10779,11.18071 -1.36679,6.16423 -5.46413,11.39673 -10.32771,15.26309 -9.99111,7.94266 -25.5446,12.784976 -37.177507,5.47627 -1.79969,-1.13082 -0.0944,-4.02251 1.66262,-2.84419 1.23644,0.82957 2.54641,1.55678 3.95116,2.05886 5.869257,2.09747 12.315217,1.35031 18.115947,-0.60076 5.71636,-1.92266 11.20153,-5.17134 15.41945,-9.50638 4.43047,-4.55344 6.88579,-10.17785 6.53098,-16.57761 -0.21146,-3.8078 -1.07899,-7.54512 -1.56047,-11.3219 -0.42651,-3.34505 -0.68222,-6.70823 -0.97698,-10.06681 l -0.10804,-1.20805 c -0.62494,-6.84278 -1.52251,-13.87326 -4.6359,-20.08457 -2.61885,-5.22556 -6.45355,-9.87443 -11.06446,-13.4647 -4.82736,-3.7587804 -10.59318,-6.3876104 -16.64289,-7.3681404 -7.114167,-1.15294 -13.924267,0.94366 -19.858817,4.84667 -5.26329,3.4614404 -9.78832,8.0871004 -13.258,13.3356504 -1.68258,2.5449 -3.11595,5.26265 -4.3537,8.0498 -1.16639,2.62601 -1.97059,5.37825 -2.9086,8.08494 0.77188,-0.023 1.55656,0.007 2.35338,0.0948 4.08693,0.45285 7.89473,2.57092 10.31883,5.91069 2.96239,4.08107 2.16166,9.09061 3.31873,13.73189 0.0896,0.36024 -0.0627,0.71289 -0.37131,0.91221 -1.75436,1.13386 -4.10232,1.1716 -5.80029,-0.10519 -1.47372,-1.10805 -2.16557,-3.11139 -1.56893,-4.86185 0.0779,-0.22816 0.41013,-0.18782 0.41945,0.0568 0.11213,2.97888 2.87586,5.27284 5.58493,3.8553 -1.16205,-4.00213 -0.55044,-8.47185 -2.92725,-12.08685 -4.20687,-6.39802 -12.91252,-6.6624 -19.02708,-3.05565 -3.21799,1.89787 -5.76511,4.75161 -7.66178,7.9436 l -0.54642,0.92663 c -0.72702,1.2381 -1.49696,2.63873 -1.64779,4.00216 -0.087,0.78685 0.20343,1.5262 1.1061,1.12974 0.73024,-0.32055 1.29565,-1.06858 1.72942,-1.71163 0.73977,-1.09678 2.43972,-0.14924 1.82868,1.0187 l -0.0208,0.0382 c -0.8893,1.57551 -1.43681,3.31168 -1.53736,5.12064 l -0.0255,0.50093 c -0.0168,0.36509 -0.0288,0.88397 0.0484,0.90291 0.0926,0.0228 0.7361,-0.72005 0.84324,-0.82286 0.51618,-0.49579 1.04776,-0.90092 1.76629,-1.03301 0.94455,-0.17312 1.89755,0.99555 1.07764,1.7617 l -0.0342,0.0308 c -0.73176,0.63611 -0.69923,1.90466 0.10909,2.49956 1.14081,0.8396 2.54531,-0.5308 2.71089,-1.65911 l 0.006,-0.0417 c 0.1464,-1.21909 1.8396,-1.26225 1.93156,0 0.19975,2.73923 -3.06151,5.03514 -5.54286,3.65317 -0.98118,-0.54611 -1.60493,-1.54616 -1.80034,-2.61799 -0.31318,0.16548 -0.65108,0.28021 -1.00828,0.31188 -1.16293,0.10302 -1.98968,-0.71463 -2.17772,-1.81205 -0.21905,-1.27852 -0.0891,-2.64749 0.24768,-3.97524 -0.63156,0.15225 -1.29587,0.0941 -1.96365,-0.29127 -2.02026,-1.16574 -1.4401,-3.75879 -0.67732,-5.50946 3.25648,-7.47246 10.00325,-14.25285 18.36189,-14.79115 0.0458,-1.31843 0.22448,-2.56485 0.51683,-3.88501 2.85894,-12.91295 12.12068,-24.8701004 24.17825,-30.4587204 3.222,-1.49345 6.63898,-2.49803996 10.19129,-2.74897996 z m -31.62003,51.58235036 0.11458,-0.0258 c 1.30267,-0.28066 4.7308,-0.61038 4.31762,1.58174 -0.0195,0.10302 -0.16939,0.0904 -0.19606,0 -0.4047,-1.37829 -3.1539,-0.27609 -3.95658,0.0557 -1.10654,0.45718 -2.1981,1.13169 -3.10164,1.91572 -1.97818,1.71684 -3.3042,4.13637 -3.5059,6.76412 -0.19996,2.6067 0.55631,5.42227 2.43668,7.30784 0.92175,0.92414 2.09833,1.55158 3.42001,1.59777 1.18743,0.0412 2.49935,-0.88314 3.59504,-0.3418 0.21601,0.1067 0.38713,0.39971 0.36761,0.64088 -0.0369,0.45654 -0.24117,0.81201 -0.54524,1.08767 1.83439,3.3428 3.33565,6.88102 5.67559,9.92084 1.1742,1.52512 2.50478,2.93745 4.01146,4.13941 0.71614,0.57149 1.49475,1.07335 2.29765,1.51427 0.94083,0.51727 1.75501,0.84086 2.42647,1.71706 0.57257,0.74716 -2.1e-4,2.19181 -0.94408,2.32064 -2.22283,0.30277 -4.38298,-1.49432 -6.0148,-2.84051 -1.6303,-1.3451 -3.03939,-3.00425 -4.20383,-4.76468 -2.23605,-3.38054 -3.76572,-7.36857 -4.37733,-11.40323 -0.71007,0.22512 -1.5095,0.29387 -2.11091,0.29517 -1.60016,0.004 -3.12809,-0.57191 -4.38558,-1.54463 -4.60354,-3.56055 -5.11516,-10.871 -1.86648,-15.48105 1.55461,-2.20591 3.91689,-3.83578 6.54572,-4.45714 z m 0.0289,8.4788 c 1.06749,-0.0937 2.13412,0.0748 3.13742,0.43875 l 0.4136,0.14993 c 0.8737,0.31946 1.8037,0.69508 2.43471,1.35003 0.96404,1.00112 0.004,2.73575 -1.36917,2.35208 -1.5184,-0.42422 -2.75246,-1.70296 -4.27042,-2.23931 -1.35681,-0.4793 -2.89364,-0.41142 -4.09777,0.41403 -0.15898,0.10909 -0.36805,-0.10605 -0.26416,-0.26438 0.92109,-1.40257 2.37529,-2.05734 4.01579,-2.20113 z"
       id="path66"
       fill="#1a1417"
       style="fill-rule:evenodd;stroke:none;stroke-width:0.216882" /><path
       d="m 113.88498,59.462814 c 2.08706,1.26861 5.26711,4.22674 3.02191,7.37177 -2.64281,2.77308 -6.44787,-0.40644 -8.32294,-1.84442 -1.73865,-1.11443 -3.69212,1.75182 -2.07901,3.05311 13.54928,10.03134 19.04786,-8.24874 8.43565,-10.07204 -1.16844,-0.20091 -1.60241,1.09912 -1.05561,1.49158 z m -19.523467,-5.58211 c -0.67079,-0.42899 -1.45987,-0.57624 -2.33439,-0.17837 -0.6834,0.31078 -1.88202,1.34681 -2.71616,2.70874 -0.57068,0.93173 -0.97535,2.02479 -0.89111,3.16333 0.0196,0.26442 -0.0781,0.45939 -0.23225,0.60354 -0.12171,0.11385 -0.29752,0.19751 -0.50402,0.22367 -0.17531,0.0222 -0.37154,0.002 -0.5311,-0.0477 -0.30352,-0.0948 -0.46416,-0.29162 -0.52469,-0.45236 -0.58405,-1.55109 -0.33243,-3.282 0.32214,-4.84358 0.88339,-2.10745 2.48765,-3.87271 3.53871,-4.44184 1.79859,-0.97426 3.92042,-1.01911 5.72159,-0.0266 1.53323,0.84475 2.49193,2.20858 3.44543,3.59878 0.20269,0.29551 0.403867,0.58887 0.611777,0.87707 0.41668,0.57749 0.45817,1.15023 0.2968,1.64136 -0.17877,0.54408 -0.634577,1.00326 -1.204567,1.24355 -0.52682,0.2221 -1.13826,0.25337 -1.67932,0.0251 -0.45706,-0.19277 -0.87652,-0.56857 -1.14194,-1.20621 -0.44701,-1.07386 -1.19177,-2.25863 -2.1769,-2.88863 z m 34.068437,2.38913 c -0.4594,0.23937 -0.81882,0.31154 -1.32843,0.15885 -0.28181,-0.0846 -0.56035,-0.24687 -0.77841,-0.46494 -0.21612,-0.21611 -0.37205,-0.48487 -0.43266,-0.78302 -0.14906,-0.73581 -0.55166,-1.42459 -1.12537,-1.8736 -0.49036,-0.38378 -1.10931,-0.58719 -1.79584,-0.47244 -0.74082,0.12367 -1.44663,0.59879 -1.93276,1.15895 -0.16247,0.18744 -0.28982,0.40032 -0.41787,0.61176 -0.23951,0.39542 -0.4723,0.76296 -0.80263,1.05335 -0.12522,0.11049 -0.3139,0.18702 -0.49665,0.18702 -0.0743,0 -0.14964,-0.012 -0.22147,-0.0345 -0.73736,-0.74007 -0.87916,-1.30148 -0.85539,-1.85834 0.0249,-0.58393 0.25516,-1.17517 0.6272,-1.7268 0.8727,-1.29401 2.52968,-2.35498 3.64782,-2.5953 1.53128,-0.32906 3.05204,0.066 4.2713,0.92122 1.25456,0.88002 2.18418,2.24631 2.474,3.78607 0.0698,0.37083 0.0401,0.77111 -0.10113,1.11817 -0.138,0.33912 -0.37849,0.62958 -0.73171,0.81352 z m -30.691237,-16.1854 c -0.91896,0.89533 -2.00663,1.03402 -3.10698,1.15737 -0.61138,0.0692 -1.09945,0.12495 -1.57972,0.23332 -1.32011,0.29799 -2.62497,0.74679 -3.81545,1.39315 -1.24446,0.67568 -2.60063,1.49056 -3.57629,2.53449 -0.232,0.24842 -0.45071,0.50908 -0.66971,0.77031 -0.1997,0.23821 -0.39207,0.46754 -0.59482,0.68865 -0.23283,0.25398 -0.45394,0.52018 -0.67387,0.78567 -0.13599,0.22402 -0.16285,0.27912 -0.19024,0.33648 -0.0412,0.0862 -0.0892,0.18264 -0.1439,0.28611 -0.075,0.14172 -0.16281,0.29685 -0.2548,0.4375 -0.15305,0.25708 -0.23517,0.32789 -0.30613,0.35957 -0.11775,0.0524 -0.22942,0.0783 -0.33775,0.0643 -0.10158,-0.0132 -0.19728,-0.0619 -0.29179,-0.14177 -0.47179,-0.39863 -0.61094,-1.05281 -0.59668,-1.74724 0.0216,-1.05377 0.41031,-2.2205 0.76861,-2.93771 0.83311,-1.6665 1.98853,-3.39893 3.37785,-4.64272 1.58535,-1.41977 3.31975,-2.4946 5.31192,-3.23524 1.238,-0.46042 2.67139,-0.88304 4.02015,-0.82966 0.97084,0.0384 1.89765,0.32701 2.66304,1.0477 0.46999,0.4424 0.6956,1.07168 0.6956,1.70051 0,0.64136 -0.23432,1.28651 -0.69904,1.73922 z m 32.560187,8.19885 c -0.0585,0.0958 -0.13932,0.16179 -0.22933,0.20143 -0.0943,0.0415 -0.19968,0.0535 -0.30076,0.0365 -0.10064,-0.017 -0.19629,-0.0625 -0.27218,-0.13229 -0.0727,-0.0668 -0.12811,-0.15544 -0.15287,-0.26401 -0.61012,-2.67967 -1.79481,-4.67338 -4.32338,-5.95905 -1.24385,-0.63246 -2.67415,-1.0343 -4.02817,-1.35469 -0.39346,-0.0931 -0.80923,-0.15344 -1.22792,-0.21457 -1.31223,-0.1916 -2.63391,-0.41103 -3.48938,-1.47172 -0.51545,-0.63892 -0.73178,-1.45603 -0.60947,-2.20331 0.11517,-0.70361 0.52632,-1.34877 1.27373,-1.73539 1.86073,-0.96208 4.17306,-0.018 6.05211,0.78617 0.13939,0.0597 0.27622,0.11821 0.41009,0.17472 1.83756,0.77564 3.51351,1.79948 4.89117,3.26368 1.09312,1.1616 2.1059,2.87881 2.51379,4.64536 0.33935,1.46969 0.25956,2.97006 -0.50743,4.22717 z"
       id="path67"
       fill="#1a1417"
       style="fill-rule:evenodd;stroke:none;stroke-width:0.276382"
       sodipodi:nodetypes="ccccccccscssccsccscsscsccscscsccscscsscssssssccscsccccccscccccscssssssscssscscsscsss" /><g
       id="g69"
       stroke="none"
       stroke-width="1"
       fill="none"
       fill-rule="evenodd"
       transform="matrix(0.23839173,0,0,0.23839173,63.317863,61.521384)"><path
         d="m 245.36528,32.822685 c -14.02631,-2.365455 -28.59864,1.130516 -42.12249,4.855574 -21.48317,-14.105353 -49.32001,0.132125 -64.7058,17.75476 -5.26569,4.336667 -16.32384,10.096868 -10.49795,18.37063 -2.20839,5.84864 -2.79898,8.600878 1.77178,1.763436 25.86854,2.978128 53.62333,-2.647817 79.22443,-7.954107 8.71706,2.931246 16.41502,9.78467 25.9972,7.43733 9.06047,1.92646 18.86855,3.725058 27.0477,-2.087354 6.22806,-0.252528 20.08418,10.93117 19.86132,-2.074567 C 280.0147,58.421803 255.29669,37.678259 245.36528,32.822685 Z"
         id="path68"
         fill="#d9cbae" /><path
         d="m 255.8834,72.8453 c -15.228,1.685 -30.671,-0.791 -43.422,-9.633 -1.331,-0.923 -2.643,-0.913 -3.713,-0.372 -1.301,-0.144 -2.632,0.375 -3.404,1.861 -3.202,6.167 -13.815,4.793 -19.649,4.919 -19.083,0.368 -38.832,-0.685 -57.197,5.084 17.564,-34.334 41.855,-49.156 79.442,-35.677 -3.394,2.733 13.542,-3.665 15.028,-3.787 26.006,-6.516 47.461,15.296 57.942,36.91 -7.929,-1.887 -16.814,-0.214 -25.027,0.695 m 36.324,5.843 c -11.467,-25.829 -34.077,-54.229 -65.614,-49.765 -6.475,0.953 -13.286,5.376 -19.805,4.578 -18.875,-6.971 -34.455,-10.513 -53.358,0.759 -8.02,0.599 -53.152,56.476 -31.705,51.914 26.326,-15.118 72.1,-0.878 88.448,-14.4 32.095,21.069 58.191,-1.818 76.279,11.352 3.145,2.885 7.556,-0.708 5.755,-4.438"
         id="path69"
         fill="#1a1417" /></g><path
       d="m 130.52215,61.452454 c -2.60836,2.69516 -6.96273,3.46857 -10.43303,2.02313 -8.91068,-3.72294 -4.54922,-15.33501 2.32284,-18.4534 0.8585,-0.21399 2.0051,-0.72164 3.05072,-0.8368 0.0945,-0.0464 0.30034,0.0879 0.54977,-0.0391 7.5776,0.84603 9.30319,12.60892 4.5097,17.30617 m -28.74077,0.68985 c -2.925477,3.88021 -8.364347,5.0773 -12.808077,3.27351 -8.77877,-3.4572 -5.6651,-13.75424 0.34116,-17.79107 12.687767,-4.7675 17.927057,7.36319 12.466917,14.51756 m -19.030477,-8.59744 c -0.008,-0.004 -0.0164,-0.005 -0.0247,-0.009 0.0464,-0.0204 0.0928,-0.0408 0.139,-0.0616 -0.0151,0.0393 -0.0313,0.0783 -0.046,0.11753 -0.0228,-0.0157 -0.0428,-0.0339 -0.0683,-0.0462 m 53.810817,-4.1943 c -0.71627,10e-4 -1.75094,0.11923 -2.3439,0.61616 -1.4622,-4.9312 -6.85938,-9.49504 -11.55319,-6.16718 -3.69632,1.1887 -6.43917,3.825 -7.99805,7.32989 -2.81073,-1.67188 -7.23041,-0.95797 -9.66776,1.25295 -1.59626,-5.27453 -5.524807,-7.1215 -10.200787,-7.39414 -5.10372,-0.83594 -10.19069,4.12063 -11.77791,8.09687 -1.31977,-0.15017 -3.29178,-0.57018 -4.53334,0.24427 -8.05798,-2.11316 -22.14606,-3.27823 -23.78421,-2.10414 -1.16744,0.44795 -1.80809,3.20348 -0.17747,3.35214 1.42096,-0.20173 -0.16585,-2.01905 1.26649,-2.21735 7.63174,-0.47308 15.04048,1.06388 22.59143,1.70882 0.67417,0.90684 2.85243,1.2102 4.01449,0.84582 -1.83021,6.7451 2.12067,11.33408 8.04057,12.70862 9.16656,2.10563 17.141597,-6.09435 14.744637,-14.62347 2.7768,-1.38142 5.97081,-1.32212 8.99575,-0.59446 -5.05473,18.60294 24.90611,17.76829 20.22669,-1.80122 3.1141,1.549 3.79041,-0.94099 2.15656,-1.25358"
       id="path70"
       fill="#1a1417"
       style="fill-rule:evenodd;stroke:none;stroke-width:0.214839" /></g></svg>
