<?xml version="1.0" encoding="UTF-8" standalone="no"?>
<svg
   version="1.0"
   width="45.245205mm"
   height="64.408592mm"
   id="svg24"
   sodipodi:docname="grandpa_disgust0.svg"
   xml:space="preserve"
   inkscape:version="1.3.2 (091e20ef0f, 2023-11-25)"
   xmlns:inkscape="http://www.inkscape.org/namespaces/inkscape"
   xmlns:sodipodi="http://sodipodi.sourceforge.net/DTD/sodipodi-0.dtd"
   xmlns="http://www.w3.org/2000/svg"
   xmlns:svg="http://www.w3.org/2000/svg"><sodipodi:namedview
     id="namedview24"
     pagecolor="#fafbf6"
     bordercolor="#0f0f1b"
     borderopacity="0.25"
     inkscape:showpageshadow="2"
     inkscape:pageopacity="0.0"
     inkscape:pagecheckerboard="0"
     inkscape:deskcolor="#c6b7be"
     inkscape:document-units="mm"
     inkscape:zoom="2.4691358"
     inkscape:cx="84.4425"
     inkscape:cy="117.45"
     inkscape:window-width="1920"
     inkscape:window-height="1044"
     inkscape:window-x="0"
     inkscape:window-y="0"
     inkscape:window-maximized="1"
     inkscape:current-layer="svg24"><inkscape:page
       x="0"
       y="0"
       width="171.00549"
       height="243.43405"
       id="page1"
       margin="0"
       bleed="0" /></sodipodi:namedview><defs
     id="defs1" /><g
     id="g11"
     transform="translate(-871.12301,-40.282959)"><path
       d="m 882.71043,279.87242 c 28.20905,4.28475 56.92983,4.50024 85.37328,2.94431 11.25684,-0.84275 22.54818,-0.99454 33.79599,0.0829 6.6463,0.49424 35.7872,2.72169 38.1681,-3.23105 -1.4985,-31.69837 -4.5335,-63.66665 -13.8439,-94.15262 -3.829,-10.8248 -7.1176,-19.80924 -14.5907,-28.76697 -2.3553,-2.44574 -7.4346,-7.57521 -10.345,-9.24817 -2.52149,-1.44905 -3.57538,-0.9321 -5.02321,-3.37979 -1.43875,-2.70392 -2.49995,-7.21969 -4.54283,-9.12766 -2.08002,-1.94265 -5.16257,-1.24761 -8.98327,-0.6219 0.70193,-9.48557 -3.67658,-11.90138 -9.70857,-13.70519 -10.60279,-4.04659 -21.07414,-2.0137 -23.74273,10.89345 -4.94808,0 -7.7275,2.12933 -10.73227,4.17532 -1.2283,0.83636 -0.37384,2.96722 -1.84099,3.62458 -2.71448,0.96646 -7.51136,0.72973 -10.12498,1.91917 -11.8851,5.40878 -22.47076,13.25229 -29.42262,24.70727 -15.58525,24.45657 -26.29111,75.97461 -24.43851,104.96122 -0.81169,1.27286 0.31074,3.09804 0.59604,4.46677 0.36012,1.19059 1.52632,1.98259 2.74342,1.84721 1.69841,1.82648 4.32539,2.23306 6.66275,2.61114 z"
       id="path1"
       fill="#fafbf6"
       style="fill:#565a75;fill-opacity:1;fill-rule:evenodd;stroke:none;stroke-width:0.215922"
       inkscape:export-filename="grandpa/grandpa_idle0.svg"
       inkscape:export-xdpi="96"
       inkscape:export-ydpi="96" /><path
       style="fill:#565a75;fill-opacity:1;stroke:none;stroke-width:2.13543;stroke-dasharray:none;stroke-opacity:1"
       d="m 949.26766,131.70869 -0.10878,6.75593 1.20165,3.69618 4.20652,6.08321 4.99932,6.69248 6.4968,6.64879 1.65204,1.88459 4.32784,6.32209 6.53627,-13.9373 6.94715,-15.20669 -2.1909,-3.6746 -2.30715,-5.81625 z"
       id="path2" /><path
       d="m 999.47205,146.7838 c -0.17317,-0.0965 -0.0207,-0.34396 0.1533,-0.26213 8.36585,3.92459 14.78375,10.81012 19.29955,18.76575 4.676,8.2377 7.3411,17.59059 9.6387,26.732 l 0.083,0.33032 c 2.4501,9.77909 4.5333,19.65923 6.4088,29.56355 1.8994,10.02978 3.4241,20.12174 4.6505,30.25537 0.6067,5.01046 1.1476,10.02978 1.5695,15.05924 0.2108,2.51333 0.4023,5.0286 0.5744,7.54495 0.069,1.00636 0.1335,2.01273 0.189,3.01998 l 0.04,0.75562 c 0.034,0.68534 0.1158,1.3724 -0.054,2.04845 -0.1462,0.58277 -0.4547,1.11049 -0.7261,1.64554 -0.5368,1.05758 -2.0083,0.88333 -2.5868,0 l -0.1679,-0.25731 c -0.3836,-0.59286 -0.7024,-1.14383 -0.8227,-1.88161 -0.1164,-0.71449 -0.1207,-1.46309 -0.173,-2.1847 -0.096,-1.3277 -0.1779,-2.65669 -0.2712,-3.98483 -0.1958,-2.79575 -0.4158,-5.58978 -0.6594,-8.38164 -0.4817,-5.51162 -0.9984,-11.01827 -1.633,-16.51477 -1.1275,-9.76829 -2.5425,-19.51067 -4.2105,-29.20124 -1.6297,-9.46648 -3.69,-18.83691 -5.8393,-28.19557 l -0.2227,-0.96809 c -3.7633,-16.33966 -9.5634,-35.15679 -25.24033,-43.88888 z m -89.10814,63.98241 c 0.0615,-0.16345 0.32626,-0.20102 0.37096,0 0.56355,2.5373 0.61926,5.15059 0.70541,7.74835 0.0849,2.56256 0.0814,5.13677 0.044,7.70084 -0.13776,9.42347 -0.39643,18.83895 -0.62012,28.2609 -0.11185,4.71292 -0.21679,9.42649 -0.29733,14.14006 -0.0304,1.76791 -0.056,3.5357 -0.0773,5.30365 l -0.026,2.33171 c -0.0129,1.0309 -0.04,2.04921 -0.16571,3.0791 -0.0829,0.67735 -0.25954,1.32339 -0.63351,1.904 -0.26541,0.41213 -0.64366,0.62133 -1.01235,0.90139 l -0.069,0.0534 c -0.47028,0.37161 -0.9656,0.3742 -1.43134,0 l -0.13524,-0.10701 c -0.4449,-0.34791 -0.8294,-0.61974 -1.11344,-1.16995 -0.39514,-0.76501 -0.4584,-1.59609 -0.52555,-2.43905 -0.10192,-1.27825 -0.0343,-2.57529 -0.0212,-3.85722 0.0263,-2.57163 0.062,-5.14282 0.10709,-7.71423 0.16562,-9.42951 0.49295,-18.86075 1.08954,-28.27342 0.28106,-4.43366 0.66214,-8.88167 1.17333,-13.29739 l 0.0974,-0.82756 c 0.15503,-1.2992 0.29646,-2.6215 0.45581,-3.94813 -2.37881,-1.67317 -4.4698,-3.70327 -6.25288,-6.00629 -0.13128,-0.1695 0.0849,-0.40722 0.24335,-0.24312 1.82194,1.8865 3.91098,3.3904 6.22372,4.573 0.37894,-2.77697 0.89996,-5.53904 1.87031,-8.11304 z m 39.74092,-84.05526 c 0.0326,-0.0253 0.0836,-0.0363 0.11465,0 0.51131,0.5961 0.40762,1.50751 0.4241,2.2629 l 0.002,0.0703 c 0.0367,1.10444 0.0436,2.20542 0.04,3.31051 l -0.0114,3.51758 v 0 c -0.002,0.48366 -0.0408,0.98712 -0.016,1.47366 l 0.0129,0.18829 v 0 c 0.26861,0.27508 0.39341,0.67259 0.30229,1.07183 -0.0164,0.51217 -0.28415,0.93948 -0.67475,1.20808 l 0.83715,1.18768 v 0 l 0.83797,1.18703 c 1.72715,2.44963 3.47331,4.87745 5.2931,7.25972 1.85563,2.4289 3.8352,4.76625 5.90675,7.01356 1.01202,1.09818 2.04132,2.18103 3.09459,3.23969 0.42801,0.43028 0.86671,0.84987 1.30052,1.27416 l 0.4316,0.42644 c 0.255,0.255 0.57586,0.5072 0.74515,0.83043 0.0995,0.19066 0.12221,0.66051 0.15784,0.73824 0.31956,0.70239 -0.22564,1.82238 -1.13165,1.47194 l 0.0411,-0.0274 c 0.16496,-0.11472 0.0593,-0.11639 -0.31727,-0.005 -0.23752,-8.7e-4 -0.46022,-0.0555 -0.66827,-0.16371 l -0.062,-0.0341 c -0.29299,-0.14888 -0.55452,-0.43705 -0.79257,-0.66748 l -0.059,-0.0563 c -0.54433,-0.51 -1.06319,-1.05089 -1.58486,-1.584 -1.08889,-1.11221 -2.15317,-2.24817 -3.18355,-3.41458 -2.05557,-2.32721 -4.00426,-4.74877 -5.84975,-7.24547 -1.87981,-2.54291 -3.62705,-5.21645 -5.12965,-7.99968 -0.57025,-1.05629 -1.09299,-2.13287 -1.59415,-3.22198 -0.97553,-0.31309 -1.20203,-1.35059 -1.13402,-2.51937 -0.35994,-0.83821 -0.68425,-1.69369 -0.87599,-2.56774 -0.0261,-0.11984 0.12783,-0.23277 0.22002,-0.12804 0.31201,0.35454 0.60091,0.73197 0.87859,1.11912 0.16755,-0.81943 0.37959,-1.57364 0.47935,-2.0545 l 0.43249,-2.12207 v 0 c -2.43711,-0.12697 -5.10763,0.87426 -6.78772,2.62711 -0.0902,0.45646 -0.44156,0.78315 -0.78401,1.20981 -0.39125,0.48777 -0.73262,1.03513 -0.98719,1.60754 -0.56464,1.26875 -0.24594,3.13842 -1.34174,4.06926 -0.11422,0.0969 -0.24183,0.16431 -0.37354,0.20599 0.51997,2.54954 0.284,5.35887 0.27267,7.94543 l -4.3e-4,0.22763 c 0.003,2.89486 -0.0941,5.7921 -0.20599,8.68458 l -0.11379,2.86269 c -0.14745,3.81789 -0.24322,7.63763 0.12782,11.43456 1.69391,-1.50022 3.44546,-2.932 5.25726,-4.29597 1.19131,-0.89709 2.40651,-1.76226 3.64377,-2.59493 l 1.00532,-0.67174 c 1.20467,-0.80782 2.4386,-1.63904 3.7576,-2.21753 1.72522,-0.75637 3.36579,-0.4964 5.03141,0.27941 1.65871,0.77278 3.26797,1.67037 4.89494,2.50793 1.65483,0.85159 3.3131,1.69606 4.9703,2.54269 1.09775,0.56096 2.70636,1.0673 3.51153,2.09984 0.0514,-0.22845 0.1112,-0.45625 0.18116,-0.68318 -0.0799,-0.34612 -0.049,-0.7201 0.1451,-1.07658 2.7055,-4.97117 5.20868,-10.06109 7.69437,-15.14475 1.25817,-2.5727 2.45438,-5.17585 3.71493,-7.74705 l 1.22541,-2.50421 c 0.20476,-0.41716 0.41012,-0.83401 0.61662,-1.25023 0.3092,-0.62315 0.63114,-1.24026 0.94379,-1.86189 0.13214,-0.26263 0.29776,-0.5235 0.42642,-0.78862 l 0.0609,-0.13294 c 0.003,-0.007 0.29985,-0.94058 0.0705,-0.85159 l -0.0198,0.01 c -0.11703,0.0663 -0.21074,-0.081 -0.13495,-0.1749 0.32431,-0.40097 0.77602,-0.0458 0.96107,0.32539 0.50988,1.02147 -0.42436,2.62492 -0.78373,3.60303 l -0.0197,0.0547 c -1.11523,3.15655 -2.37794,6.25395 -3.67174,9.34055 -2.48073,5.91776 -5.14563,11.74462 -7.80471,17.58163 l -0.0315,0.1004 v 0 c 0.56701,-0.43465 1.17245,-0.82913 1.69088,-1.21304 1.30784,-0.96884 2.65389,-1.88996 3.99779,-2.80806 2.46454,-1.68379 4.99589,-3.25655 7.56912,-4.76723 l 0.5152,-0.30132 c 1.28538,-0.74881 2.55867,-1.35598 4.08437,-1.13121 1.41745,0.20893 2.73522,0.9703 4.01574,1.58879 l 0.13233,0.0634 3.95677,1.88111 c -0.42299,-1.68678 -0.88096,-3.36535 -1.3588,-5.03766 -0.93192,-3.26193 -1.95733,-6.49644 -3.06932,-9.70201 -1.03859,-2.99505 -2.16132,-5.95733 -3.34885,-8.89618 l -0.35759,-0.88202 c -0.48418,-1.21002 -0.96563,-2.52948 -2.34952,-2.90201 -1.38297,-0.37247 -2.96935,0.17986 -4.23336,-0.60847 -0.11487,-0.0717 -0.10062,-0.26105 0.0387,-0.29603 l 0.77996,-0.19658 c 1.46443,-0.36429 3.18122,-0.73075 4.56605,-0.37648 1.50691,0.38607 2.75365,1.65073 3.48476,2.96547 0.81291,1.46255 1.38594,3.09931 2.00288,4.65888 l 0.0978,0.24557 c 0.708,1.76494 1.38902,3.54046 2.04067,5.32721 1.30287,3.57135 2.48896,7.18566 3.56246,10.83258 0.5174,1.7576 1.0082,3.52362 1.48,5.29396 0.1356,0.50915 0.3592,1.12647 0.5428,1.77034 0.2103,0.20513 0.4094,0.43401 0.5961,0.69505 0.3099,0.43314 0.087,0.94099 -0.2977,1.20031 -0.015,0.44307 -0.1134,0.8598 -0.3487,1.21694 -0.9188,1.39464 -3.3477,1.03534 -3.249,-0.83951 0.015,-0.28696 0.1267,-0.56096 0.296,-0.79243 v -0.0376 0 l -0.019,-0.0687 v 0 c -0.4217,-0.20211 -0.84509,-0.42731 -1.2914,-0.64777 l -4.15261,-2.0519 v 0 c -1.20268,-0.59443 -2.53578,-1.51275 -3.8732,-1.73925 -1.24683,-0.21112 -2.56233,0.71782 -3.63374,1.2783 l -0.0695,0.036 c -2.58998,1.32749 -5.16074,2.69902 -7.72136,4.08179 -1.24997,0.67518 -2.48374,1.37844 -3.72896,2.06162 -1.04118,0.57132 -2.16483,1.3914 -3.33513,1.71377 -0.49986,0.38866 -1.09364,0.33662 -1.57083,0.0427 0.21808,1.35059 0.2047,2.73659 0.27163,4.11741 0.09,1.84598 0.10377,3.69709 0.13347,5.54558 l 0.0121,0.69304 c 0.0786,4.08653 0.1207,8.17415 0.13625,12.26154 0.0553,14.55485 -0.10559,29.11401 -0.14316,43.66885 -0.019,7.31283 -0.16388,14.63193 -0.35389,21.94196 -0.0806,3.09754 -0.24896,6.19137 -0.43085,9.28425 l -0.10011,1.68694 c -0.21182,3.55947 -0.33683,7.15823 -0.99583,10.66976 -0.0859,0.45797 -0.86109,0.46963 -0.9371,0 -0.60647,-3.7627 -0.6402,-7.60795 -0.7568,-11.41478 l -0.0246,-0.76082 c -0.14013,-4.0874 -0.20663,-8.1722 -0.19238,-12.26176 0.0518,-14.56067 0.43033,-29.11227 0.73996,-43.66885 0.15568,-7.31369 0.2604,-14.63063 0.50223,-21.94195 0.12092,-3.65836 0.25781,-7.31434 0.42019,-10.97119 0.0725,-1.63275 0.14229,-3.26384 0.25073,-4.89415 l 0.049,-0.69865 c 0.0337,-0.45581 0.0609,-0.90601 0.0939,-1.35211 -1.47323,0.53808 -2.82058,-0.45818 -4.14591,-1.13985 -1.52743,-0.78573 -3.05421,-1.57277 -4.58229,-2.357 l -1.52929,-0.78286 v 0 l -3.06055,-1.56161 c -1.37801,-0.70326 -2.4397,-1.40306 -3.90948,-0.57824 -5.29504,2.97065 -10.16084,6.92331 -14.57039,11.07095 -0.84555,0.79545 -2.6323,0.58169 -2.8465,-0.75141 -0.91493,-5.69505 -0.35848,-11.47253 0.10864,-17.18484 l 0.17219,-2.12077 c 0.20867,-2.53301 0.43592,-5.06604 0.73875,-7.58872 0.13543,-1.12849 0.27031,-2.2563 0.41955,-3.38263 l 0.11485,-0.84447 c 0.18656,-1.33504 0.30834,-2.6621 0.70606,-3.94251 -0.12545,-0.0406 -0.24615,-0.1071 -0.35411,-0.20944 -1.19578,-1.13446 -0.61926,-3.10301 -0.0736,-4.45252 0.53873,-1.33202 1.36031,-2.49455 2.38917,-3.49513 0.22435,-0.21851 0.54067,-0.35908 0.85851,-0.36642 2.49454,-1.65266 5.23113,-2.47748 8.07935,-1.57536 0.08,-0.38251 0.16158,-0.7644 0.24747,-1.14533 l 0.0874,-0.38059 c 0.22153,-0.94509 0.3038,-2.5062 1.11912,-3.13842 z m 25.56635,149.24906 c 0.77408,-0.2129 1.62157,0.0114 2.1888,0.57867 0.56701,0.56722 0.79157,1.4145 0.57823,2.18858 -0.10666,0.3811 -0.29948,0.71189 -0.57823,0.9928 -0.26065,0.25885 -0.56468,0.44359 -0.91191,0.55424 l -0.0809,0.0242 -0.12653,0.0527 c -0.38801,0.10429 -0.77624,0.10429 -1.16403,0 -0.37096,-0.10407 -0.6929,-0.29171 -0.96625,-0.5629 -0.27142,-0.27336 -0.45905,-0.5953 -0.56313,-0.96647 -0.10429,-0.38801 -0.10429,-0.77602 0,-1.16403 l 0.0529,-0.12653 v 0 c 0.10667,-0.3811 0.29949,-0.71211 0.57824,-0.99259 0.2807,-0.27876 0.61171,-0.47179 0.99281,-0.57867 z m 45.96312,-77.13554 c 0.1271,-0.14596 0.3333,0.041 0.2543,0.19627 -1.2057,2.3637 -2.5496,4.71055 -3.8704,7.01422 0.1058,0.63848 0.2108,1.27178 0.3315,1.8891 0.5145,2.63122 1.1448,5.21493 1.5557,7.8712 1.4769,9.54784 2.2436,19.19932 2.9015,28.83288 0.6599,9.6681 0.7443,19.34053 0.8434,29.02764 0.01,0.8395 -0.6372,1.81525 -1.5026,1.97352 -0.3962,0.0723 -0.6927,0.0583 -1.088,0 -0.9006,-0.13258 -1.464,-1.16425 -1.5026,-1.97352 -0.2583,-5.41402 -0.6057,-10.82113 -1.0081,-16.22673 -0.7135,-9.58346 -1.1494,-19.19198 -1.7257,-28.78537 l -0.203,-3.35291 c -0.2178,-3.63309 -0.417,-7.2687 -0.4819,-10.9072 -0.043,-2.41055 0.086,-4.82045 0.01,-7.22819 -0.073,-2.22292 -0.2986,-4.63994 0.1915,-6.82399 0.018,-0.0818 0.1475,-0.10256 0.1849,-0.0242 0.5095,1.07269 0.8323,2.23867 1.0811,3.42883 1.3132,-1.66087 2.6506,-3.32541 4.0319,-4.91157 z m -86.02248,-58.71941 c 0.1844,-0.0132 0.17706,0.2638 0,0.28431 -2.57723,0.29893 -5.06691,1.3477 -7.50039,2.23911 l -0.20844,0.076 c -2.45849,0.89197 -4.85543,1.92926 -7.16212,3.16563 -4.50996,2.41746 -8.65133,5.5345 -12.31293,9.10282 -14.61897,14.24478 -21.28124,34.78627 -26.16301,54.09009 -2.7124,10.72504 -4.64123,21.63146 -5.89142,32.62144 -0.61818,5.43518 -1.05521,10.89108 -1.30999,16.35541 -0.13042,2.80051 -0.21269,5.6036 -0.24702,8.40691 -0.0177,1.43588 -0.0229,2.87219 -0.0212,4.30807 8.7e-4,0.65813 0.11833,1.48662 -0.0576,2.12553 -0.16323,0.59184 -0.62358,1.11308 -0.96409,1.60624 -0.40356,0.58515 -1.12884,0.55427 -1.53801,0 l -0.15088,-0.20173 c -0.43639,-0.57883 -0.86337,-1.13229 -0.9257,-1.88882 -0.0667,-0.811 -0.0196,-1.64705 -0.0227,-2.46172 -0.007,-1.64122 0.0134,-3.28266 0.0462,-4.92345 0.0633,-3.14511 0.1872,-6.28893 0.37138,-9.4293 0.37398,-6.37292 0.98957,-12.73289 1.87096,-19.05573 1.56673,-11.23872 3.91509,-22.37012 6.99111,-33.2923 2.90199,-10.30356 6.33989,-20.57668 11.23743,-30.12085 4.54731,-8.86142 10.51279,-17.10509 18.38443,-23.29816 3.66052,-2.87996 7.64535,-5.28014 11.94154,-7.08762 2.16678,-0.91162 4.44216,-1.65591 6.75619,-2.08019 2.28834,-0.41954 4.56674,-0.36102 6.87624,-0.54169 z m 40.50299,117.64276 c 0.40874,-0.003 0.86455,0.0868 1.21521,0.31287 l 0.46855,0.3621 v 0 c 0.12696,0.16302 0.25327,0.32669 0.37916,0.49079 0.293,0.38175 0.33187,0.9995 0.27076,1.45445 -0.0138,0.3038 -0.10407,0.58622 -0.27076,0.84814 l -0.35671,0.46185 v 0 c -0.34288,0.27962 -0.62876,0.47913 -1.04398,0.61365 -0.21706,0.0702 -0.42608,0.0849 -0.63446,0.0742 l -0.0694,-0.004 0.0417,0.006 -0.073,-0.008 v 0 c -0.0678,-0.006 -0.13581,-0.0132 -0.20405,-0.0225 -0.0464,-0.006 -0.0931,-0.009 -0.13948,-0.0158 -0.0447,-0.004 -0.0879,-0.005 -0.13301,-0.001 -0.52771,0.0497 -1.05823,-0.24961 -1.43285,-0.59336 -0.33749,-0.30984 -0.64043,-0.96689 -0.59336,-1.43264 l 0.0201,-0.19464 c 0.0356,-0.32837 0.0647,-0.45756 0.20384,-0.78737 0.13516,-0.32086 0.32409,-0.60393 0.58126,-0.84317 0.4923,-0.45797 1.09494,-0.71557 1.77055,-0.72032 z m -1.63351,-24.02845 c 0.70045,-0.76328 1.90335,-0.81942 2.772,-0.35778 0.21161,0.11271 0.40593,0.29343 0.59249,0.44415 0.47006,0.38002 0.65468,1.06557 0.68059,1.64316 0.0257,0.57111 -0.27552,1.24932 -0.68059,1.6436 l -0.0982,0.0952 v 0 c -0.24205,0.23535 -0.58882,0.44005 -0.92739,0.50223 -0.54606,0.1004 -1.00468,0.0974 -1.51318,-0.11724 -0.43693,-0.18431 -0.8134,-0.48063 -1.06956,-0.88272 l -0.0416,-0.068 c -0.0175,-0.0282 -0.0342,-0.0569 -0.0497,-0.0862 l -0.0226,-0.0444 c -0.48669,-0.9358 -0.35584,-1.99512 0.35778,-2.772 z m 0.36279,-24.15504 c 0.31589,-0.0991 0.63157,-0.11315 0.94747,-0.0423 0.21441,4.3e-4 0.41435,0.0546 0.59961,0.16194 0.20124,0.0563 0.37614,0.15827 0.52426,0.30574 0.17835,0.10537 0.32064,0.24745 0.42623,0.42602 0.21009,0.22952 0.35173,0.49877 0.42536,0.80797 l 0.0846,0.63157 -0.0846,0.63179 -0.23967,0.56766 v 0 c -0.0659,0.0859 -0.13214,0.17187 -0.19908,0.25738 -0.1058,0.179 -0.24831,0.32172 -0.42731,0.42752 -0.11638,0.11574 -0.24982,0.20232 -0.39902,0.26235 -0.52901,0.37916 -1.23378,0.50288 -1.8606,0.33014 -0.37225,-0.10407 -0.69548,-0.29257 -0.96949,-0.56485 -0.27227,-0.27422 -0.46077,-0.59745 -0.56485,-0.96949 l -0.0429,-0.29714 c -0.0553,-0.39856 -0.0641,-0.61933 0.0488,-1.126 0.0495,-0.22283 0.19304,-0.53699 0.26818,-0.66935 0.32129,-0.56485 0.84619,-0.952 1.46308,-1.14093 z m 27.42911,-17.37783 c 0.907,-0.006 1.8141,-0.005 2.721,0.005 l 0.6802,0.009 c 1.139,0.0179 2.1145,-0.0995 3.0099,0.69073 0.6499,0.57349 0.3636,1.53564 -0.2533,1.9677 -0.9347,0.65424 -2.1071,0.32517 -3.1816,0.25306 -1.1331,-0.076 -2.2671,-0.13906 -3.4016,-0.19002 -2.19656,-0.0982 -4.394,-0.16086 -6.59272,-0.17057 -2.19398,-0.009 -4.3912,0.0114 -6.58497,0.0469 -2.23219,0.0363 -4.55637,0.24421 -6.77605,0.0132 -0.30488,-0.0317 -0.37354,-0.4327 -0.0726,-0.53699 2.09163,-0.72356 4.44453,-0.95805 6.63657,-1.23464 2.26091,-0.28567 4.52183,-0.48777 6.797,-0.61884 2.33691,-0.13408 4.67729,-0.21851 7.01807,-0.23492 z m -27.43326,-7.10684 0.0748,0.002 c 0.39923,0.001 0.77287,0.0949 1.12129,0.28177 l 0.0743,0.0415 0.47935,0.37009 c 0.29344,0.29581 0.49662,0.64409 0.6089,1.04528 l 0.0846,0.62962 v 0 c 0.0125,0.32605 -0.0557,0.63006 -0.20383,0.91249 -0.0957,0.29365 -0.25889,0.54758 -0.48971,0.7622 -0.21463,0.23082 -0.46877,0.39406 -0.7622,0.48971 -0.2607,0.13673 -0.5398,0.20538 -0.83781,0.20546 l -0.0749,-0.002 c -0.4273,-0.002 -0.8259,-0.10926 -1.19512,-0.32345 l -0.47956,-0.37031 v 0 c -0.29344,-0.2956 -0.49662,-0.64388 -0.6089,-1.04506 l -0.0849,-0.62963 v 0 c -0.0121,-0.32604 0.0557,-0.63049 0.20426,-0.91248 0.0954,-0.29366 0.25868,-0.5478 0.4895,-0.76242 0.21462,-0.23082 0.46855,-0.39406 0.76242,-0.4895 0.2605,-0.13692 0.53958,-0.20541 0.83742,-0.20529 z m 7.0215,-55.63661 c 0.51022,-0.7391 1.43501,-0.0818 1.30265,0.51238 0.035,1.66886 0.12027,3.28849 0.50008,4.92323 0.17381,0.74838 0.40161,1.49763 0.75291,2.18318 l 0.14755,0.28868 c 0.45475,0.89838 0.80775,1.74565 0.19534,2.7312 -0.28869,0.46467 -0.81036,0.8136 -1.37585,0.7892 -2.50793,-0.10818 -2.85255,-3.59898 -3.00499,-5.54768 -0.15719,-2.00699 0.33166,-4.21263 1.48231,-5.88019 z"
       id="path3"
       fill="#0f0f1b"
       style="fill-rule:evenodd;stroke:none;stroke-width:0.215922;fill:#0f0f1b;fill-opacity:1" /><path
       d="m 1002.0597,69.797167 c -7.63011,-20.073964 -21.38419,-34.771412 -44.5715,-25.540039 -0.66518,-0.45285 -1.53314,-0.574304 -2.36489,-0.04403 -12.631,7.931164 -21.72682,20.646749 -25.66866,34.985047 -2.39893,0.456103 -4.72998,1.251627 -6.81205,2.556174 -4.52503,2.8353 -7.5694,7.346883 -10.42314,11.740916 -0.8582,1.32103 -0.0636,3.50807 1.54919,3.808018 0.70053,0.130563 1.39477,0.208207 2.0851,0.228594 -0.16808,0.610089 -0.3893,1.199575 -0.67103,1.740262 -1.02,1.957151 0.907,4.035101 2.71298,3.500051 0.2004,0.10605 0.41034,0.19324 0.62787,0.25874 0.0247,1.1087 0.59448,2.59282 1.72205,2.81686 1.82354,0.39126 4.24699,-1.00438 3.81669,-3.04394 0.55088,0.0969 1.09981,0.10909 1.63486,0.0419 0.0599,1.06207 0.0412,2.17034 0.18782,3.15 0.47931,4.61698 5.09239,7.7184 9.49163,6.31387 0.2698,1.43858 0.58667,3.45992 2.00356,4.24026 1.65655,4.64714 4.51701,9.95056 9.2021,12.06798 -0.41707,1.06858 -0.19086,2.36857 1.06532,3.08363 8.57574,4.88918 18.86897,6.54355 28.56447,4.72586 3.87482,-0.23076 7.65009,-1.10631 11.27375,-2.97172 2.6425,-1.36028 5.07179,-3.08775 7.44318,-4.86857 2.37269,-1.78147 4.90956,-3.51609 6.8034,-5.82914 2.0569,-2.51215 3.0144,-5.46782 3.6358,-8.61369 2.8474,-14.279312 1.8639,-28.300064 -3.3085,-41.90248 -6.40263,-16.837668 6.4004,14.39403 0,-2.444516 z"
       id="path4"
       fill="#fafbf6"
       style="fill:#565a75;fill-opacity:1;fill-rule:evenodd;stroke:none;stroke-width:0.216882" /><path
       style="fill:#fafbf6;fill-opacity:1;stroke:none;stroke-width:2.13543;stroke-dasharray:none;stroke-opacity:1"
       d="m 920.00976,83.716077 -3.70907,3.002767 -2.73376,4.728489 c 0,0 -1.22657,1.834559 -1.34747,2.047902 -0.12089,0.213343 0.0417,2.687636 0.0417,2.687636 l 0.98542,0.946512 1.70014,0.34334 1.13377,-0.594866 -0.47896,2.978767 -0.70133,0.599516 1.21368,2.05186 1.19084,0.34953 1.27538,-0.51652 0.10549,1.71859 1.03128,1.57141 1.97576,0.18824 1.79522,-1.01179 0.62454,-1.50467 1.58477,-0.45707 0.87665,-3.055442 2.6235,-4.326163 2.80949,-1.639875 2.8213,-1.538432 1.56549,-0.531774 1.40091,0.662535 1.52001,2.224448 1.2536,2.276623 1.00246,0.948279 2.0638,0.473055 1.57627,-0.223453 1.05434,-0.94688 -1.21702,-4.548042 -0.22788,-3.985345 -0.70042,-2.340876 -4.17283,-5.259753 -3.84891,-1.996118 -4.65644,-1.018894 -4.32763,1.109646 -4.75663,1.869918 -2.41395,2.77499 z"
       id="path5" /><path
       d="m 965.1719,40.345397 c 3.90496,-0.275657 7.88106,0.382581 11.59973,1.560034 5.93086,1.877332 11.37764,5.190424 15.85257,9.50356 4.61199,4.445 8.0229,9.925396 10.0969,15.978361 2.5011,7.29982 2.8755,15.094132 3.5795,22.714288 0.3556,3.850027 0.9416,7.641334 1.5508,11.45406 l 0.096,0.6022 c 0.5951,3.71476 0.93,7.47181 0.1078,11.18071 -1.3668,6.16423 -5.4641,11.39673 -10.32769,15.26309 -9.99111,7.94266 -25.5446,12.78498 -37.17751,5.47627 -1.79969,-1.13082 -0.0944,-4.02251 1.66262,-2.84419 1.23644,0.82957 2.54641,1.55678 3.95116,2.05886 5.86926,2.09747 12.31522,1.35031 18.11595,-0.60076 5.71636,-1.92266 11.20153,-5.17134 15.41945,-9.50638 4.43042,-4.55344 6.88582,-10.17785 6.53102,-16.57761 -0.2115,-3.8078 -1.079,-7.545112 -1.5605,-11.321899 -0.4265,-3.345045 -0.6822,-6.708228 -0.977,-10.066803 l -0.108,-1.208053 c -0.625,-6.842781 -1.5225,-13.873257 -4.63593,-20.084572 -2.61885,-5.225559 -6.45355,-9.874429 -11.06446,-13.464696 -4.82736,-3.758785 -10.59318,-6.387614 -16.64289,-7.368139 -7.11417,-1.152945 -13.92427,0.943655 -19.85882,4.846666 -5.26329,3.46144 -9.78832,8.087103 -13.258,13.335652 -1.68258,2.544895 -3.11595,5.262646 -4.3537,8.049799 -1.16639,2.626009 -1.97059,5.378244 -2.90861,8.084934 0.77189,-0.02299 1.55657,0.0067 2.35339,0.09478 4.08693,0.45285 7.89473,2.570922 10.31883,5.91069 2.96239,4.081072 2.16166,9.090617 3.31873,13.731896 0.0896,0.360241 -0.0627,0.712891 -0.37131,0.912206 -1.75436,1.13386 -4.10232,1.171598 -5.80029,-0.105188 -1.47372,-1.108051 -2.16557,-3.111392 -1.56893,-4.861848 0.0779,-0.22816 0.41013,-0.18782 0.41945,0.05682 0.11213,2.978876 2.87586,5.272839 5.58493,3.855297 -1.16205,-4.002127 -0.55044,-8.471852 -2.92725,-12.086844 -4.20687,-6.398024 -12.91252,-6.662403 -19.02708,-3.055653 -3.218,1.897867 -5.76512,4.751607 -7.66178,7.943596 l -0.54642,0.926632 c -0.72702,1.238104 -1.49696,2.638734 -1.6478,4.002163 -0.087,0.786849 0.20344,1.5262 1.1061,1.12974 0.73025,-0.320552 1.29566,-1.068579 1.72942,-1.711635 0.73977,-1.096779 2.43973,-0.149234 1.82868,1.018707 l -0.0208,0.03816 c -0.8893,1.575506 -1.43681,3.311676 -1.53736,5.120632 l -0.0255,0.50093 c -0.0168,0.36509 -0.0288,0.88397 0.0484,0.90291 0.0926,0.0228 0.7361,-0.72005 0.84324,-0.82286 0.51618,-0.49579 1.04776,-0.90092 1.76629,-1.033006 0.94455,-0.173117 1.89755,0.995546 1.07763,1.761696 l -0.0342,0.0308 c -0.73176,0.63611 -0.69923,1.90466 0.10909,2.49956 1.14082,0.8396 2.54532,-0.5308 2.71089,-1.65911 l 0.006,-0.0417 c 0.1464,-1.21909 1.8396,-1.26225 1.93155,0 0.19975,2.73923 -3.06151,5.03514 -5.54285,3.65317 -0.98118,-0.54611 -1.60493,-1.54616 -1.80034,-2.61799 -0.31318,0.16548 -0.65108,0.28021 -1.00829,0.31188 -1.16292,0.10302 -1.98968,-0.71463 -2.17771,-1.81205 -0.21905,-1.27852 -0.0891,-2.647484 0.24768,-3.975236 -0.63156,0.152251 -1.29587,0.09413 -1.96365,-0.291273 -2.02026,-1.165742 -1.4401,-3.758785 -0.67733,-5.509458 3.25649,-7.472459 10.00326,-14.252846 18.3619,-14.791148 0.0458,-1.318427 0.22447,-2.564849 0.51683,-3.88501 2.85894,-12.912949 12.12068,-24.870097 24.17825,-30.458717 3.222,-1.493451 6.63898,-2.498049 10.19129,-2.748982 z m -31.62004,51.582347 0.11459,-0.02582 c 1.30266,-0.280665 4.7308,-0.610378 4.31762,1.581737 -0.0195,0.103019 -0.16939,0.09044 -0.19606,0 -0.4047,-1.378286 -3.15391,-0.276091 -3.95659,0.05574 -1.10653,0.457187 -2.1981,1.131691 -3.10163,1.91572 -1.97818,1.716839 -3.3042,4.136377 -3.5059,6.764119 -0.19997,2.6067 0.5563,5.42227 2.43667,7.30784 0.92175,0.92414 2.09834,1.55158 3.42002,1.59777 1.18743,0.0412 2.49935,-0.88314 3.59504,-0.3418 0.21601,0.1067 0.38713,0.39971 0.36761,0.64088 -0.0369,0.45654 -0.24117,0.81201 -0.54524,1.08767 1.83439,3.3428 3.33565,6.88102 5.67559,9.92084 1.1742,1.52512 2.50478,2.93745 4.01146,4.13941 0.71614,0.57149 1.49475,1.07335 2.29765,1.51427 0.94083,0.51727 1.75501,0.84086 2.42647,1.71706 0.57257,0.74716 -2.1e-4,2.19181 -0.94408,2.32064 -2.22283,0.30277 -4.38298,-1.49432 -6.0148,-2.84051 -1.6303,-1.3451 -3.03939,-3.00425 -4.20383,-4.76468 -2.23605,-3.38054 -3.76573,-7.36857 -4.37733,-11.40323 -0.71008,0.22512 -1.5095,0.29387 -2.11092,0.29517 -1.60015,0.004 -3.12809,-0.57191 -4.38557,-1.54463 -4.60354,-3.56055 -5.11517,-10.871 -1.86649,-15.481045 1.55461,-2.205909 3.91689,-3.835778 6.54572,-4.457146 z m 0.0288,8.478796 c 1.0675,-0.0937 2.13412,0.0748 3.13743,0.43875 l 0.4136,0.14993 c 0.8737,0.31946 1.8037,0.69508 2.43471,1.35003 0.96404,1.00112 0.004,2.73575 -1.36917,2.35208 -1.5184,-0.42422 -2.75247,-1.70296 -4.27042,-2.23931 -1.35682,-0.4793 -2.89365,-0.41142 -4.09778,0.41403 -0.15897,0.10909 -0.36805,-0.10605 -0.26416,-0.26438 0.9211,-1.40257 2.37529,-2.05734 4.01579,-2.20113 z"
       id="path6"
       fill="#0f0f1b"
       style="fill-rule:evenodd;stroke:none;stroke-width:0.216882;fill:#0f0f1b;fill-opacity:1" /><path
       d="m 1001.6451,101.73543 c -2.60837,2.69516 -6.96274,3.46857 -10.43304,2.02313 -8.91068,-3.72294 -4.54922,-15.335004 2.32284,-18.453399 0.8585,-0.213984 2.0051,-0.72164 3.05072,-0.836797 0.0945,-0.04642 0.30034,0.08789 0.54977,-0.03914 7.57761,0.846029 9.30321,12.608918 4.50971,17.306166 m -28.74078,0.68985 c -2.92548,3.88021 -8.36435,5.0773 -12.80808,3.27351 -8.77877,-3.4572 -5.6651,-13.75424 0.34116,-17.791071 12.68777,-4.767494 17.92706,7.363191 12.46692,14.517561 m -19.03048,-8.597438 c -0.008,-0.0039 -0.0164,-0.0052 -0.0247,-0.0091 0.0464,-0.02041 0.0928,-0.04082 0.139,-0.06163 -0.0151,0.03927 -0.0313,0.07827 -0.046,0.117536 -0.0228,-0.01573 -0.0428,-0.03393 -0.0683,-0.04616 m 53.81086,-4.194305 c -0.7163,0.0013 -1.751,0.119227 -2.3439,0.616156 -1.4622,-4.9312 -6.85942,-9.495034 -11.55323,-6.167179 -3.69632,1.188704 -6.43917,3.825005 -7.99805,7.329893 -2.81073,-1.671878 -7.23041,-0.957974 -9.66776,1.252946 -1.59626,-5.274526 -5.52481,-7.121499 -10.20079,-7.394135 -5.10372,-0.835939 -10.19069,4.120628 -11.77791,8.09687 -1.31977,-0.150171 -3.29178,-0.570181 -4.53334,0.244266 -8.05798,-2.11316 -22.14607,-3.278227 -23.78422,-2.104137 -1.16743,0.447952 -1.80808,3.203479 -0.17746,3.352142 1.42095,-0.201736 -0.16585,-2.019052 1.26648,-2.217356 7.63174,-0.473071 15.04049,1.063887 22.59144,1.708829 0.67417,0.906838 2.85243,1.210196 4.01449,0.84582 -1.83021,6.745092 2.12067,11.334072 8.04057,12.708612 9.16656,2.10563 17.1416,-6.09435 14.74464,-14.623468 2.7768,-1.381417 5.97081,-1.322116 8.99575,-0.594456 -5.05473,18.602934 24.90609,17.768284 20.22669,-1.80122 3.1141,1.548998 3.7904,-0.940993 2.1566,-1.253583"
       id="path7"
       fill="#0f0f1b"
       style="fill-rule:evenodd;stroke:none;stroke-width:0.214839;fill:#0f0f1b;fill-opacity:1" /><path
       d="m 984.10969,102.36245 c 1.87561,1.14008 4.73345,3.79851 2.71573,6.62489 -2.37504,2.49211 -5.79459,-0.36527 -7.47968,-1.65755 -1.5625,-1.00152 -3.31803,1.57433 -1.86836,2.74377 12.17649,9.015 17.11797,-7.41299 7.58096,-9.05155 -1.05005,-0.18057 -1.44004,0.98775 -0.94865,1.34044 z M 962.28931,91.875682 c 0.20722,-2.572286 4.12484,-3.156405 4.51454,-0.611012 0.34897,2.280122 -0.0618,4.374706 -1.0889,6.427558 -0.98134,1.961202 -3.44787,1.046212 -3.63441,-0.73964 -0.25004,-2.393849 0.0798,-3.476796 0.20877,-5.076906 z m 29.82134,-1.138794 c 0.54619,-0.715332 1.33479,-1.203647 2.27964,-0.927697 2.95198,0.862621 2.08191,5.053527 1.04517,7.093467 -0.56331,1.107772 -2.38419,1.388702 -3.20706,0.4133 -1.34126,-1.590618 -1.98357,-4.767142 -0.27844,-6.333919 0.0462,-0.08097 0.0976,-0.162689 0.16069,-0.245151 z m -26.43727,-10.116742 0.46629,-0.08162 c 1.44255,-0.249482 3.23617,-0.489208 4.25664,0.670526 0.54122,0.614988 0.7275,1.758029 0,2.346689 -1.27964,1.035742 -2.69442,0.63436 -4.22791,0.722038 -1.26376,0.07253 -2.47833,0.281663 -3.69564,0.629643 -2.67057,0.76327 -4.84663,2.156677 -7.12749,3.686695 -0.29929,0.200691 -0.60481,-0.182062 -0.46199,-0.461986 1.31666,-2.578923 3.86827,-4.697351 6.42409,-5.988676 1.36409,-0.689253 2.85685,-1.261023 4.36601,-1.523311 z m 23.74631,-1.15524 0.3569,0.07305 c 3.88396,0.811856 8.93015,2.433602 10.76941,6.248576 0.07,0.539449 0,0.655063 -0.064,0.730599 l -0.02,0.02513 c -0.05,0.06451 -0.089,0.153421 -0.323,0.226842 -0.065,-0.01545 -0.1305,-0.03183 -0.19669,-0.04919 -0.84307,-0.220941 -1.51011,-0.525315 -2.15587,-0.841142 l -0.70017,-0.34495 c -0.81234,-0.398306 -1.63185,-0.782113 -2.50035,-1.065457 -1.85344,-0.604541 -3.75986,-1.030406 -5.69582,-1.257804 -0.41959,-0.04924 -0.82364,-0.190862 -1.14242,-0.433568 -0.30257,-0.23038 -0.53372,-0.549344 -0.63911,-0.973315 -0.13659,-0.548688 -0.0973,-0.964089 0.19705,-1.459085 0.22137,-0.371733 0.53811,-0.62939 0.9018,-0.777348 0.37078,-0.150833 0.7929,-0.186394 1.2125,-0.102341 z"
       id="path8"
       fill="#0f0f1b"
       style="fill-rule:evenodd;stroke:none;stroke-width:0.24838;fill:#0f0f1b;fill-opacity:1"
       sodipodi:nodetypes="cccccccccsccccccccccccccccscccccccsccccsccssc" /><g
       id="g10"
       stroke="none"
       stroke-width="1"
       fill="none"
       fill-rule="evenodd"
       transform="matrix(0.23839173,0,0,0.23839173,934.44079,101.80436)"><path
         d="m 245.36528,32.822685 c -14.02631,-2.365455 -28.59864,1.130516 -42.12249,4.855574 -21.48317,-14.105353 -49.32001,0.132125 -64.7058,17.75476 -5.26569,4.336667 -16.32384,10.096868 -10.49795,18.37063 -2.20839,5.84864 -2.79898,8.600878 1.77178,1.763436 25.86854,2.978128 53.62333,-2.647817 79.22443,-7.954107 8.71706,2.931246 16.41502,9.78467 25.9972,7.43733 9.06047,1.92646 18.86855,3.725058 27.0477,-2.087354 6.22806,-0.252528 20.08418,10.93117 19.86132,-2.074567 C 280.0147,58.421803 255.29669,37.678259 245.36528,32.822685 Z"
         id="path9"
         fill="#fafbf6"
         style="fill:#fafbf6;fill-opacity:1" /><path
         d="m 255.8834,72.8453 c -15.228,1.685 -30.671,-0.791 -43.422,-9.633 -1.331,-0.923 -2.643,-0.913 -3.713,-0.372 -1.301,-0.144 -2.632,0.375 -3.404,1.861 -3.202,6.167 -13.815,4.793 -19.649,4.919 -19.083,0.368 -38.832,-0.685 -57.197,5.084 17.564,-34.334 41.855,-49.156 79.442,-35.677 -3.394,2.733 13.542,-3.665 15.028,-3.787 26.006,-6.516 47.461,15.296 57.942,36.91 -7.929,-1.887 -16.814,-0.214 -25.027,0.695 m 36.324,5.843 c -11.467,-25.829 -34.077,-54.229 -65.614,-49.765 -6.475,0.953 -13.286,5.376 -19.805,4.578 -18.875,-6.971 -34.455,-10.513 -53.358,0.759 -8.02,0.599 -53.152,56.476 -31.705,51.914 26.326,-15.118 72.1,-0.878 88.448,-14.4 32.095,21.069 58.191,-1.818 76.279,11.352 3.145,2.885 7.556,-0.708 5.755,-4.438"
         id="path10"
         fill="#0f0f1b"
         style="fill:#0f0f1b;fill-opacity:1" /></g></g><path
     d="m 11.587366,239.58946 c 28.20905,4.28475 56.92983,4.50024 85.37328,2.94431 11.256844,-0.84275 22.548184,-0.99454 33.795994,0.0829 6.64627,0.49424 35.78717,2.72169 38.16807,-3.23105 -1.4985,-31.69837 -4.5335,-63.66665 -13.8439,-94.15262 -3.829,-10.8248 -7.1176,-19.80924 -14.5907,-28.76697 -2.3553,-2.44574 -7.4346,-7.57521 -10.34497,-9.24817 -2.52149,-1.44905 -3.57538,-0.9321 -5.02321,-3.37979 -1.43875,-2.70392 -2.49995,-7.219689 -4.54283,-9.127659 -2.08002,-1.94265 -5.16257,-1.24761 -8.98327,-0.6219 0.70193,-9.48557 -3.67658,-11.90138 -9.70857,-13.70519 -10.602794,-4.04659 -21.074144,-2.0137 -23.742734,10.89345 -4.94808,0 -7.7275,2.12933 -10.73227,4.17532 -1.2283,0.83636 -0.37384,2.96722 -1.84099,3.62458 -2.71448,0.966459 -7.51136,0.72973 -10.12498,1.919169 -11.8851,5.40878 -22.47076,13.25229 -29.42262,24.70727 -15.58525,24.45657 -26.29111045,75.97461 -24.4385105,104.96122 -0.81168995,1.27286 0.31074,3.09804 0.59604,4.46677 0.36012,1.19059 1.52632,1.98259 2.74342,1.84721 1.69841,1.82648 4.32539,2.23306 6.6627505,2.61114 z"
     id="path11"
     fill="#fafbf6"
     style="fill:#565a75;fill-opacity:1;fill-rule:evenodd;stroke:none;stroke-width:0.215922"
     inkscape:export-filename="grandpa/grandpa_idle0.svg"
     inkscape:export-xdpi="96"
     inkscape:export-ydpi="96" /><path
     style="fill:#c6b7be;fill-opacity:1;stroke:none;stroke-width:2.13543;stroke-dasharray:none;stroke-opacity:1"
     d="m 78.144596,91.425731 -0.10878,6.75593 1.20165,3.696179 4.20652,6.08321 4.99932,6.69248 6.4968,6.64879 1.65204,1.88459 4.327844,6.32209 6.53627,-13.9373 6.94715,-15.20669 -2.1909,-3.674599 -2.30715,-5.81625 z"
     id="path12" /><path
     d="m 128.34899,106.50084 c -0.17317,-0.0965 -0.0207,-0.34396 0.1533,-0.26213 8.36582,3.92459 14.78372,10.81012 19.29952,18.76575 4.676,8.2377 7.3411,17.59059 9.6387,26.732 l 0.083,0.33032 c 2.4501,9.77909 4.5333,19.65923 6.4088,29.56355 1.8994,10.02978 3.4241,20.12174 4.6505,30.25537 0.6067,5.01046 1.1476,10.02978 1.5695,15.05924 0.2108,2.51333 0.4023,5.0286 0.5744,7.54495 0.069,1.00636 0.1335,2.01273 0.189,3.01998 l 0.04,0.75562 c 0.034,0.68534 0.1158,1.3724 -0.054,2.04845 -0.1462,0.58277 -0.4547,1.11049 -0.7261,1.64554 -0.5368,1.05758 -2.0083,0.88333 -2.5868,0 l -0.1679,-0.25731 c -0.3836,-0.59286 -0.7024,-1.14383 -0.8227,-1.88161 -0.1164,-0.71449 -0.1207,-1.46309 -0.173,-2.1847 -0.096,-1.3277 -0.1779,-2.65669 -0.2712,-3.98483 -0.1958,-2.79575 -0.4158,-5.58978 -0.6594,-8.38164 -0.4817,-5.51162 -0.9984,-11.01827 -1.633,-16.51477 -1.1275,-9.76829 -2.5425,-19.51067 -4.2105,-29.20124 -1.6297,-9.46648 -3.69,-18.83691 -5.8393,-28.19557 l -0.2227,-0.96809 c -3.7633,-16.33966 -9.5634,-35.15679 -25.2403,-43.88888 z m -89.108144,63.98241 c 0.0615,-0.16345 0.32626,-0.20102 0.37096,0 0.56355,2.5373 0.61926,5.15059 0.70541,7.74835 0.0849,2.56256 0.0814,5.13677 0.044,7.70084 -0.13776,9.42347 -0.39643,18.83895 -0.62012,28.2609 -0.11185,4.71292 -0.21679,9.42649 -0.29733,14.14006 -0.0304,1.76791 -0.056,3.5357 -0.0773,5.30365 l -0.026,2.33171 c -0.0129,1.0309 -0.04,2.04921 -0.16571,3.0791 -0.0829,0.67735 -0.25954,1.32339 -0.63351,1.904 -0.26541,0.41213 -0.64366,0.62133 -1.01235,0.90139 l -0.069,0.0534 c -0.47028,0.37161 -0.9656,0.3742 -1.43134,0 l -0.13524,-0.10701 c -0.4449,-0.34791 -0.8294,-0.61974 -1.11344,-1.16995 -0.39514,-0.76501 -0.4584,-1.59609 -0.52555,-2.43905 -0.10192,-1.27825 -0.0343,-2.57529 -0.0212,-3.85722 0.0263,-2.57163 0.062,-5.14282 0.10709,-7.71423 0.16562,-9.42951 0.49295,-18.86075 1.08954,-28.27342 0.28106,-4.43366 0.66214,-8.88167 1.17333,-13.29739 l 0.0974,-0.82756 c 0.15503,-1.2992 0.29646,-2.6215 0.45581,-3.94813 -2.37881,-1.67317 -4.4698,-3.70327 -6.25288,-6.00629 -0.13128,-0.1695 0.0849,-0.40722 0.24335,-0.24312 1.82194,1.8865 3.91098,3.3904 6.22372,4.573 0.37894,-2.77697 0.89996,-5.53904 1.87031,-8.11304 z m 39.74092,-84.055259 c 0.0326,-0.0253 0.0836,-0.0363 0.11465,0 0.51131,0.5961 0.40762,1.50751 0.4241,2.2629 l 0.002,0.0703 c 0.0367,1.10444 0.0436,2.20542 0.04,3.31051 l -0.0114,3.51758 v 0 c -0.002,0.48366 -0.0408,0.98712 -0.016,1.47366 l 0.0129,0.18829 v 0 c 0.26861,0.27508 0.39341,0.67259 0.30229,1.07183 -0.0164,0.51217 -0.28415,0.93948 -0.67475,1.20808 l 0.83715,1.187679 v 0 l 0.83797,1.18703 c 1.72715,2.44963 3.47331,4.87745 5.2931,7.25972 1.85563,2.4289 3.8352,4.76625 5.90675,7.01356 1.01202,1.09818 2.04132,2.18103 3.09459,3.23969 0.42801,0.43028 0.86671,0.84987 1.30052,1.27416 l 0.4316,0.42644 c 0.255,0.255 0.57586,0.5072 0.74515,0.83043 0.0995,0.19066 0.12221,0.66051 0.15784,0.73824 0.31956,0.70239 -0.22564,1.82238 -1.13165,1.47194 l 0.0411,-0.0274 c 0.16496,-0.11472 0.0593,-0.11639 -0.31727,-0.005 -0.23752,-8.7e-4 -0.46022,-0.0555 -0.66827,-0.16371 l -0.062,-0.0341 c -0.29299,-0.14888 -0.55452,-0.43705 -0.79257,-0.66748 l -0.059,-0.0563 c -0.54433,-0.51 -1.06319,-1.05089 -1.58486,-1.584 -1.08889,-1.11221 -2.15317,-2.24817 -3.18355,-3.41458 -2.05557,-2.32721 -4.00426,-4.74877 -5.84975,-7.24547 -1.87981,-2.54291 -3.62705,-5.21645 -5.12965,-7.99968 -0.57025,-1.05629 -1.09299,-2.13287 -1.59415,-3.221979 -0.97553,-0.31309 -1.20203,-1.35059 -1.13402,-2.51937 -0.35994,-0.83821 -0.68425,-1.69369 -0.87599,-2.56774 -0.0261,-0.11984 0.12783,-0.23277 0.22002,-0.12804 0.31201,0.35454 0.60091,0.73197 0.87859,1.11912 0.16755,-0.81943 0.37959,-1.57364 0.47935,-2.0545 l 0.43249,-2.12207 v 0 c -2.43711,-0.12697 -5.10763,0.87426 -6.78772,2.62711 -0.0902,0.45646 -0.44156,0.78315 -0.78401,1.20981 -0.39125,0.48777 -0.73262,1.03513 -0.98719,1.60754 -0.56464,1.26875 -0.24594,3.138419 -1.34174,4.069259 -0.11422,0.0969 -0.24183,0.16431 -0.37354,0.20599 0.51997,2.54954 0.284,5.35887 0.27267,7.94543 l -4.3e-4,0.22763 c 0.003,2.89486 -0.0941,5.7921 -0.20599,8.68458 l -0.11379,2.86269 c -0.14745,3.81789 -0.24322,7.63763 0.12782,11.43456 1.69391,-1.50022 3.44546,-2.932 5.25726,-4.29597 1.19131,-0.89709 2.40651,-1.76226 3.64377,-2.59493 l 1.00532,-0.67174 c 1.20467,-0.80782 2.4386,-1.63904 3.7576,-2.21753 1.72522,-0.75637 3.36579,-0.4964 5.03141,0.27941 1.65871,0.77278 3.26797,1.67037 4.89494,2.50793 1.65483,0.85159 3.3131,1.69606 4.9703,2.54269 1.09775,0.56096 2.70636,1.0673 3.51153,2.09984 0.0514,-0.22845 0.1112,-0.45625 0.18116,-0.68318 -0.0799,-0.34612 -0.049,-0.7201 0.1451,-1.07658 2.705504,-4.97117 5.208684,-10.06109 7.694374,-15.14475 1.25817,-2.5727 2.45438,-5.17585 3.71493,-7.74705 l 1.22541,-2.50421 c 0.20476,-0.41716 0.41012,-0.83401 0.61662,-1.25023 0.3092,-0.62315 0.63114,-1.24026 0.94379,-1.861889 0.13214,-0.26263 0.29776,-0.5235 0.42642,-0.78862 l 0.0609,-0.13294 c 0.003,-0.007 0.29985,-0.94058 0.0705,-0.85159 l -0.0198,0.01 c -0.11703,0.0663 -0.21074,-0.081 -0.13495,-0.1749 0.32431,-0.40097 0.77602,-0.0458 0.96107,0.32539 0.50988,1.02147 -0.42436,2.624919 -0.78373,3.603029 l -0.0197,0.0547 c -1.11523,3.15655 -2.37794,6.25395 -3.67174,9.34055 -2.48073,5.91776 -5.14563,11.74462 -7.80471,17.58163 l -0.0315,0.1004 v 0 c 0.56701,-0.43465 1.17245,-0.82913 1.69088,-1.21304 1.30784,-0.96884 2.65389,-1.88996 3.99779,-2.80806 2.46454,-1.68379 4.99589,-3.25655 7.56912,-4.76723 l 0.5152,-0.30132 c 1.28538,-0.74881 2.55867,-1.35598 4.08437,-1.13121 1.41745,0.20893 2.73522,0.9703 4.01574,1.58879 l 0.13233,0.0634 3.95677,1.88111 c -0.42299,-1.68678 -0.88096,-3.36535 -1.3588,-5.03766 -0.93192,-3.26193 -1.95733,-6.49644 -3.06932,-9.70201 -1.03859,-2.99505 -2.16132,-5.95733 -3.34885,-8.896179 l -0.35759,-0.88202 c -0.48418,-1.21002 -0.96563,-2.52948 -2.34952,-2.90201 -1.38297,-0.37247 -2.96935,0.17986 -4.23336,-0.60847 -0.11487,-0.0717 -0.10062,-0.26105 0.0387,-0.29603 l 0.77996,-0.19658 c 1.46443,-0.36429 3.18122,-0.73075 4.56605,-0.37648 1.50691,0.38607 2.75365,1.65073 3.48476,2.96547 0.81291,1.46255 1.38594,3.09931 2.00288,4.658879 l 0.0978,0.24557 c 0.708,1.76494 1.38902,3.54046 2.04067,5.32721 1.30287,3.57135 2.48896,7.18566 3.56246,10.83258 0.5174,1.7576 1.00817,3.52362 1.47997,5.29396 0.1356,0.50915 0.3592,1.12647 0.5428,1.77034 0.2103,0.20513 0.4094,0.43401 0.5961,0.69505 0.3099,0.43314 0.087,0.94099 -0.2977,1.20031 -0.015,0.44307 -0.1134,0.8598 -0.3487,1.21694 -0.9188,1.39464 -3.34767,1.03534 -3.24897,-0.83951 0.015,-0.28696 0.1267,-0.56096 0.296,-0.79243 v -0.0376 0 l -0.019,-0.0687 v 0 c -0.4217,-0.20211 -0.84509,-0.42731 -1.2914,-0.64777 l -4.15261,-2.0519 v 0 c -1.20268,-0.59443 -2.53578,-1.51275 -3.8732,-1.73925 -1.24683,-0.21112 -2.56233,0.71782 -3.63374,1.2783 l -0.0695,0.036 c -2.58998,1.32749 -5.16074,2.69902 -7.72136,4.08179 -1.24997,0.67518 -2.48374,1.37844 -3.72896,2.06162 -1.04118,0.57132 -2.16483,1.3914 -3.33513,1.71377 -0.49986,0.38866 -1.09364,0.33662 -1.57083,0.0427 0.21808,1.35059 0.2047,2.73659 0.27163,4.11741 0.09,1.84598 0.10377,3.69709 0.13347,5.54558 l 0.0121,0.69304 c 0.0786,4.08653 0.1207,8.17415 0.13625,12.26154 0.0553,14.55485 -0.10559,29.11401 -0.14316,43.66885 -0.019,7.31283 -0.16388,14.63193 -0.35389,21.94196 -0.0806,3.09754 -0.24896,6.19137 -0.430854,9.28425 l -0.10011,1.68694 c -0.21182,3.55947 -0.33683,7.15823 -0.99583,10.66976 -0.0859,0.45797 -0.86109,0.46963 -0.9371,0 -0.60647,-3.7627 -0.6402,-7.60795 -0.7568,-11.41478 l -0.0246,-0.76082 c -0.14013,-4.0874 -0.20663,-8.1722 -0.19238,-12.26176 0.0518,-14.56067 0.43033,-29.11227 0.73996,-43.66885 0.15568,-7.31369 0.2604,-14.63063 0.50223,-21.94195 0.12092,-3.65836 0.25781,-7.31434 0.42019,-10.97119 0.0725,-1.63275 0.14229,-3.26384 0.25073,-4.89415 l 0.049,-0.69865 c 0.0337,-0.45581 0.0609,-0.90601 0.0939,-1.35211 -1.47323,0.53808 -2.82058,-0.45818 -4.14591,-1.13985 -1.52743,-0.78573 -3.05421,-1.57277 -4.58229,-2.357 l -1.52929,-0.78286 v 0 l -3.06055,-1.56161 c -1.37801,-0.70326 -2.4397,-1.40306 -3.90948,-0.57824 -5.29504,2.97065 -10.16084,6.92331 -14.57039,11.07095 -0.84555,0.79545 -2.6323,0.58169 -2.8465,-0.75141 -0.91493,-5.69505 -0.35848,-11.47253 0.10864,-17.18484 l 0.17219,-2.12077 c 0.20867,-2.53301 0.43592,-5.06604 0.73875,-7.58872 0.13543,-1.12849 0.27031,-2.2563 0.41955,-3.38263 l 0.11485,-0.84447 c 0.18656,-1.33504 0.30834,-2.6621 0.70606,-3.94251 -0.12545,-0.0406 -0.24615,-0.1071 -0.35411,-0.20944 -1.19578,-1.134459 -0.61926,-3.103009 -0.0736,-4.452519 0.53873,-1.33202 1.36031,-2.49455 2.38917,-3.49513 0.22435,-0.21851 0.54067,-0.35908 0.85851,-0.36642 2.49454,-1.65266 5.23113,-2.47748 8.07935,-1.57536 0.08,-0.38251 0.16158,-0.7644 0.24747,-1.14533 l 0.0874,-0.38059 c 0.22153,-0.94509 0.3038,-2.5062 1.11912,-3.13842 z M 104.54812,235.67705 c 0.77408,-0.2129 1.62157,0.0114 2.1888,0.57867 0.56701,0.56722 0.79157,1.4145 0.57823,2.18858 -0.10666,0.3811 -0.29948,0.71189 -0.57823,0.9928 -0.26065,0.25885 -0.56468,0.44359 -0.91191,0.55424 l -0.0809,0.0242 -0.12653,0.0527 c -0.38801,0.10429 -0.77624,0.10429 -1.16403,0 -0.37096,-0.10407 -0.6929,-0.29171 -0.96625,-0.5629 -0.27142,-0.27336 -0.45905,-0.5953 -0.56313,-0.96647 -0.10429,-0.38801 -0.10429,-0.77602 0,-1.16403 l 0.0529,-0.12653 v 0 c 0.10667,-0.3811 0.29949,-0.71211 0.57824,-0.99259 0.2807,-0.27876 0.61171,-0.47179 0.99281,-0.57867 z m 45.96309,-77.13554 c 0.1271,-0.14596 0.3333,0.041 0.2543,0.19627 -1.2057,2.3637 -2.5496,4.71055 -3.8704,7.01422 0.1058,0.63848 0.2108,1.27178 0.3315,1.8891 0.5145,2.63122 1.1448,5.21493 1.5557,7.8712 1.4769,9.54784 2.2436,19.19932 2.9015,28.83288 0.6599,9.6681 0.7443,19.34053 0.8434,29.02764 0.01,0.8395 -0.6372,1.81525 -1.5026,1.97352 -0.3962,0.0723 -0.6927,0.0583 -1.088,0 -0.9006,-0.13258 -1.464,-1.16425 -1.5026,-1.97352 -0.2583,-5.41402 -0.6057,-10.82113 -1.0081,-16.22673 -0.7135,-9.58346 -1.1494,-19.19198 -1.7257,-28.78537 l -0.203,-3.35291 c -0.2178,-3.63309 -0.417,-7.2687 -0.4819,-10.9072 -0.043,-2.41055 0.086,-4.82045 0.01,-7.22819 -0.073,-2.22292 -0.2986,-4.63994 0.1915,-6.82399 0.018,-0.0818 0.1475,-0.10256 0.1849,-0.0242 0.5095,1.07269 0.8323,2.23867 1.0811,3.42883 1.3132,-1.66087 2.6506,-3.32541 4.0319,-4.91157 z M 64.488756,99.822101 c 0.1844,-0.0132 0.17706,0.263799 0,0.284309 -2.57723,0.29893 -5.06691,1.3477 -7.50039,2.23911 l -0.20844,0.076 c -2.45849,0.89197 -4.85543,1.92926 -7.16212,3.16563 -4.50996,2.41746 -8.65133,5.5345 -12.31293,9.10282 -14.61897,14.24478 -21.28124,34.78627 -26.16301,54.09009 -2.7124005,10.72504 -4.6412305,21.63146 -5.8914205,32.62144 -0.61818,5.43518 -1.05521,10.89108 -1.30999,16.35541 -0.13042,2.80051 -0.21269,5.6036 -0.24702,8.40691 -0.0177,1.43588 -0.0229,2.87219 -0.0212,4.30807 8.7e-4,0.65813 0.11833,1.48662 -0.0576,2.12553 -0.16323,0.59184 -0.62358,1.11308 -0.96409,1.60624 -0.40356,0.58515 -1.12884,0.55427 -1.53801,0 l -0.15087995,-0.20173 c -0.43639,-0.57883 -0.86337,-1.13229 -0.9257,-1.88882 -0.0667,-0.811 -0.0196,-1.64705 -0.0227,-2.46172 -0.007,-1.64122 0.0134,-3.28266 0.0462,-4.92345 0.0633,-3.14511 0.1872,-6.28893 0.37138,-9.4293 0.37398,-6.37292 0.98956995,-12.73289 1.87095995,-19.05573 1.56673,-11.23872 3.91509,-22.37012 6.99111,-33.2923 2.9019905,-10.30356 6.3398905,-20.57668 11.2374305,-30.12085 4.54731,-8.86142 10.51279,-17.10509 18.38443,-23.29816 3.66052,-2.87996 7.64535,-5.28014 11.94154,-7.08762 2.16678,-0.91162 4.44216,-1.65591 6.75619,-2.08019 2.28834,-0.419539 4.56674,-0.36102 6.87624,-0.541689 z M 104.99175,217.46486 c 0.40874,-0.003 0.86455,0.0868 1.21521,0.31287 l 0.46855,0.3621 v 0 c 0.12696,0.16302 0.25327,0.32669 0.37916,0.49079 0.293,0.38175 0.33187,0.9995 0.27076,1.45445 -0.0138,0.3038 -0.10407,0.58622 -0.27076,0.84814 l -0.35671,0.46185 v 0 c -0.34288,0.27962 -0.62876,0.47913 -1.04398,0.61365 -0.21706,0.0702 -0.42608,0.0849 -0.63446,0.0742 l -0.0694,-0.004 0.0417,0.006 -0.073,-0.008 v 0 c -0.0678,-0.006 -0.13581,-0.0132 -0.20405,-0.0225 -0.0464,-0.006 -0.0931,-0.009 -0.13948,-0.0158 -0.0447,-0.004 -0.0879,-0.005 -0.13301,-0.001 -0.52771,0.0497 -1.05823,-0.24961 -1.43285,-0.59336 -0.33749,-0.30984 -0.64043,-0.96689 -0.59336,-1.43264 l 0.0201,-0.19464 c 0.0356,-0.32837 0.0647,-0.45756 0.20384,-0.78737 0.13516,-0.32086 0.32409,-0.60393 0.58126,-0.84317 0.4923,-0.45797 1.09494,-0.71557 1.77055,-0.72032 z m -1.63351,-24.02845 c 0.70045,-0.76328 1.90335,-0.81942 2.772,-0.35778 0.21161,0.11271 0.40593,0.29343 0.59249,0.44415 0.47006,0.38002 0.65468,1.06557 0.68059,1.64316 0.0257,0.57111 -0.27552,1.24932 -0.68059,1.6436 l -0.0982,0.0952 v 0 c -0.24205,0.23535 -0.58882,0.44005 -0.92739,0.50223 -0.54606,0.1004 -1.00468,0.0974 -1.51318,-0.11724 -0.43693,-0.18431 -0.8134,-0.48063 -1.06956,-0.88272 l -0.0416,-0.068 c -0.0175,-0.0282 -0.0342,-0.0569 -0.0497,-0.0862 l -0.0226,-0.0444 c -0.48669,-0.9358 -0.35584,-1.99512 0.35778,-2.772 z m 0.36279,-24.15504 c 0.31589,-0.0991 0.63157,-0.11315 0.94747,-0.0423 0.21441,4.3e-4 0.41435,0.0546 0.59961,0.16194 0.20124,0.0563 0.37614,0.15827 0.52426,0.30574 0.17835,0.10537 0.32064,0.24745 0.42623,0.42602 0.21009,0.22952 0.35173,0.49877 0.42536,0.80797 l 0.0846,0.63157 -0.0846,0.63179 -0.23967,0.56766 v 0 c -0.0659,0.0859 -0.13214,0.17187 -0.19908,0.25738 -0.1058,0.179 -0.24831,0.32172 -0.42731,0.42752 -0.11638,0.11574 -0.24982,0.20232 -0.39902,0.26235 -0.52901,0.37916 -1.23378,0.50288 -1.8606,0.33014 -0.37225,-0.10407 -0.69548,-0.29257 -0.96949,-0.56485 -0.27227,-0.27422 -0.46077,-0.59745 -0.56485,-0.96949 l -0.0429,-0.29714 c -0.0553,-0.39856 -0.0641,-0.61933 0.0488,-1.126 0.0495,-0.22283 0.19304,-0.53699 0.26818,-0.66935 0.32129,-0.56485 0.84619,-0.952 1.46308,-1.14093 z m 27.42911,-17.37783 c 0.90697,-0.006 1.81407,-0.005 2.72097,0.005 l 0.6802,0.009 c 1.139,0.0179 2.1145,-0.0995 3.0099,0.69073 0.6499,0.57349 0.3636,1.53564 -0.2533,1.9677 -0.9347,0.65424 -2.1071,0.32517 -3.1816,0.25306 -1.1331,-0.076 -2.2671,-0.13906 -3.40157,-0.19002 -2.19656,-0.0982 -4.394,-0.16086 -6.59272,-0.17057 -2.19398,-0.009 -4.3912,0.0114 -6.58497,0.0469 -2.23219,0.0363 -4.55637,0.24421 -6.77605,0.0132 -0.30488,-0.0317 -0.37354,-0.4327 -0.0726,-0.53699 2.09163,-0.72356 4.44453,-0.95805 6.63657,-1.23464 2.26091,-0.28567 4.52183,-0.48777 6.797,-0.61884 2.33691,-0.13408 4.67729,-0.21851 7.01807,-0.23492 z m -27.43326,-7.10684 0.0748,0.002 c 0.39923,0.001 0.77287,0.0949 1.12129,0.28177 l 0.0743,0.0415 0.47935,0.37009 c 0.29344,0.29581 0.49662,0.64409 0.6089,1.04528 l 0.0846,0.62962 v 0 c 0.0125,0.32605 -0.0557,0.63006 -0.20383,0.91249 -0.0957,0.29365 -0.25889,0.54758 -0.48971,0.7622 -0.21463,0.23082 -0.46877,0.39406 -0.7622,0.48971 -0.2607,0.13673 -0.5398,0.20538 -0.83781,0.20546 l -0.0749,-0.002 c -0.4273,-0.002 -0.8259,-0.10926 -1.19512,-0.32345 l -0.47956,-0.37031 v 0 c -0.29344,-0.2956 -0.49662,-0.64388 -0.6089,-1.04506 l -0.0849,-0.62963 v 0 c -0.0121,-0.32604 0.0557,-0.63049 0.20426,-0.91248 0.0954,-0.29366 0.25868,-0.5478 0.4895,-0.76242 0.21462,-0.23082 0.46855,-0.39406 0.76242,-0.4895 0.2605,-0.13692 0.53958,-0.20541 0.83742,-0.20529 z m 7.0215,-55.636609 c 0.51022,-0.7391 1.43501,-0.0818 1.30265,0.51238 0.035,1.66886 0.12027,3.28849 0.50008,4.92323 0.17381,0.74838 0.40161,1.49763 0.75291,2.18318 l 0.14755,0.28868 c 0.45475,0.89838 0.80775,1.74565 0.19534,2.7312 -0.28869,0.464669 -0.81036,0.813599 -1.37585,0.789199 -2.50793,-0.10818 -2.85255,-3.598979 -3.00499,-5.547679 -0.15719,-2.00699 0.33166,-4.21263 1.48231,-5.88019 z"
     id="path13"
     fill="#0f0f1b"
     style="fill-rule:evenodd;stroke:none;stroke-width:0.215922;fill:#0f0f1b;fill-opacity:1" /><path
     d="m 130.93664,29.514208 c -7.63011,-20.07396 -21.38419,-34.77141 -44.571504,-25.54004 -0.66518,-0.45285 -1.53314,-0.5743 -2.36489,-0.044 -12.631,7.93117 -21.72682,20.64675 -25.66866,34.98505 -2.39893,0.4561 -4.72998,1.25163 -6.81205,2.55617 -4.52503,2.8353 -7.5694,7.34689 -10.42314,11.74092 -0.8582,1.32103 -0.0636,3.50807 1.54919,3.80802 0.70053,0.13056 1.39477,0.2082 2.0851,0.22859 -0.16808,0.61009 -0.3893,1.19958 -0.67103,1.74026 -1.02,1.957153 0.907,4.035103 2.71298,3.500053 0.2004,0.10605 0.41034,0.19324 0.62787,0.25874 0.0247,1.1087 0.59448,2.59282 1.72205,2.81686 1.82354,0.39126 4.24699,-1.00438 3.81669,-3.04394 0.55088,0.0969 1.09981,0.10909 1.63486,0.0419 0.0599,1.06207 0.0412,2.17034 0.18782,3.15 0.47931,4.61698 5.09239,7.7184 9.49163,6.31387 0.2698,1.43858 0.58667,3.45992 2.00356,4.24026 1.65655,4.64714 4.51701,9.95056 9.2021,12.06798 -0.41707,1.06858 -0.19086,2.36857 1.06532,3.08363 8.57574,4.88918 18.86897,6.54355 28.564474,4.72586 3.87482,-0.23076 7.65009,-1.10631 11.27375,-2.97172 2.6425,-1.36028 5.07179,-3.08775 7.44318,-4.86857 2.37269,-1.78147 4.90956,-3.51609 6.8034,-5.82914 2.05687,-2.51215 3.01437,-5.46782 3.63577,-8.61369 2.8474,-14.279313 1.8639,-28.300063 -3.30847,-41.902483 -6.40263,-16.83766 6.40037,14.39403 0,-2.44451 z"
     id="path14"
     fill="#fafbf6"
     style="fill:#c6b7be;fill-opacity:1;fill-rule:evenodd;stroke:none;stroke-width:0.216882" /><path
     style="fill:#fafbf6;fill-opacity:1;stroke:none;stroke-width:2.13543;stroke-dasharray:none;stroke-opacity:1"
     d="m 48.886696,43.433118 -3.70907,3.00277 -2.73376,4.72849 c 0,0 -1.22657,1.83456 -1.34747,2.0479 -0.12089,0.21334 0.0417,2.68763 0.0417,2.68763 l 0.98542,0.94652 1.70014,0.34334 1.13377,-0.59487 -0.47896,2.97877 -0.70133,0.599513 1.21368,2.05186 1.19084,0.34953 1.27538,-0.51652 0.10549,1.71859 1.03128,1.57141 1.97576,0.18824 1.79522,-1.01179 0.62454,-1.50467 1.58477,-0.45707 0.87665,-3.055443 2.6235,-4.32616 2.80949,-1.63988 2.8213,-1.53843 1.56549,-0.53177 1.40091,0.66253 1.52001,2.22445 1.2536,2.27662 1.00246,0.94828 2.0638,0.47306 1.57627,-0.22346 1.05434,-0.94688 -1.21702,-4.54804 -0.22788,-3.98534 -0.70042,-2.34088 -4.17283,-5.25975 -3.84891,-1.99612 -4.65644,-1.01889 -4.32763,1.10964 -4.75663,1.86992 -2.41395,2.77499 z"
     id="path15" /><path
     d="m 94.048836,0.06243802 c 3.90496,-0.27566 7.881064,0.38258 11.599734,1.56002998 5.93086,1.87734 11.37764,5.19043 15.85257,9.50356 4.61199,4.445 8.0229,9.9254 10.09687,15.97837 2.5011,7.29982 2.8755,15.09413 3.5795,22.71428 0.3556,3.85003 0.9416,7.64134 1.5508,11.454063 l 0.096,0.6022 c 0.5951,3.71476 0.93,7.47181 0.1078,11.18071 -1.3668,6.16423 -5.4641,11.39673 -10.32766,15.26309 -9.99111,7.94266 -25.5446,12.784979 -37.177514,5.47627 -1.79969,-1.13082 -0.0944,-4.02251 1.66262,-2.84419 1.23644,0.82957 2.54641,1.55678 3.95116,2.05886 5.869264,2.09747 12.315224,1.35031 18.115954,-0.60076 5.71636,-1.92266 11.20153,-5.17134 15.41945,-9.50638 4.43039,-4.55344 6.88579,-10.17785 6.53099,-16.57761 -0.2115,-3.8078 -1.079,-7.545113 -1.5605,-11.321903 -0.4265,-3.34504 -0.6822,-6.70822 -0.977,-10.0668 l -0.108,-1.20805 c -0.625,-6.84278 -1.52247,-13.87326 -4.6359,-20.08457 -2.61885,-5.22556 -6.45355,-9.87443 -11.06446,-13.4647 -4.82736,-3.75878 -10.59318,-6.38761 -16.64289,-7.36814 -7.114174,-1.15294 -13.924274,0.94366 -19.858824,4.84667 -5.26329,3.46144 -9.78832,8.0871 -13.258,13.33565 -1.68258,2.54489 -3.11595,5.26265 -4.3537,8.0498 -1.16639,2.62601 -1.97059,5.37824 -2.90861,8.08493 0.77189,-0.023 1.55657,0.007 2.35339,0.0948 4.08693,0.45285 7.89473,2.57092 10.31883,5.91069 2.96239,4.08107 2.16166,9.09062 3.31873,13.7319 0.0896,0.36024 -0.0627,0.71289 -0.37131,0.9122 -1.75436,1.13386 -4.10232,1.1716 -5.80029,-0.10518 -1.47372,-1.10805 -2.16557,-3.1114 -1.56893,-4.86185 0.0779,-0.22816 0.41013,-0.18782 0.41945,0.0568 0.11213,2.97887 2.87586,5.27284 5.58493,3.8553 -1.16205,-4.00213 -0.55044,-8.47186 -2.92725,-12.08685 -4.20687,-6.39802 -12.91252,-6.6624 -19.02708,-3.05565 -3.218,1.89787 -5.76512,4.75161 -7.66178,7.94359 l -0.54642,0.92664 c -0.72702,1.2381 -1.49696,2.63873 -1.6478,4.00216 -0.087,0.78685 0.20344,1.5262 1.1061,1.12974 0.73025,-0.32055 1.29566,-1.06858 1.72942,-1.71164 0.73977,-1.09677 2.43973,-0.14923 1.82868,1.01871 l -0.0208,0.0382 c -0.8893,1.57551 -1.43681,3.31168 -1.53736,5.120633 l -0.0255,0.50093 c -0.0168,0.36509 -0.0288,0.88397 0.0484,0.90291 0.0926,0.0228 0.7361,-0.72005 0.84324,-0.82286 0.51618,-0.49579 1.04776,-0.90092 1.76629,-1.033003 0.94455,-0.17312 1.89755,0.995543 1.07763,1.761693 l -0.0342,0.0308 c -0.73176,0.63611 -0.69923,1.90466 0.10909,2.49956 1.14082,0.8396 2.54532,-0.5308 2.71089,-1.65911 l 0.006,-0.0417 c 0.1464,-1.21909 1.8396,-1.26225 1.93155,0 0.19975,2.73923 -3.06151,5.03514 -5.54285,3.65317 -0.98118,-0.54611 -1.60493,-1.54616 -1.80034,-2.61799 -0.31318,0.16548 -0.65108,0.28021 -1.00829,0.31188 -1.16292,0.10302 -1.98968,-0.71463 -2.17771,-1.81205 -0.21905,-1.27852 -0.0891,-2.647483 0.24768,-3.975233 -0.63156,0.15225 -1.29587,0.0941 -1.96365,-0.29128 -2.02026,-1.16574 -1.4401,-3.75878 -0.67733,-5.50945 3.25649,-7.47246 10.00326,-14.25285 18.3619,-14.79115 0.0458,-1.31843 0.22447,-2.56485 0.51683,-3.88501 2.85894,-12.91295 12.12068,-24.8701 24.17825,-30.45872 3.222,-1.49345 6.63898,-2.49804998 10.19129,-2.74897998 z m -31.62004,51.58234998 0.11459,-0.0258 c 1.30266,-0.28067 4.7308,-0.61038 4.31762,1.58173 -0.0195,0.10302 -0.16939,0.0904 -0.19606,0 -0.4047,-1.37828 -3.15391,-0.27609 -3.95659,0.0557 -1.10653,0.45719 -2.1981,1.1317 -3.10163,1.91572 -1.97818,1.71684 -3.3042,4.13638 -3.5059,6.764123 -0.19997,2.6067 0.5563,5.42227 2.43667,7.30784 0.92175,0.92414 2.09834,1.55158 3.42002,1.59777 1.18743,0.0412 2.49935,-0.88314 3.59504,-0.3418 0.21601,0.1067 0.38713,0.39971 0.36761,0.64088 -0.0369,0.45654 -0.24117,0.81201 -0.54524,1.08767 1.83439,3.3428 3.33565,6.88102 5.67559,9.92084 1.1742,1.52512 2.50478,2.93745 4.01146,4.13941 0.71614,0.57149 1.49475,1.07335 2.29765,1.51427 0.94083,0.51727 1.75501,0.84086 2.42647,1.71706 0.57257,0.74716 -2.1e-4,2.19181 -0.94408,2.32064 -2.22283,0.30277 -4.38298,-1.49432 -6.0148,-2.84051 -1.6303,-1.3451 -3.03939,-3.00425 -4.20383,-4.76468 -2.23605,-3.38054 -3.76573,-7.36857 -4.37733,-11.40323 -0.71008,0.22512 -1.5095,0.29387 -2.11092,0.29517 -1.60015,0.004 -3.12809,-0.57191 -4.38557,-1.54463 -4.60354,-3.56055 -5.11517,-10.871 -1.86649,-15.481043 1.55461,-2.20591 3.91689,-3.83578 6.54572,-4.45715 z m 0.0288,8.478793 c 1.0675,-0.0937 2.13412,0.0748 3.13743,0.43875 l 0.4136,0.14993 c 0.8737,0.31946 1.8037,0.69508 2.43471,1.35003 0.96404,1.00112 0.004,2.73575 -1.36917,2.35208 -1.5184,-0.42422 -2.75247,-1.70296 -4.27042,-2.23931 -1.35682,-0.4793 -2.89365,-0.41142 -4.09778,0.41403 -0.15897,0.10909 -0.36805,-0.10605 -0.26416,-0.26438 0.9211,-1.40257 2.37529,-2.05734 4.01579,-2.20113 z"
     id="path16"
     fill="#0f0f1b"
     style="fill-rule:evenodd;stroke:none;stroke-width:0.216882;fill:#0f0f1b;fill-opacity:1" /><path
     d="m 130.52204,61.452471 c -2.60837,2.69516 -6.96274,3.46857 -10.43304,2.02313 -8.91068,-3.72294 -4.54922,-15.335003 2.32284,-18.453403 0.8585,-0.21398 2.0051,-0.72164 3.05072,-0.83679 0.0945,-0.0464 0.30034,0.0879 0.54977,-0.0391 7.57758,0.84603 9.30318,12.60892 4.50971,17.306163 m -28.74078,0.68985 c -2.925484,3.88021 -8.364354,5.0773 -12.808084,3.27351 -8.77877,-3.4572 -5.6651,-13.754243 0.34116,-17.791073 12.687774,-4.76749 17.927064,7.36319 12.466924,14.517563 M 82.750776,53.544888 c -0.008,-0.004 -0.0164,-0.005 -0.0247,-0.009 0.0464,-0.0204 0.0928,-0.0408 0.139,-0.0616 -0.0151,0.0393 -0.0313,0.0783 -0.046,0.11753 -0.0228,-0.0157 -0.0428,-0.0339 -0.0683,-0.0462 m 53.810834,-4.1943 c -0.7163,10e-4 -1.751,0.11922 -2.3439,0.61615 -1.4622,-4.9312 -6.85939,-9.49503 -11.5532,-6.16718 -3.69632,1.18871 -6.43917,3.82501 -7.99805,7.3299 -2.81073,-1.67188 -7.23041,-0.95798 -9.66776,1.25294 -1.59626,-5.27452 -5.524814,-7.1215 -10.200794,-7.39413 -5.10372,-0.83594 -10.19069,4.12063 -11.77791,8.09687 -1.31977,-0.15017 -3.29178,-0.57018 -4.53334,0.24426 -8.05798,-2.11316 -22.14607,-3.27822 -23.78422,-2.10413 -1.16743,0.44795 -1.80808,3.20348 -0.17746,3.35214 1.42095,-0.20174 -0.16585,-2.01905 1.26648,-2.21736 7.63174,-0.47307 15.04049,1.06389 22.59144,1.70883 0.67417,0.90684 2.85243,1.2102 4.01449,0.84582 -1.83021,6.745093 2.12067,11.334073 8.04057,12.708613 9.16656,2.10563 17.141604,-6.09435 14.744644,-14.623463 2.7768,-1.38142 5.97081,-1.32212 8.99575,-0.59446 -5.05473,18.602933 24.90606,17.768283 20.22666,-1.80122 3.1141,1.549 3.7904,-0.94099 2.1566,-1.25358"
     id="path17"
     fill="#0f0f1b"
     style="fill-rule:evenodd;stroke:none;stroke-width:0.214839;fill:#0f0f1b;fill-opacity:1" /><path
     d="m 119.33572,70.416481 c -0.69585,0.7217 -1.61496,1.21457 -2.64674,1.52136 -2.59309,0.77103 -5.9018,0.3603 -8.01975,-0.42538 -0.43939,-0.16296 -0.84999,-0.49518 -1.08594,-0.91061 -0.21551,-0.37946 -0.28844,-0.82573 -0.1244,-1.28086 0.0467,-0.12929 0.10352,-0.25623 0.1606,-0.38123 0.15535,-0.34007 0.47199,-0.60464 0.8439,-0.75594 0.38622,-0.15713 0.82546,-0.1892 1.1777,-0.0785 0.0473,0.0148 0.0959,0.0302 0.14556,0.0459 1.34192,0.42301 3.54288,1.12352 5.36631,0.98775 1.09414,-0.0814 2.05654,-0.46804 2.55432,-1.46929 0.26232,-0.52795 0.18967,-1.0501 -0.043,-1.52816 -0.35079,-0.72079 -1.05345,-1.34798 -1.64543,-1.78015 -0.83448,-0.60938 -1.72453,-0.85266 -2.64512,-1.10951 -0.34688,-0.0968 -0.69819,-0.19491 -1.05284,-0.31231 -0.11683,-0.0386 -0.21928,-0.11437 -0.29598,-0.21289 -0.0757,-0.0973 -0.12548,-0.21614 -0.14108,-0.33537 -0.0163,-0.12347 0.004,-0.24659 0.0611,-0.3527 0.053,-0.0984 0.13797,-0.1849 0.26484,-0.2417 1.80107,-0.80693 4.13053,-0.27371 5.88873,0.99575 0.87874,0.63445 1.61167,1.44947 2.0634,2.36021 0.41925,0.84521 0.59737,1.77253 0.43312,2.71821 -0.18392,1.05869 -0.63202,1.89493 -1.25922,2.54541 z M 89.817166,52.411198 c 0.50609,-0.223 0.92193,0.82086 1.02609,1.10548 l 0.2154,0.59049 c 0.35137,0.95209 0.75475,1.92006 1.49361,2.62671 0.61848,0.59167 1.6095,1.0931 2.32698,0.40089 0.68061,-0.65664 0.34881,-1.39629 0.4491,-2.20194 0.18098,-1.45714 2.16791,-2.9135 3.36259,-1.39294 2.698734,3.43555 -1.47672,8.213263 -5.32271,7.375133 -1.95596,-0.42642 -3.53047,-1.994723 -4.17734,-3.859713 l -0.0332,-0.0984 c -0.38723,-1.18154 -0.77884,-3.91122 0.65947,-4.54568 z m 34.825754,2.39267 -0.0186,-0.0436 c -1.28544,-2.92381 3.29997,-4.18037 3.6887,-1.55511 l 0.0247,0.17714 c 0.37817,2.91433 -0.41866,6.833453 -3.98814,7.124003 -4.00687,0.32639 -5.6754,-4.144273 -5.31756,-7.424883 0.0642,-0.58729 0.77678,-0.6685 0.99694,-0.13484 l 0.0468,0.11647 c 0.64695,1.64871 1.26131,4.81945 3.54082,4.81618 1.52298,-0.002 1.45031,-2.05813 1.02641,-3.0754 z m 2.90713,-8.46393 c 2.30327,-0.0817 2.30011,3.52295 0,3.57709 -7.68324,0.18073 -15.37238,0.421 -23.05792,0.46225 l -1.3969,0.009 c -7.219114,0.0484 -14.463014,0.14702 -21.660964,-0.45892 -0.61435,-0.0516 -0.50014,-0.91419 0.0131,-0.87939 7.54631,-1.07403 15.18466,-1.38804 22.788454,-1.79615 7.76442,-0.41688 15.54379,-0.63756 23.31411,-0.91341 z"
     id="-Ink-36"
     fill="#0f0f1b"
     style="fill-rule:evenodd;stroke:none;stroke-width:0.257809;fill:#0f0f1b;fill-opacity:1"
     sodipodi:nodetypes="sssssssscssssssssscssssssccssccsccsscccccsccsscssccscsss" /><g
     id="g20"
     stroke="none"
     stroke-width="1"
     fill="none"
     fill-rule="evenodd"
     transform="matrix(0.23839173,0,0,0.23839173,63.317726,61.521401)"><path
       d="m 245.36528,32.822685 c -14.02631,-2.365455 -28.59864,1.130516 -42.12249,4.855574 -21.48317,-14.105353 -49.32001,0.132125 -64.7058,17.75476 -5.26569,4.336667 -16.32384,10.096868 -10.49795,18.37063 -2.20839,5.84864 -2.79898,8.600878 1.77178,1.763436 25.86854,2.978128 53.62333,-2.647817 79.22443,-7.954107 8.71706,2.931246 16.41502,9.78467 25.9972,7.43733 9.06047,1.92646 18.86855,3.725058 27.0477,-2.087354 6.22806,-0.252528 20.08418,10.93117 19.86132,-2.074567 C 280.0147,58.421803 255.29669,37.678259 245.36528,32.822685 Z"
       id="path19"
       fill="#fafbf6"
       style="fill:#fafbf6;fill-opacity:1" /><path
       d="m 255.8834,72.8453 c -15.228,1.685 -30.671,-0.791 -43.422,-9.633 -1.331,-0.923 -2.643,-0.913 -3.713,-0.372 -1.301,-0.144 -2.632,0.375 -3.404,1.861 -3.202,6.167 -13.815,4.793 -19.649,4.919 -19.083,0.368 -38.832,-0.685 -57.197,5.084 17.564,-34.334 41.855,-49.156 79.442,-35.677 -3.394,2.733 13.542,-3.665 15.028,-3.787 26.006,-6.516 47.461,15.296 57.942,36.91 -7.929,-1.887 -16.814,-0.214 -25.027,0.695 m 36.324,5.843 c -11.467,-25.829 -34.077,-54.229 -65.614,-49.765 -6.475,0.953 -13.286,5.376 -19.805,4.578 -18.875,-6.971 -34.455,-10.513 -53.358,0.759 -8.02,0.599 -53.152,56.476 -31.705,51.914 26.326,-15.118 72.1,-0.878 88.448,-14.4 32.095,21.069 58.191,-1.818 76.279,11.352 3.145,2.885 7.556,-0.708 5.755,-4.438"
       id="path20"
       fill="#0f0f1b"
       style="fill:#0f0f1b;fill-opacity:1" /></g></svg>
