<?xml version="1.0" encoding="UTF-8" standalone="no"?>
<svg
   version="1.0"
   width="899.16632"
   height="1280"
   id="svg24"
   sodipodi:docname="grandpa_disgust0.svg"
   xml:space="preserve"
   inkscape:version="1.3.2 (091e20ef0f, 2023-11-25)"
   xmlns:inkscape="http://www.inkscape.org/namespaces/inkscape"
   xmlns:sodipodi="http://sodipodi.sourceforge.net/DTD/sodipodi-0.dtd"
   xmlns="http://www.w3.org/2000/svg"
   xmlns:svg="http://www.w3.org/2000/svg"><sodipodi:namedview
     id="namedview24"
     pagecolor="#d9cbae"
     bordercolor="#1a1417"
     borderopacity="0.25"
     inkscape:showpageshadow="2"
     inkscape:pageopacity="0.0"
     inkscape:pagecheckerboard="0"
     inkscape:deskcolor="#67413a"
     inkscape:document-units="mm"
     inkscape:zoom="0.30864198"
     inkscape:cx="568.62"
     inkscape:cy="793.8"
     inkscape:window-width="1920"
     inkscape:window-height="1044"
     inkscape:window-x="0"
     inkscape:window-y="0"
     inkscape:window-maximized="1"
     inkscape:current-layer="svg24" /><defs
     id="defs1" /><g
     id="g2"
     transform="matrix(5.2580978,0,0,5.2580978,-1.5569226e-4,-5.0946216e-5)"><path
       d="m 11.587972,239.58946 c 28.209,4.28475 56.9298,4.50024 85.3732,2.94431 11.256898,-0.84275 22.548198,-0.99454 33.795998,0.0829 6.6463,0.49424 35.7872,2.72169 38.1681,-3.23105 -1.4985,-31.69837 -4.5335,-63.66665 -13.8439,-94.15262 -3.829,-10.8248 -7.1176,-19.80924 -14.5907,-28.76697 -2.3553,-2.44574 -7.4346,-7.57521 -10.3449,-9.24817 -2.5216,-1.44905 -3.5755,-0.9321 -5.0233,-3.37979 -1.4387,-2.70392 -2.4999,-7.219689 -4.5428,-9.127659 -2.08,-1.94265 -5.1626,-1.24761 -8.9833,-0.6219 0.7019,-9.48557 -3.6766,-11.90138 -9.7086,-13.70519 -10.602798,-4.04659 -21.074098,-2.0137 -23.742698,10.89345 -4.9481,0 -7.7275,2.12933 -10.7323,4.17532 -1.2283,0.83636 -0.3738,2.96722 -1.841,3.62458 -2.7144,0.966459 -7.5113,0.72973 -10.1249,1.919169 -11.8851,5.40878 -22.4708,13.25229 -29.4227,24.70727 -15.5852,24.45657 -26.29110024,75.97461 -24.4385002,104.96122 -0.81160004,1.27286 0.3108,3.09804 0.5961,4.46677 0.3601,1.19059 1.5263,1.98259 2.7434,1.84721 1.6984,1.82648 4.3254,2.23306 6.6628002,2.61114 z"
       id="path116"
       fill="#d9cbae"
       style="fill:#af4b3b;fill-opacity:1;fill-rule:evenodd;stroke:none;stroke-width:0.215922"
       inkscape:export-filename="grandpa_idle1.svg"
       inkscape:export-xdpi="96"
       inkscape:export-ydpi="96" /><path
       style="fill:#67413a;fill-opacity:1;stroke:none;stroke-width:2.13543;stroke-dasharray:none;stroke-opacity:1"
       d="m 78.145172,91.425731 -0.1088,6.75593 1.2016,3.696179 4.2065,6.08321 4.9994,6.69248 6.4968,6.64879 1.652,1.88459 4.327798,6.32209 6.5363,-13.9373 6.9472,-15.20669 -2.1909,-3.674599 -2.3072,-5.81625 z"
       id="path117" /><path
       d="m 128.34957,106.50084 c -0.1732,-0.0965 -0.021,-0.34396 0.1533,-0.26213 8.3658,3.92459 14.7837,10.81012 19.2995,18.76575 4.676,8.2377 7.3411,17.59059 9.6387,26.732 l 0.083,0.33032 c 2.4501,9.77909 4.5333,19.65923 6.4088,29.56355 1.8995,10.02978 3.4241,20.12174 4.6505,30.25537 0.6068,5.01046 1.1476,10.02978 1.5696,15.05924 0.2107,2.51333 0.4022,5.0286 0.5743,7.54495 0.069,1.00636 0.1335,2.01273 0.189,3.01998 l 0.04,0.75562 c 0.034,0.68534 0.1158,1.3724 -0.054,2.04845 -0.1461,0.58277 -0.4547,1.11049 -0.7261,1.64554 -0.5368,1.05758 -2.0083,0.88333 -2.5867,0 l -0.168,-0.25731 c -0.3836,-0.59286 -0.7023,-1.14383 -0.8227,-1.88161 -0.1164,-0.71449 -0.1207,-1.46309 -0.1729,-2.1847 -0.096,-1.3277 -0.178,-2.65669 -0.2712,-3.98483 -0.1959,-2.79575 -0.4159,-5.58978 -0.6595,-8.38164 -0.4817,-5.51162 -0.9984,-11.01827 -1.633,-16.51477 -1.1275,-9.76829 -2.5425,-19.51067 -4.2104,-29.20124 -1.6298,-9.46648 -3.6901,-18.83691 -5.8394,-28.19557 l -0.2226,-0.96809 c -3.7633,-16.33966 -9.5634,-35.15679 -25.2404,-43.88888 z m -89.108198,63.98241 c 0.062,-0.16345 0.3263,-0.20102 0.371,0 0.5635,2.5373 0.6192,5.15059 0.7054,7.74835 0.085,2.56256 0.081,5.13677 0.044,7.70084 -0.1378,9.42347 -0.3964,18.83895 -0.6201,28.2609 -0.1119,4.71292 -0.2168,9.42649 -0.2973,14.14006 -0.031,1.76791 -0.056,3.5357 -0.077,5.30365 l -0.026,2.33171 c -0.013,1.0309 -0.04,2.04921 -0.1658,3.0791 -0.083,0.67735 -0.2595,1.32339 -0.6335,1.904 -0.2654,0.41213 -0.6436,0.62133 -1.0123,0.90139 l -0.069,0.0534 c -0.4703,0.37161 -0.9656,0.3742 -1.4314,0 l -0.1352,-0.10701 c -0.4449,-0.34791 -0.8294,-0.61974 -1.1134,-1.16995 -0.3952,-0.76501 -0.4584,-1.59609 -0.5256,-2.43905 -0.1019,-1.27825 -0.034,-2.57529 -0.021,-3.85722 0.026,-2.57163 0.062,-5.14282 0.1071,-7.71423 0.1656,-9.42951 0.493,-18.86075 1.0895,-28.27342 0.2811,-4.43366 0.6622,-8.88167 1.1734,-13.29739 l 0.097,-0.82756 c 0.155,-1.2992 0.2964,-2.6215 0.4558,-3.94813 -2.3788,-1.67317 -4.4698,-3.70327 -6.2529,-6.00629 -0.1313,-0.1695 0.085,-0.40722 0.2433,-0.24312 1.822,1.8865 3.911,3.3904 6.2238,4.573 0.3789,-2.77697 0.8999,-5.53904 1.8703,-8.11304 z m 39.7409,-84.055259 c 0.033,-0.0253 0.084,-0.0363 0.1147,0 0.5113,0.5961 0.4076,1.50751 0.4241,2.2629 v 0.0703 c 0.037,1.10444 0.044,2.20542 0.04,3.31051 l -0.011,3.51758 v 0 c 0,0.48366 -0.041,0.98712 -0.016,1.47366 l 0.013,0.18829 v 0 c 0.2686,0.27508 0.3934,0.67259 0.3023,1.07183 -0.016,0.51217 -0.2842,0.93948 -0.6748,1.20808 l 0.8372,1.187679 v 0 l 0.838,1.18703 c 1.7271,2.44963 3.4733,4.87745 5.2931,7.25972 1.8556,2.4289 3.8352,4.76625 5.9067,7.01356 1.012,1.09818 2.0413,2.18103 3.0946,3.23969 0.428,0.43028 0.8667,0.84987 1.3005,1.27416 l 0.4316,0.42644 c 0.255,0.255 0.5759,0.5072 0.7452,0.83043 0.1,0.19066 0.1222,0.66051 0.1578,0.73824 0.3196,0.70239 -0.2256,1.82238 -1.1316,1.47194 l 0.041,-0.0274 c 0.1649,-0.11472 0.059,-0.11639 -0.3173,-0.005 -0.2375,-8.7e-4 -0.4602,-0.0555 -0.6683,-0.16371 l -0.062,-0.0341 c -0.293,-0.14888 -0.5545,-0.43705 -0.7926,-0.66748 l -0.059,-0.0563 c -0.5443,-0.51 -1.0631,-1.05089 -1.5848,-1.584 -1.0889,-1.11221 -2.1532,-2.24817 -3.1836,-3.41458 -2.0555,-2.32721 -4.0042,-4.74877 -5.8497,-7.24547 -1.8798,-2.54291 -3.6271,-5.21645 -5.1297,-7.99968 -0.5702,-1.05629 -1.093,-2.13287 -1.5941,-3.221979 -0.9755,-0.31309 -1.202,-1.35059 -1.134,-2.51937 -0.36,-0.83821 -0.6843,-1.69369 -0.876,-2.56774 -0.026,-0.11984 0.1278,-0.23277 0.22,-0.12804 0.312,0.35454 0.6009,0.73197 0.8786,1.11912 0.1675,-0.81943 0.3796,-1.57364 0.4793,-2.0545 l 0.4325,-2.12207 v 0 c -2.4371,-0.12697 -5.1076,0.87426 -6.7877,2.62711 -0.09,0.45646 -0.4416,0.78315 -0.784,1.20981 -0.3913,0.48777 -0.7326,1.03513 -0.9872,1.60754 -0.5646,1.26875 -0.2459,3.138419 -1.3417,4.069259 -0.1143,0.0969 -0.2419,0.16431 -0.3736,0.20599 0.52,2.54954 0.284,5.35887 0.2727,7.94543 l -4e-4,0.22763 c 0,2.89486 -0.094,5.7921 -0.206,8.68458 l -0.1138,2.86269 c -0.1475,3.81789 -0.2432,7.63763 0.1278,11.43456 1.6939,-1.50022 3.4455,-2.932 5.2573,-4.29597 1.1913,-0.89709 2.4065,-1.76226 3.6437,-2.59493 l 1.0054,-0.67174 c 1.2046,-0.80782 2.4386,-1.63904 3.7576,-2.21753 1.7252,-0.75637 3.3657,-0.4964 5.0314,0.27941 1.6587,0.77278 3.2679,1.67037 4.8949,2.50793 1.6548,0.85159 3.3131,1.69606 4.9703,2.54269 1.0978,0.56096 2.7064,1.0673 3.5115,2.09984 0.051,-0.22845 0.1112,-0.45625 0.1812,-0.68318 -0.08,-0.34612 -0.049,-0.7201 0.1451,-1.07658 2.705498,-4.97117 5.208698,-10.06109 7.694398,-15.14475 1.2581,-2.5727 2.4543,-5.17585 3.7149,-7.74705 l 1.2254,-2.50421 c 0.2048,-0.41716 0.4101,-0.83401 0.6166,-1.25023 0.3092,-0.62315 0.6312,-1.24026 0.9438,-1.861889 0.1322,-0.26263 0.2978,-0.5235 0.4264,-0.78862 l 0.061,-0.13294 c 0,-0.007 0.2999,-0.94058 0.071,-0.85159 l -0.02,0.01 c -0.117,0.0663 -0.2107,-0.081 -0.1349,-0.1749 0.3243,-0.40097 0.776,-0.0458 0.9611,0.32539 0.5098,1.02147 -0.4244,2.624919 -0.7838,3.603029 l -0.02,0.0547 c -1.1152,3.15655 -2.3779,6.25395 -3.6717,9.34055 -2.4807,5.91776 -5.1456,11.74462 -7.8047,17.58163 l -0.032,0.1004 v 0 c 0.567,-0.43465 1.1724,-0.82913 1.6909,-1.21304 1.3078,-0.96884 2.6538,-1.88996 3.9977,-2.80806 2.4646,-1.68379 4.9959,-3.25655 7.5692,-4.76723 l 0.5152,-0.30132 c 1.2853,-0.74881 2.5586,-1.35598 4.0843,-1.13121 1.4175,0.20893 2.7353,0.9703 4.0158,1.58879 l 0.1323,0.0634 3.9568,1.88111 c -0.423,-1.68678 -0.881,-3.36535 -1.3588,-5.03766 -0.9319,-3.26193 -1.9574,-6.49644 -3.0693,-9.70201 -1.0386,-2.99505 -2.1614,-5.95733 -3.3489,-8.896179 l -0.3576,-0.88202 c -0.4842,-1.21002 -0.9656,-2.52948 -2.3495,-2.90201 -1.383,-0.37247 -2.9694,0.17986 -4.2334,-0.60847 -0.1148,-0.0717 -0.1006,-0.26105 0.039,-0.29603 l 0.78,-0.19658 c 1.4644,-0.36429 3.1812,-0.73075 4.566,-0.37648 1.507,0.38607 2.7537,1.65073 3.4848,2.96547 0.8129,1.46255 1.3859,3.09931 2.0029,4.658879 l 0.098,0.24557 c 0.708,1.76494 1.389,3.54046 2.0407,5.32721 1.3028,3.57135 2.4889,7.18566 3.5624,10.83258 0.5174,1.7576 1.0082,3.52362 1.48,5.29396 0.1356,0.50915 0.3593,1.12647 0.5428,1.77034 0.2103,0.20513 0.4094,0.43401 0.5962,0.69505 0.3098,0.43314 0.087,0.94099 -0.2978,1.20031 -0.015,0.44307 -0.1134,0.8598 -0.3487,1.21694 -0.9188,1.39464 -3.3477,1.03534 -3.249,-0.83951 0.015,-0.28696 0.1268,-0.56096 0.296,-0.79243 v -0.0376 0 l -0.019,-0.0687 v 0 c -0.4217,-0.20211 -0.8451,-0.42731 -1.2914,-0.64777 l -4.1526,-2.0519 v 0 c -1.2027,-0.59443 -2.5358,-1.51275 -3.8732,-1.73925 -1.2468,-0.21112 -2.5623,0.71782 -3.6337,1.2783 l -0.07,0.036 c -2.59,1.32749 -5.1608,2.69902 -7.7214,4.08179 -1.25,0.67518 -2.4837,1.37844 -3.729,2.06162 -1.0411,0.57132 -2.1648,1.3914 -3.3351,1.71377 -0.4998,0.38866 -1.0936,0.33662 -1.5708,0.0427 0.2181,1.35059 0.2047,2.73659 0.2716,4.11741 0.09,1.84598 0.1038,3.69709 0.1335,5.54558 l 0.012,0.69304 c 0.079,4.08653 0.1207,8.17415 0.1362,12.26154 0.055,14.55485 -0.1056,29.11401 -0.1431,43.66885 -0.019,7.31283 -0.1639,14.63193 -0.3539,21.94196 -0.081,3.09754 -0.249,6.19137 -0.430898,9.28425 l -0.1001,1.68694 c -0.2118,3.55947 -0.3368,7.15823 -0.9958,10.66976 -0.086,0.45797 -0.8611,0.46963 -0.9371,0 -0.6065,-3.7627 -0.6402,-7.60795 -0.7568,-11.41478 l -0.025,-0.76082 c -0.1401,-4.0874 -0.2066,-8.1722 -0.1924,-12.26176 0.052,-14.56067 0.4303,-29.11227 0.74,-43.66885 0.1557,-7.31369 0.2604,-14.63063 0.5022,-21.94195 0.1209,-3.65836 0.2578,-7.31434 0.4202,-10.97119 0.072,-1.63275 0.1423,-3.26384 0.2507,-4.89415 l 0.049,-0.69865 c 0.034,-0.45581 0.061,-0.90601 0.094,-1.35211 -1.4732,0.53808 -2.8206,-0.45818 -4.1459,-1.13985 -1.5274,-0.78573 -3.0542,-1.57277 -4.5823,-2.357 l -1.5293,-0.78286 v 0 l -3.0605,-1.56161 c -1.378,-0.70326 -2.4397,-1.40306 -3.9095,-0.57824 -5.295,2.97065 -10.1608,6.92331 -14.5704,11.07095 -0.8455,0.79545 -2.6323,0.58169 -2.8465,-0.75141 -0.9149,-5.69505 -0.3585,-11.47253 0.1087,-17.18484 l 0.1722,-2.12077 c 0.2086,-2.53301 0.4359,-5.06604 0.7387,-7.58872 0.1354,-1.12849 0.2703,-2.2563 0.4195,-3.38263 l 0.1149,-0.84447 c 0.1866,-1.33504 0.3083,-2.6621 0.7061,-3.94251 -0.1255,-0.0406 -0.2462,-0.1071 -0.3542,-0.20944 -1.1957,-1.134459 -0.6192,-3.103009 -0.074,-4.452519 0.5388,-1.33202 1.3604,-2.49455 2.3892,-3.49513 0.2244,-0.21851 0.5407,-0.35908 0.8585,-0.36642 2.4946,-1.65266 5.2312,-2.47748 8.0794,-1.57536 0.08,-0.38251 0.1616,-0.7644 0.2474,-1.14533 l 0.087,-0.38059 c 0.2216,-0.94509 0.3038,-2.5062 1.1192,-3.13842 z M 104.54867,235.67705 c 0.7741,-0.2129 1.6216,0.0114 2.1888,0.57867 0.567,0.56722 0.7916,1.4145 0.5782,2.18858 -0.1066,0.3811 -0.2995,0.71189 -0.5782,0.9928 -0.2607,0.25885 -0.5647,0.44359 -0.9119,0.55424 l -0.081,0.0242 -0.1265,0.0527 c -0.3881,0.10429 -0.7763,0.10429 -1.1641,0 -0.3709,-0.10407 -0.6929,-0.29171 -0.9662,-0.5629 -0.2714,-0.27336 -0.4591,-0.5953 -0.5632,-0.96647 -0.1042,-0.38801 -0.1042,-0.77602 0,-1.16403 l 0.053,-0.12653 v 0 c 0.1067,-0.3811 0.2995,-0.71211 0.5783,-0.99259 0.2807,-0.27876 0.6117,-0.47179 0.9928,-0.57867 z m 45.9631,-77.13554 c 0.1272,-0.14596 0.3334,0.041 0.2543,0.19627 -1.2057,2.3637 -2.5496,4.71055 -3.8704,7.01422 0.1058,0.63848 0.2108,1.27178 0.3315,1.8891 0.5145,2.63122 1.1448,5.21493 1.5557,7.8712 1.4769,9.54784 2.2436,19.19932 2.9015,28.83288 0.6599,9.6681 0.7443,19.34053 0.8434,29.02764 0.01,0.8395 -0.6371,1.81525 -1.5026,1.97352 -0.3962,0.0723 -0.6926,0.0583 -1.088,0 -0.9006,-0.13258 -1.4639,-1.16425 -1.5026,-1.97352 -0.2582,-5.41402 -0.6056,-10.82113 -1.0081,-16.22673 -0.7134,-9.58346 -1.1494,-19.19198 -1.7257,-28.78537 l -0.2029,-3.35291 c -0.2178,-3.63309 -0.4171,-7.2687 -0.482,-10.9072 -0.043,-2.41055 0.086,-4.82045 0.01,-7.22819 -0.073,-2.22292 -0.2986,-4.63994 0.1915,-6.82399 0.018,-0.0818 0.1475,-0.10256 0.1849,-0.0242 0.5095,1.07269 0.8324,2.23867 1.0811,3.42883 1.3132,-1.66087 2.6506,-3.32541 4.0319,-4.91157 z M 64.489272,99.822101 c 0.1844,-0.0132 0.1771,0.263799 0,0.284309 -2.5772,0.29893 -5.0669,1.3477 -7.5003,2.23911 l -0.2085,0.076 c -2.4585,0.89197 -4.8554,1.92926 -7.1621,3.16563 -4.51,2.41746 -8.6513,5.5345 -12.3129,9.10282 -14.619,14.24478 -21.2813,34.78627 -26.163,54.09009 -2.7125002,10.72504 -4.6413002,21.63146 -5.8915002,32.62144 -0.6182,5.43518 -1.0552,10.89108 -1.31,16.35541 -0.1304,2.80051 -0.2126,5.6036 -0.247,8.40691 -0.018,1.43588 -0.023,2.87219 -0.021,4.30807 9e-4,0.65813 0.1183,1.48662 -0.058,2.12553 -0.1632,0.59184 -0.6236,1.11308 -0.9641,1.60624 -0.4035,0.58515 -1.1288,0.55427 -1.538,0 l -0.15090004,-0.20173 c -0.4363,-0.57883 -0.8633,-1.13229 -0.9257,-1.88882 -0.067,-0.811 -0.02,-1.64705 -0.023,-2.46172 -0.01,-1.64122 0.013,-3.28266 0.046,-4.92345 0.063,-3.14511 0.1872,-6.28893 0.3714,-9.4293 0.374,-6.37292 0.98960004,-12.73289 1.87100004,-19.05573 1.5667,-11.23872 3.9151,-22.37012 6.9911,-33.2923 2.9020002,-10.30356 6.3399002,-20.57668 11.2374002,-30.12085 4.5473,-8.86142 10.5128,-17.10509 18.3844,-23.29816 3.6606,-2.87996 7.6454,-5.28014 11.9416,-7.08762 2.1668,-0.91162 4.4421,-1.65591 6.7562,-2.08019 2.2883,-0.419539 4.5667,-0.36102 6.8762,-0.541689 z M 104.99227,217.46486 c 0.4088,-0.003 0.8646,0.0868 1.2152,0.31287 l 0.4686,0.3621 v 0 c 0.1269,0.16302 0.2533,0.32669 0.3791,0.49079 0.293,0.38175 0.3319,0.9995 0.2708,1.45445 -0.014,0.3038 -0.1041,0.58622 -0.2708,0.84814 l -0.3567,0.46185 v 0 c -0.3428,0.27962 -0.6287,0.47913 -1.0439,0.61365 -0.2171,0.0702 -0.4261,0.0849 -0.6345,0.0742 l -0.069,-0.004 0.042,0.006 -0.073,-0.008 v 0 c -0.068,-0.006 -0.1358,-0.0132 -0.2041,-0.0225 -0.046,-0.006 -0.093,-0.009 -0.1394,-0.0158 -0.045,-0.004 -0.088,-0.005 -0.133,-0.001 -0.5278,0.0497 -1.0583,-0.24961 -1.4329,-0.59336 -0.3375,-0.30984 -0.6404,-0.96689 -0.5934,-1.43264 l 0.02,-0.19464 c 0.036,-0.32837 0.065,-0.45756 0.2039,-0.78737 0.1351,-0.32086 0.3241,-0.60393 0.5812,-0.84317 0.4923,-0.45797 1.095,-0.71557 1.7706,-0.72032 z m -1.6335,-24.02845 c 0.7005,-0.76328 1.9034,-0.81942 2.772,-0.35778 0.2116,0.11271 0.4059,0.29343 0.5925,0.44415 0.4701,0.38002 0.6547,1.06557 0.6806,1.64316 0.026,0.57111 -0.2755,1.24932 -0.6806,1.6436 l -0.098,0.0952 v 0 c -0.242,0.23535 -0.5888,0.44005 -0.9274,0.50223 -0.546,0.1004 -1.0047,0.0974 -1.5132,-0.11724 -0.4369,-0.18431 -0.8134,-0.48063 -1.0695,-0.88272 l -0.042,-0.068 c -0.017,-0.0282 -0.034,-0.0569 -0.05,-0.0862 l -0.023,-0.0444 c -0.4867,-0.9358 -0.3559,-1.99512 0.3578,-2.772 z m 0.3628,-24.15504 c 0.3159,-0.0991 0.6316,-0.11315 0.9475,-0.0423 0.2144,4.3e-4 0.4143,0.0546 0.5996,0.16194 0.2012,0.0563 0.3761,0.15827 0.5242,0.30574 0.1784,0.10537 0.3207,0.24745 0.4263,0.42602 0.2101,0.22952 0.3517,0.49877 0.4253,0.80797 l 0.085,0.63157 -0.085,0.63179 -0.2396,0.56766 v 0 c -0.066,0.0859 -0.1322,0.17187 -0.1991,0.25738 -0.1058,0.179 -0.2483,0.32172 -0.4273,0.42752 -0.1164,0.11574 -0.2498,0.20232 -0.399,0.26235 -0.5291,0.37916 -1.2338,0.50288 -1.8606,0.33014 -0.3723,-0.10407 -0.6955,-0.29257 -0.9695,-0.56485 -0.2723,-0.27422 -0.4608,-0.59745 -0.5649,-0.96949 l -0.043,-0.29714 c -0.055,-0.39856 -0.064,-0.61933 0.049,-1.126 0.05,-0.22283 0.1931,-0.53699 0.2682,-0.66935 0.3213,-0.56485 0.8462,-0.952 1.4631,-1.14093 z m 27.4291,-17.37783 c 0.907,-0.006 1.8141,-0.005 2.721,0.005 l 0.6802,0.009 c 1.139,0.0179 2.1145,-0.0995 3.0099,0.69073 0.65,0.57349 0.3636,1.53564 -0.2532,1.9677 -0.9348,0.65424 -2.1072,0.32517 -3.1816,0.25306 -1.1332,-0.076 -2.2672,-0.13906 -3.4017,-0.19002 -2.1965,-0.0982 -4.394,-0.16086 -6.5927,-0.17057 -2.194,-0.009 -4.3912,0.0114 -6.585,0.0469 -2.2322,0.0363 -4.5563,0.24421 -6.776,0.0132 -0.3049,-0.0317 -0.3736,-0.4327 -0.073,-0.53699 2.0916,-0.72356 4.4445,-0.95805 6.6365,-1.23464 2.261,-0.28567 4.5219,-0.48777 6.797,-0.61884 2.337,-0.13408 4.6773,-0.21851 7.0181,-0.23492 z m -27.4332,-7.10684 0.075,0.002 c 0.3992,0.001 0.7728,0.0949 1.1212,0.28177 l 0.074,0.0415 0.4794,0.37009 c 0.2934,0.29581 0.4966,0.64409 0.6089,1.04528 l 0.085,0.62962 v 0 c 0.013,0.32605 -0.056,0.63006 -0.2038,0.91249 -0.096,0.29365 -0.2589,0.54758 -0.4897,0.7622 -0.2147,0.23082 -0.4688,0.39406 -0.7622,0.48971 -0.2607,0.13673 -0.5398,0.20538 -0.8379,0.20546 l -0.075,-0.002 c -0.4273,-0.002 -0.8259,-0.10926 -1.1951,-0.32345 l -0.4795,-0.37031 v 0 c -0.2935,-0.2956 -0.4967,-0.64388 -0.6089,-1.04506 l -0.085,-0.62963 v 0 c -0.012,-0.32604 0.056,-0.63049 0.2042,-0.91248 0.095,-0.29366 0.2587,-0.5478 0.4895,-0.76242 0.2146,-0.23082 0.4686,-0.39406 0.7624,-0.4895 0.2605,-0.13692 0.5396,-0.20541 0.8375,-0.20529 z m 7.0215,-55.636609 c 0.5102,-0.7391 1.435,-0.0818 1.3026,0.51238 0.035,1.66886 0.1203,3.28849 0.5001,4.92323 0.1738,0.74838 0.4016,1.49763 0.7529,2.18318 l 0.1475,0.28868 c 0.4548,0.89838 0.8078,1.74565 0.1954,2.7312 -0.2887,0.464669 -0.8104,0.813599 -1.3759,0.789199 -2.5079,-0.10818 -2.8525,-3.598979 -3.005,-5.547679 -0.1571,-2.00699 0.3317,-4.21263 1.4824,-5.88019 z"
       id="path118"
       fill="#1a1417"
       style="fill-rule:evenodd;stroke:none;stroke-width:0.215922" /><path
       d="m 130.93717,29.514208 c -7.6301,-20.07397 -21.3842,-34.77142 -44.571498,-25.54004 -0.6652,-0.45285 -1.5331,-0.57431 -2.3649,-0.044 -12.631,7.93116 -21.7268,20.64675 -25.6686,34.98504 -2.399,0.45611 -4.73,1.25163 -6.8121,2.55618 -4.525,2.8353 -7.5694,7.34688 -10.4231,11.74091 -0.8582,1.32103 -0.064,3.50807 1.5492,3.80802 0.7005,0.13057 1.3947,0.20821 2.0851,0.2286 -0.1681,0.61009 -0.3893,1.19957 -0.6711,1.74026 -1.02,1.957153 0.907,4.035103 2.713,3.500053 0.2004,0.10605 0.4104,0.19324 0.6279,0.25874 0.025,1.1087 0.5945,2.59282 1.722,2.81686 1.8236,0.39126 4.247,-1.00438 3.8167,-3.04394 0.5509,0.0969 1.0998,0.10909 1.6349,0.0419 0.06,1.06207 0.041,2.17034 0.1878,3.15 0.4793,4.61698 5.0924,7.7184 9.4916,6.31387 0.2698,1.43858 0.5867,3.45992 2.0036,4.24026 1.6565,4.64714 4.517,9.95056 9.2021,12.06798 -0.4171,1.06858 -0.1909,2.36857 1.0653,3.08363 8.5758,4.88918 18.869,6.54355 28.564498,4.72586 3.8748,-0.23076 7.6501,-1.10631 11.2737,-2.97172 2.6425,-1.36028 5.0718,-3.08775 7.4432,-4.86857 2.3727,-1.78147 4.9096,-3.51609 6.8034,-5.82914 2.0569,-2.51215 3.0144,-5.46782 3.6358,-8.61369 2.8475,-14.279313 1.864,-28.300063 -3.3085,-41.902483 -6.4026,-16.83767 6.4004,14.39403 0,-2.44452 z"
       id="path119"
       fill="#d9cbae"
       style="fill:#67413a;fill-opacity:1;fill-rule:evenodd;stroke:none;stroke-width:0.216882" /><path
       style="fill:#af4b3b;fill-opacity:1;stroke:none;stroke-width:2.13543;stroke-dasharray:none;stroke-opacity:1"
       d="m 103.43087,81.703051 2.7567,1.24095 2.9539,0.25932 3.5096,0.1792 3.3937,-0.40691 2.7519,-0.97296 -1.0075,-2.15854 c 0,0 -0.389,-1.33128 -1.7689,-0.91152 -1.3799,0.41976 -3.9382,-0.0684 -4.1482,-0.17379 -0.2101,-0.10537 -3.2554,0.4411 -3.4574,0.40908 -0.2021,-0.032 -0.9725,-0.1385 -1.998,0.16367 -1.0254,0.30218 -1.3231,0.48478 -1.9072,0.87325 -0.584,0.38847 -1.0786,1.49825 -1.0786,1.49825 z"
       id="path120" /><path
       d="m 97.320872,75.572131 c 0.02,-2.12981 1.866,-2.49708 3.619198,-2.21312 2.9682,0.48016 5.9474,0.81806 8.9557,0.87894 l 0.5185,0.009 v 0 c 0.083,-0.12178 0.2231,-0.21419 0.4125,-0.23448 1.6676,-0.18016 3.3712,-0.15097 5.0479,-0.20045 1.4627,-0.0429 2.9658,-0.18925 4.4284,-0.0745 l 0.1164,0.0102 c 1.7875,0.17307 3.6738,1.08538 3.4579,3.18312 -0.1985,1.9425 -2.0554,3.66212 -3.5382,4.74152 -0.2998,0.21631 -0.6064,0.41908 -0.9218,0.60388 -0.099,0.12622 -0.2434,0.21417 -0.4102,0.23215 -1.4602,0.78868 -3.0714,1.2553 -4.7392,1.41073 -3.5359,0.329 -7.6465,-0.0271 -11.0426,-1.55938 -1.1042,-0.49814 -2.1341,-1.12019 -3.0446,-1.88412 -1.403898,-1.17857 -2.875498,-2.96565 -2.859898,-4.9037 z m 13.931698,4.22308 c -1.4174,-0.0427 -2.8326,0.15561 -4.1826,0.59285 -0.9149,0.29518 -1.7488,0.86291 -2.6255,1.25744 2.9545,1.12676 6.3867,1.37245 9.4177,1.16735 1.3298,-0.0901 2.6189,-0.39665 3.8201,-0.92399 -0.1872,-0.13511 -0.3766,-0.27254 -0.5749,-0.3922 -0.5993,-0.36283 -1.2259,-0.67154 -1.8795,-0.91722 -1.2731,-0.47765 -2.6163,-0.74132 -3.9753,-0.78423 z"
       id="path121"
       fill="#1a1417"
       style="fill-rule:evenodd;stroke:none;stroke-width:0.193302"
       sodipodi:nodetypes="scccscccccccccccsscccccccc" /><path
       style="fill:#d9cbae;fill-opacity:1;stroke:none;stroke-width:2.13543;stroke-dasharray:none;stroke-opacity:1"
       d="m 48.887272,43.433118 -3.7091,3.00276 -2.7338,4.72849 c 0,0 -1.2265,1.83456 -1.3474,2.0479 -0.1209,0.21335 0.042,2.68764 0.042,2.68764 l 0.9854,0.94651 1.7001,0.34334 1.1338,-0.59486 -0.4789,2.97876 -0.7014,0.599523 1.2137,2.05186 1.1908,0.34953 1.2754,-0.51652 0.1055,1.71859 1.0313,1.57141 1.9758,0.18824 1.7952,-1.01179 0.6245,-1.50467 1.5848,-0.45707 0.8766,-3.055443 2.6235,-4.32616 2.8095,-1.63988 2.8213,-1.53843 1.5655,-0.53178 1.4009,0.66254 1.52,2.22445 1.2536,2.27662 1.0025,0.94828 2.0638,0.47305 1.5763,-0.22345 1.0543,-0.94688 -1.217,-4.54804 -0.2279,-3.98535 -0.7004,-2.34087 -4.1729,-5.25975 -3.8489,-1.99612 -4.6564,-1.0189 -4.3276,1.10965 -4.7567,1.86992 -2.4139,2.77499 z"
       id="path122" /><path
       d="m 94.049372,0.06243802 c 3.905,-0.27566 7.881098,0.38258 11.599698,1.56002998 5.9309,1.87733 11.3777,5.19042 15.8526,9.50356 4.612,4.445 8.0229,9.9254 10.097,15.97836 2.501,7.29982 2.8754,15.09413 3.5794,22.71429 0.3556,3.85003 0.9416,7.64133 1.5508,11.454063 l 0.096,0.6022 c 0.5952,3.71476 0.93,7.47181 0.1078,11.18071 -1.3668,6.16423 -5.4641,11.39673 -10.3277,15.26309 -9.9911,7.94266 -25.5446,12.784979 -37.177498,5.47627 -1.7997,-1.13082 -0.094,-4.02251 1.6626,-2.84419 1.2365,0.82957 2.5464,1.55678 3.9512,2.05886 5.869298,2.09747 12.315198,1.35031 18.115898,-0.60076 5.7164,-1.92266 11.2016,-5.17134 15.4195,-9.50638 4.4305,-4.55344 6.8858,-10.17785 6.531,-16.57761 -0.2115,-3.8078 -1.079,-7.545113 -1.5605,-11.321903 -0.4265,-3.34504 -0.6822,-6.70823 -0.977,-10.0668 l -0.108,-1.20806 c -0.625,-6.84278 -1.5225,-13.87325 -4.6359,-20.08457 -2.6189,-5.22556 -6.4536,-9.87443 -11.0645,-13.46469 -4.8273,-3.75879 -10.5932,-6.38762 -16.6429,-7.36814 -7.114098,-1.15295 -13.924198,0.94365 -19.858798,4.84666 -5.2633,3.46144 -9.7883,8.08711 -13.258,13.33566 -1.6826,2.54489 -3.1159,5.26264 -4.3537,8.04979 -1.1664,2.62601 -1.9706,5.37825 -2.9086,8.08494 0.7719,-0.023 1.5566,0.007 2.3534,0.0948 4.0869,0.45285 7.8947,2.57092 10.3188,5.91069 2.9624,4.08107 2.1617,9.09062 3.3188,13.7319 0.09,0.36024 -0.063,0.71289 -0.3714,0.9122 -1.7543,1.13386 -4.1023,1.1716 -5.8002,-0.10519 -1.4738,-1.10805 -2.1656,-3.11139 -1.569,-4.86185 0.078,-0.22816 0.4102,-0.18782 0.4195,0.0568 0.1121,2.97888 2.8758,5.27284 5.5849,3.8553 -1.162,-4.00213 -0.5504,-8.47185 -2.9272,-12.08684 -4.2069,-6.39803 -12.9126,-6.66241 -19.0271,-3.05565 -3.218,1.89786 -5.7651,4.7516 -7.6618,7.94359 l -0.5464,0.92663 c -0.727,1.23811 -1.497,2.63874 -1.6478,4.00217 -0.087,0.78684 0.2034,1.5262 1.1061,1.12974 0.7302,-0.32056 1.2956,-1.06858 1.7294,-1.71164 0.7398,-1.09678 2.4397,-0.14923 1.8287,1.01871 l -0.021,0.0382 c -0.8893,1.5755 -1.4368,3.31167 -1.5374,5.120633 l -0.025,0.50093 c -0.017,0.36509 -0.029,0.88397 0.048,0.90291 0.093,0.0228 0.7361,-0.72005 0.8433,-0.82286 0.5161,-0.49579 1.0477,-0.90092 1.7663,-1.033013 0.9445,-0.17311 1.8975,0.995553 1.0776,1.761703 l -0.034,0.0308 c -0.7318,0.63611 -0.6992,1.90466 0.1091,2.49956 1.1408,0.8396 2.5453,-0.5308 2.7109,-1.65911 l 0.01,-0.0417 c 0.1464,-1.21909 1.8396,-1.26225 1.9315,0 0.1998,2.73923 -3.0615,5.03514 -5.5428,3.65317 -0.9812,-0.54611 -1.605,-1.54616 -1.8004,-2.61799 -0.3131,0.16548 -0.651,0.28021 -1.0082,0.31188 -1.163,0.10302 -1.9897,-0.71463 -2.1778,-1.81205 -0.219,-1.27852 -0.089,-2.647483 0.2477,-3.975243 -0.6315,0.15225 -1.2959,0.0941 -1.9636,-0.29127 -2.0203,-1.16574 -1.4401,-3.75878 -0.6774,-5.50946 3.2565,-7.47246 10.0033,-14.25284 18.3619,-14.79115 0.046,-1.31842 0.2245,-2.56484 0.5169,-3.885 2.8589,-12.91295 12.1206,-24.8701 24.1782,-30.45872 3.222,-1.49345 6.639,-2.49804998 10.1913,-2.74897998 z m -31.62,51.58233998 0.1146,-0.0258 c 1.3026,-0.28066 4.7308,-0.61037 4.3176,1.58174 -0.019,0.10302 -0.1694,0.0904 -0.1961,0 -0.4047,-1.37829 -3.1539,-0.27609 -3.9566,0.0557 -1.1065,0.45719 -2.1981,1.13169 -3.1016,1.91572 -1.9782,1.71684 -3.3042,4.13638 -3.5059,6.764123 -0.2,2.6067 0.5563,5.42227 2.4367,7.30784 0.9217,0.92414 2.0983,1.55158 3.42,1.59777 1.1874,0.0412 2.4993,-0.88314 3.595,-0.3418 0.216,0.1067 0.3872,0.39971 0.3676,0.64088 -0.037,0.45654 -0.2411,0.81201 -0.5452,1.08767 1.8344,3.3428 3.3357,6.88102 5.6756,9.92084 1.1742,1.52512 2.5048,2.93745 4.0115,4.13941 0.7161,0.57149 1.4947,1.07335 2.2976,1.51427 0.9408,0.51727 1.755,0.84086 2.4265,1.71706 0.5725,0.74716 -2e-4,2.19181 -0.9441,2.32064 -2.2228,0.30277 -4.383,-1.49432 -6.0148,-2.84051 -1.6303,-1.3451 -3.0394,-3.00425 -4.2038,-4.76468 -2.2361,-3.38054 -3.7658,-7.36857 -4.3774,-11.40323 -0.71,0.22512 -1.5095,0.29387 -2.1109,0.29517 -1.6001,0.004 -3.1281,-0.57191 -4.3856,-1.54463 -4.6035,-3.56055 -5.1151,-10.871 -1.8664,-15.481053 1.5546,-2.2059 3.9169,-3.83577 6.5457,-4.45714 z m 0.029,8.478803 c 1.0675,-0.0937 2.1341,0.0748 3.1374,0.43875 l 0.4136,0.14993 c 0.8737,0.31946 1.8037,0.69508 2.4347,1.35003 0.9641,1.00112 0,2.73575 -1.3692,2.35208 -1.5184,-0.42422 -2.7524,-1.70296 -4.2704,-2.23931 -1.3568,-0.4793 -2.8936,-0.41142 -4.0977,0.41403 -0.159,0.10909 -0.3681,-0.10605 -0.2642,-0.26438 0.9211,-1.40257 2.3753,-2.05734 4.0158,-2.20113 z"
       id="path123"
       fill="#1a1417"
       style="fill-rule:evenodd;stroke:none;stroke-width:0.216882" /><g
       id="g125"
       stroke="none"
       stroke-width="1"
       fill="none"
       fill-rule="evenodd"
       transform="matrix(0.23839173,0,0,0.23839173,63.318272,61.521411)"><path
         d="m 245.36528,32.822685 c -14.02631,-2.365455 -28.59864,1.130516 -42.12249,4.855574 -21.48317,-14.105353 -49.32001,0.132125 -64.7058,17.75476 -5.26569,4.336667 -16.32384,10.096868 -10.49795,18.37063 -2.20839,5.84864 -2.79898,8.600878 1.77178,1.763436 25.86854,2.978128 53.62333,-2.647817 79.22443,-7.954107 8.71706,2.931246 16.41502,9.78467 25.9972,7.43733 9.06047,1.92646 18.86855,3.725058 27.0477,-2.087354 6.22806,-0.252528 20.08418,10.93117 19.86132,-2.074567 C 280.0147,58.421803 255.29669,37.678259 245.36528,32.822685 Z"
         id="path124"
         fill="#d9cbae" /><path
         d="m 255.8834,72.8453 c -15.228,1.685 -30.671,-0.791 -43.422,-9.633 -1.331,-0.923 -2.643,-0.913 -3.713,-0.372 -1.301,-0.144 -2.632,0.375 -3.404,1.861 -3.202,6.167 -13.815,4.793 -19.649,4.919 -19.083,0.368 -38.832,-0.685 -57.197,5.084 17.564,-34.334 41.855,-49.156 79.442,-35.677 -3.394,2.733 13.542,-3.665 15.028,-3.787 26.006,-6.516 47.461,15.296 57.942,36.91 -7.929,-1.887 -16.814,-0.214 -25.027,0.695 m 36.324,5.843 c -11.467,-25.829 -34.077,-54.229 -65.614,-49.765 -6.475,0.953 -13.286,5.376 -19.805,4.578 -18.875,-6.971 -34.455,-10.513 -53.358,0.759 -8.02,0.599 -53.152,56.476 -31.705,51.914 26.326,-15.118 72.1,-0.878 88.448,-14.4 32.095,21.069 58.191,-1.818 76.279,11.352 3.145,2.885 7.556,-0.708 5.755,-4.438"
         id="path125"
         fill="#1a1417" /></g><path
       d="m 130.52257,61.452471 c -2.6084,2.69516 -6.9627,3.46857 -10.433,2.02313 -8.9107,-3.72294 -4.5492,-15.335003 2.3228,-18.453403 0.8585,-0.21398 2.0051,-0.72164 3.0507,-0.8368 0.095,-0.0464 0.3004,0.0879 0.5498,-0.0391 7.5776,0.84603 9.3032,12.60892 4.5097,17.306173 m -28.7408,0.68985 c -2.925398,3.88021 -8.364298,5.0773 -12.807998,3.27351 -8.7788,-3.4572 -5.6651,-13.754243 0.3411,-17.791073 12.687798,-4.7675 17.927098,7.36319 12.466898,14.517563 M 82.751372,53.544878 c -0.01,-0.004 -0.016,-0.005 -0.025,-0.009 0.046,-0.0204 0.093,-0.0408 0.139,-0.0616 -0.015,0.0393 -0.031,0.0783 -0.046,0.11754 -0.023,-0.0157 -0.043,-0.0339 -0.068,-0.0462 m 53.810798,-4.19431 c -0.7163,10e-4 -1.751,0.11923 -2.3439,0.61616 -1.4622,-4.9312 -6.8594,-9.49504 -11.5532,-6.16718 -3.6963,1.1887 -6.4392,3.825 -7.9981,7.32989 -2.8107,-1.67188 -7.2304,-0.95797 -9.6677,1.25295 -1.5963,-5.27453 -5.524798,-7.1215 -10.200798,-7.39414 -5.1037,-0.83594 -10.1907,4.12063 -11.7779,8.09687 -1.3198,-0.15017 -3.2918,-0.57018 -4.5334,0.24427 -8.0579,-2.11316 -22.146,-3.27823 -23.7842,-2.10414 -1.1674,0.44795 -1.8081,3.20348 -0.1774,3.35214 1.4209,-0.20173 -0.1659,-2.01905 1.2664,-2.21735 7.6318,-0.47307 15.0405,1.06389 22.5915,1.70883 0.6741,0.90684 2.8524,1.21019 4.0145,0.84582 -1.8302,6.745093 2.1206,11.334073 8.0405,12.708613 9.1666,2.10563 17.141598,-6.09435 14.744698,-14.623473 2.7768,-1.38142 5.9708,-1.32211 8.9957,-0.59445 -5.0547,18.602933 24.9061,17.768283 20.2267,-1.80122 3.1141,1.54899 3.7904,-0.941 2.1566,-1.25359"
       id="path126"
       fill="#1a1417"
       style="fill-rule:evenodd;stroke:none;stroke-width:0.214839" /><path
       d="m 119.33627,70.416481 c -0.6959,0.7217 -1.615,1.21457 -2.6468,1.52136 -2.5931,0.77103 -5.9018,0.3603 -8.0197,-0.42538 -0.4394,-0.16296 -0.85,-0.49518 -1.086,-0.91061 -0.2155,-0.37946 -0.2884,-0.82573 -0.1244,-1.28086 0.047,-0.12929 0.1036,-0.25623 0.1606,-0.38123 0.1554,-0.34007 0.472,-0.60464 0.8439,-0.75594 0.3863,-0.15713 0.8255,-0.1892 1.1777,-0.0785 0.047,0.0148 0.096,0.0302 0.1456,0.0459 1.3419,0.42301 3.5429,1.12352 5.3663,0.98775 1.0941,-0.0814 2.0565,-0.46804 2.5543,-1.46929 0.2623,-0.52795 0.1897,-1.0501 -0.043,-1.52816 -0.3508,-0.72079 -1.0534,-1.34798 -1.6454,-1.78015 -0.8345,-0.60938 -1.7245,-0.85266 -2.6451,-1.10951 -0.3469,-0.0968 -0.6982,-0.19491 -1.0529,-0.31231 -0.1168,-0.0386 -0.2192,-0.11437 -0.2959,-0.21289 -0.076,-0.0973 -0.1255,-0.21614 -0.1411,-0.33537 -0.016,-0.12347 0,-0.24659 0.061,-0.3527 0.053,-0.0984 0.1379,-0.1849 0.2648,-0.2417 1.8011,-0.80693 4.1305,-0.27371 5.8887,0.99575 0.8788,0.63445 1.6117,1.44947 2.0634,2.36021 0.4193,0.84521 0.5974,1.77253 0.4332,2.71821 -0.184,1.05869 -0.6321,1.89493 -1.2593,2.54541 z M 89.817672,52.411198 c 0.5061,-0.22301 0.9219,0.82086 1.0261,1.10548 l 0.2154,0.59049 c 0.3514,0.95209 0.7548,1.92006 1.4936,2.6267 0.6185,0.59167 1.6095,1.09311 2.327,0.4009 0.6806,-0.65664 0.3488,-1.3963 0.4491,-2.20195 0.181,-1.45713 2.1679,-2.91349 3.3626,-1.39294 2.698698,3.43556 -1.4767,8.213273 -5.3227,7.375143 -1.956,-0.42642 -3.5305,-1.994723 -4.1774,-3.859723 l -0.033,-0.0984 c -0.3872,-1.18153 -0.7788,-3.91121 0.6595,-4.54568 z m 34.825798,2.39266 -0.019,-0.0436 c -1.2855,-2.92381 3.2999,-4.18036 3.6887,-1.5551 l 0.025,0.17714 c 0.3781,2.91433 -0.4187,6.833453 -3.9882,7.124003 -4.0068,0.32639 -5.6754,-4.144273 -5.3175,-7.424893 0.064,-0.58729 0.7767,-0.6685 0.9969,-0.13483 l 0.047,0.11647 c 0.647,1.64871 1.2613,4.81945 3.5408,4.81618 1.523,-0.002 1.4503,-2.05814 1.0264,-3.0754 z m 2.9071,-8.46392 c 2.3033,-0.0817 2.3001,3.52295 0,3.57709 -7.6832,0.18072 -15.3724,0.421 -23.0579,0.46225 l -1.3969,0.008 c -7.219098,0.0484 -14.462998,0.14702 -21.660998,-0.45893 -0.6143,-0.0516 -0.5001,-0.91419 0.013,-0.87938 7.5463,-1.07403 15.1847,-1.38804 22.788498,-1.79615 7.7644,-0.41688 15.5438,-0.63756 23.3141,-0.91342 z"
       id="ðŸ–-Ink-36-6"
       fill="#1a1417"
       style="fill-rule:evenodd;stroke:none;stroke-width:0.257809"
       sodipodi:nodetypes="sssssssscssssssssscssssssccssccsccsscccccsccsscssccscsss" /><g
       id="g129"
       stroke="none"
       stroke-width="1"
       fill="none"
       fill-rule="evenodd"
       transform="matrix(0.23839173,0,0,0.23839173,63.318272,61.521411)"><path
         d="m 245.36528,32.822685 c -14.02631,-2.365455 -28.59864,1.130516 -42.12249,4.855574 -21.48317,-14.105353 -49.32001,0.132125 -64.7058,17.75476 -5.26569,4.336667 -16.32384,10.096868 -10.49795,18.37063 -2.20839,5.84864 -2.79898,8.600878 1.77178,1.763436 25.86854,2.978128 53.62333,-2.647817 79.22443,-7.954107 8.71706,2.931246 16.41502,9.78467 25.9972,7.43733 9.06047,1.92646 18.86855,3.725058 27.0477,-2.087354 6.22806,-0.252528 20.08418,10.93117 19.86132,-2.074567 C 280.0147,58.421803 255.29669,37.678259 245.36528,32.822685 Z"
         id="path128"
         fill="#d9cbae" /><path
         d="m 255.8834,72.8453 c -15.228,1.685 -30.671,-0.791 -43.422,-9.633 -1.331,-0.923 -2.643,-0.913 -3.713,-0.372 -1.301,-0.144 -2.632,0.375 -3.404,1.861 -3.202,6.167 -13.815,4.793 -19.649,4.919 -19.083,0.368 -38.832,-0.685 -57.197,5.084 17.564,-34.334 41.855,-49.156 79.442,-35.677 -3.394,2.733 13.542,-3.665 15.028,-3.787 26.006,-6.516 47.461,15.296 57.942,36.91 -7.929,-1.887 -16.814,-0.214 -25.027,0.695 m 36.324,5.843 c -11.467,-25.829 -34.077,-54.229 -65.614,-49.765 -6.475,0.953 -13.286,5.376 -19.805,4.578 -18.875,-6.971 -34.455,-10.513 -53.358,0.759 -8.02,0.599 -53.152,56.476 -31.705,51.914 26.326,-15.118 72.1,-0.878 88.448,-14.4 32.095,21.069 58.191,-1.818 76.279,11.352 3.145,2.885 7.556,-0.708 5.755,-4.438"
         id="path129"
         fill="#1a1417" /></g></g></svg>
