<?xml version="1.0" encoding="UTF-8" standalone="no"?>
<svg
   version="1.0"
   width="45.245213mm"
   height="64.408592mm"
   id="svg24"
   sodipodi:docname="all.wmf"
   xml:space="preserve"
   xmlns:inkscape="http://www.inkscape.org/namespaces/inkscape"
   xmlns:sodipodi="http://sodipodi.sourceforge.net/DTD/sodipodi-0.dtd"
   xmlns="http://www.w3.org/2000/svg"
   xmlns:svg="http://www.w3.org/2000/svg"><sodipodi:namedview
     id="namedview24"
     pagecolor="#fafbf6"
     bordercolor="#0f0f1b"
     borderopacity="0.25"
     inkscape:showpageshadow="2"
     inkscape:pageopacity="0.0"
     inkscape:pagecheckerboard="0"
     inkscape:deskcolor="#c6b7be"
     inkscape:document-units="mm"><inkscape:page
       x="0"
       y="0"
       width="171.00552"
       height="243.43405"
       id="page1"
       margin="0"
       bleed="0" /></sodipodi:namedview><defs
     id="defs1" /><path
     d="m 11.587484,239.58946 c 28.2091,4.28475 56.92985,4.50024 85.3733,2.94431 11.256836,-0.84275 22.548176,-0.99454 33.795956,0.0829 6.64636,0.49424 35.78721,2.72169 38.16814,-3.23105 -1.49851,-31.69837 -4.53349,-63.66665 -13.84392,-94.15262 -3.82898,-10.8248 -7.11757,-19.80924 -14.59072,-28.76697 -2.35526,-2.44574 -7.4346,-7.57521 -10.34493,-9.24817 -2.52153,-1.44905 -3.57542,-0.9321 -5.02325,-3.37979 -1.43875,-2.70392 -2.49995,-7.219689 -4.54283,-9.127659 -2.08002,-1.94265 -5.16257,-1.24761 -8.98327,-0.6219 0.70193,-9.48557 -3.67658,-11.90138 -9.70857,-13.70519 -10.602786,-4.04659 -21.074136,-2.0137 -23.742726,10.89345 -4.94808,0 -7.7275,2.12933 -10.73227,4.17532 -1.2283,0.83636 -0.37384,2.96722 -1.84099,3.62458 -2.71448,0.966459 -7.51135,0.72973 -10.12498,1.919169 -11.88514,5.40878 -22.47074,13.25229 -29.42264,24.70727 -15.5852,24.45657 -26.29109982,75.97461 -24.4384998,104.96122 -0.81170002,1.27286 0.3107,3.09804 0.596,4.46677 0.3602,1.19059 1.5264,1.98259 2.7435,1.84721 1.6984,1.82648 4.3254,2.23306 6.6626998,2.61114 z"
     id="path28"
     fill="#fafbf6"
     style="fill:#565a75;fill-opacity:1;fill-rule:evenodd;stroke:none;stroke-width:0.215922" /><path
     style="fill:#c6b7be;fill-opacity:1;stroke:none;stroke-width:2.13543;stroke-dasharray:none;stroke-opacity:1"
     d="m 78.144714,91.425731 -0.10878,6.75593 1.20165,3.696179 4.20652,6.08321 4.99932,6.69248 6.4968,6.64879 1.65204,1.88459 4.327836,6.32209 6.53627,-13.9373 6.94715,-15.20669 -2.1909,-3.674599 -2.30715,-5.81625 z"
     id="path144" /><path
     d="m 128.34912,106.50084 c -0.17317,-0.0965 -0.0207,-0.34396 0.1533,-0.26213 8.36588,3.92459 14.78372,10.81012 19.29951,18.76575 4.67601,8.2377 7.3411,17.59059 9.63876,26.732 l 0.0829,0.33032 c 2.45006,9.77909 4.53327,19.65923 6.40877,29.56355 1.89946,10.02978 3.42408,20.12174 4.65052,30.25537 0.60674,5.01046 1.14762,10.02978 1.56953,15.05924 0.21074,2.51333 0.40227,5.0286 0.57435,7.54495 0.0687,1.00636 0.1335,2.01273 0.18904,3.01998 l 0.0398,0.75562 c 0.0343,0.68534 0.11574,1.3724 -0.0536,2.04845 -0.14618,0.58277 -0.45473,1.11049 -0.72614,1.64554 -0.53678,1.05758 -2.00829,0.88333 -2.58674,0 l -0.16798,-0.25731 c -0.38359,-0.59286 -0.70232,-1.14383 -0.82267,-1.88161 -0.11638,-0.71449 -0.1207,-1.46309 -0.17295,-2.1847 -0.0961,-1.3277 -0.17792,-2.65669 -0.2712,-3.98483 -0.19584,-2.79575 -0.41587,-5.58978 -0.65943,-8.38164 -0.48172,-5.51162 -0.99842,-11.01827 -1.63301,-16.51477 -1.12754,-9.76829 -2.54248,-19.51067 -4.21047,-29.20124 -1.62972,-9.46648 -3.69001,-18.83691 -5.83935,-28.19557 l -0.22265,-0.96809 c -3.7633,-16.33966 -9.56339,-35.15679 -25.24037,-43.88888 z m -89.108136,63.98241 c 0.062,-0.16345 0.3263,-0.20102 0.371,0 0.5635,2.5373 0.6192,5.15059 0.7054,7.74835 0.085,2.56256 0.081,5.13677 0.044,7.70084 -0.1378,9.42347 -0.3965,18.83895 -0.6202,28.2609 -0.1118,4.71292 -0.2167,9.42649 -0.2973,14.14006 -0.03,1.76791 -0.056,3.5357 -0.077,5.30365 l -0.026,2.33171 c -0.013,1.0309 -0.04,2.04921 -0.1657,3.0791 -0.083,0.67735 -0.2595,1.32339 -0.6335,1.904 -0.2654,0.41213 -0.6437,0.62133 -1.0123,0.90139 l -0.069,0.0534 c -0.4703,0.37161 -0.9656,0.3742 -1.4314,0 l -0.1352,-0.10701 c -0.4449,-0.34791 -0.8294,-0.61974 -1.1135,-1.16995 -0.3951,-0.76501 -0.4584,-1.59609 -0.5255,-2.43905 -0.1019,-1.27825 -0.034,-2.57529 -0.021,-3.85722 0.026,-2.57163 0.062,-5.14282 0.1071,-7.71423 0.1656,-9.42951 0.4929,-18.86075 1.0895,-28.27342 0.2811,-4.43366 0.6622,-8.88167 1.1733,-13.29739 l 0.097,-0.82756 c 0.1551,-1.2992 0.2965,-2.6215 0.4559,-3.94813 -2.3789,-1.67317 -4.4698,-3.70327 -6.2529,-6.00629 -0.1313,-0.1695 0.085,-0.40722 0.2433,-0.24312 1.822,1.8865 3.911,3.3904 6.2238,4.573 0.3789,-2.77697 0.8999,-5.53904 1.8703,-8.11304 z m 39.74092,-84.055259 c 0.0326,-0.0253 0.0836,-0.0363 0.11465,0 0.51131,0.5961 0.40762,1.50751 0.4241,2.2629 l 0.002,0.0703 c 0.0367,1.10444 0.0436,2.20542 0.04,3.31051 l -0.0114,3.51758 v 0 c -0.002,0.48366 -0.0408,0.98712 -0.016,1.47366 l 0.0129,0.18829 v 0 c 0.26861,0.27508 0.39341,0.67259 0.30229,1.07183 -0.0164,0.51217 -0.28415,0.93948 -0.67475,1.20808 l 0.83715,1.187679 v 0 l 0.83797,1.18703 c 1.72715,2.44963 3.47331,4.87745 5.2931,7.25972 1.85563,2.4289 3.8352,4.76625 5.90675,7.01356 1.01202,1.09818 2.04132,2.18103 3.09459,3.23969 0.42801,0.43028 0.86671,0.84987 1.30052,1.27416 l 0.4316,0.42644 c 0.255,0.255 0.57586,0.5072 0.74515,0.83043 0.0995,0.19066 0.12221,0.66051 0.15784,0.73824 0.31956,0.70239 -0.22564,1.82238 -1.13165,1.47194 l 0.0411,-0.0274 c 0.16496,-0.11472 0.0593,-0.11639 -0.31727,-0.005 -0.23752,-8.7e-4 -0.46022,-0.0555 -0.66827,-0.16371 l -0.062,-0.0341 c -0.29299,-0.14888 -0.55452,-0.43705 -0.79257,-0.66748 l -0.059,-0.0563 c -0.54433,-0.51 -1.06319,-1.05089 -1.58486,-1.584 -1.08889,-1.11221 -2.15317,-2.24817 -3.18355,-3.41458 -2.05557,-2.32721 -4.00426,-4.74877 -5.84975,-7.24547 -1.87981,-2.54291 -3.62705,-5.21645 -5.12965,-7.99968 -0.57025,-1.05629 -1.09299,-2.13287 -1.59415,-3.221979 -0.97553,-0.31309 -1.20203,-1.35059 -1.13402,-2.51937 -0.35994,-0.83821 -0.68425,-1.69369 -0.87599,-2.56774 -0.0261,-0.11984 0.12783,-0.23277 0.22002,-0.12804 0.31201,0.35454 0.60091,0.73197 0.87859,1.11912 0.16755,-0.81943 0.37959,-1.57364 0.47935,-2.0545 l 0.43249,-2.12207 v 0 c -2.43711,-0.12697 -5.10763,0.87426 -6.78772,2.62711 -0.0902,0.45646 -0.44156,0.78315 -0.78401,1.20981 -0.39125,0.48777 -0.73262,1.03513 -0.98719,1.60754 -0.56464,1.26875 -0.24594,3.138419 -1.34174,4.069259 -0.11422,0.0969 -0.24183,0.16431 -0.37354,0.20599 0.51997,2.54954 0.284,5.35887 0.27267,7.94543 l -4.3e-4,0.22763 c 0.003,2.89486 -0.0941,5.7921 -0.20599,8.68458 l -0.11379,2.86269 c -0.14745,3.81789 -0.24322,7.63763 0.12782,11.43456 1.69391,-1.50022 3.44546,-2.932 5.25726,-4.29597 1.19131,-0.89709 2.40651,-1.76226 3.64377,-2.59493 l 1.00532,-0.67174 c 1.20467,-0.80782 2.4386,-1.63904 3.7576,-2.21753 1.72522,-0.75637 3.36579,-0.4964 5.03141,0.27941 1.65871,0.77278 3.26797,1.67037 4.89494,2.50793 1.65483,0.85159 3.3131,1.69606 4.9703,2.54269 1.09775,0.56096 2.70636,1.0673 3.51153,2.09984 0.0514,-0.22845 0.1112,-0.45625 0.18116,-0.68318 -0.0799,-0.34612 -0.049,-0.7201 0.1451,-1.07658 2.705496,-4.97117 5.208676,-10.06109 7.694366,-15.14475 1.25817,-2.5727 2.45438,-5.17585 3.71493,-7.74705 l 1.22541,-2.50421 c 0.20476,-0.41716 0.41012,-0.83401 0.61662,-1.25023 0.3092,-0.62315 0.63114,-1.24026 0.94379,-1.861889 0.13214,-0.26263 0.29776,-0.5235 0.42642,-0.78862 l 0.0609,-0.13294 c 0.003,-0.007 0.29985,-0.94058 0.0705,-0.85159 l -0.0198,0.01 c -0.11703,0.0663 -0.21074,-0.081 -0.13495,-0.1749 0.32431,-0.40097 0.77602,-0.0458 0.96107,0.32539 0.50988,1.02147 -0.42436,2.624919 -0.78373,3.603029 l -0.0197,0.0547 c -1.11523,3.15655 -2.37794,6.25395 -3.67174,9.34055 -2.48073,5.91776 -5.14563,11.74462 -7.80471,17.58163 l -0.0315,0.1004 v 0 c 0.56701,-0.43465 1.17245,-0.82913 1.69088,-1.21304 1.30784,-0.96884 2.65389,-1.88996 3.99779,-2.80806 2.46454,-1.68379 4.99589,-3.25655 7.56912,-4.76723 l 0.5152,-0.30132 c 1.28538,-0.74881 2.55867,-1.35598 4.08437,-1.13121 1.41745,0.20893 2.73522,0.9703 4.01574,1.58879 l 0.13233,0.0634 3.95677,1.88111 c -0.42299,-1.68678 -0.88096,-3.36535 -1.3588,-5.03766 -0.93192,-3.26193 -1.95733,-6.49644 -3.06932,-9.70201 -1.03859,-2.99505 -2.16132,-5.95733 -3.34885,-8.896179 l -0.35759,-0.88202 c -0.48418,-1.21002 -0.96563,-2.52948 -2.34952,-2.90201 -1.38297,-0.37247 -2.96935,0.17986 -4.23336,-0.60847 -0.11487,-0.0717 -0.10062,-0.26105 0.0387,-0.29603 l 0.77996,-0.19658 c 1.46443,-0.36429 3.18122,-0.73075 4.56605,-0.37648 1.50691,0.38607 2.75365,1.65073 3.48476,2.96547 0.81291,1.46255 1.38594,3.09931 2.00288,4.658879 l 0.0978,0.24557 c 0.708,1.76494 1.38902,3.54046 2.04067,5.32721 1.30287,3.57135 2.48893,7.18566 3.56249,10.83258 0.51735,1.7576 1.00814,3.52362 1.47993,5.29396 0.1356,0.50915 0.35929,1.12647 0.54283,1.77034 0.2103,0.20513 0.40938,0.43401 0.59616,0.69505 0.30984,0.43314 0.0874,0.94099 -0.29776,1.20031 -0.0149,0.44307 -0.11336,0.8598 -0.34871,1.21694 -0.91875,1.39464 -3.34765,1.03534 -3.24898,-0.83951 0.0149,-0.28696 0.12675,-0.56096 0.29603,-0.79243 l -0.005,-0.0376 v 0 l -0.0192,-0.0687 v 0 c -0.4217,-0.20211 -0.84512,-0.42731 -1.29143,-0.64777 l -4.15261,-2.0519 v 0 c -1.20268,-0.59443 -2.53578,-1.51275 -3.8732,-1.73925 -1.24683,-0.21112 -2.56233,0.71782 -3.63374,1.2783 l -0.0695,0.036 c -2.58998,1.32749 -5.16074,2.69902 -7.72136,4.08179 -1.24997,0.67518 -2.48374,1.37844 -3.72896,2.06162 -1.04118,0.57132 -2.16483,1.3914 -3.33513,1.71377 -0.49986,0.38866 -1.09364,0.33662 -1.57083,0.0427 0.21808,1.35059 0.2047,2.73659 0.27163,4.11741 0.09,1.84598 0.10377,3.69709 0.13347,5.54558 l 0.0121,0.69304 c 0.0786,4.08653 0.1207,8.17415 0.13625,12.26154 0.0553,14.55485 -0.10559,29.11401 -0.14316,43.66885 -0.019,7.31283 -0.16388,14.63193 -0.35389,21.94196 -0.0806,3.09754 -0.24896,6.19137 -0.430846,9.28425 l -0.10011,1.68694 c -0.21182,3.55947 -0.33683,7.15823 -0.99583,10.66976 -0.0859,0.45797 -0.86109,0.46963 -0.9371,0 -0.60647,-3.7627 -0.6402,-7.60795 -0.7568,-11.41478 l -0.0246,-0.76082 c -0.14013,-4.0874 -0.20663,-8.1722 -0.19238,-12.26176 0.0518,-14.56067 0.43033,-29.11227 0.73996,-43.66885 0.15568,-7.31369 0.2604,-14.63063 0.50223,-21.94195 0.12092,-3.65836 0.25781,-7.31434 0.42019,-10.97119 0.0725,-1.63275 0.14229,-3.26384 0.25073,-4.89415 l 0.049,-0.69865 c 0.0337,-0.45581 0.0609,-0.90601 0.0939,-1.35211 -1.47323,0.53808 -2.82058,-0.45818 -4.14591,-1.13985 -1.52743,-0.78573 -3.05421,-1.57277 -4.58229,-2.357 l -1.52929,-0.78286 v 0 l -3.06055,-1.56161 c -1.37801,-0.70326 -2.4397,-1.40306 -3.90948,-0.57824 -5.29504,2.97065 -10.16084,6.92331 -14.57039,11.07095 -0.84555,0.79545 -2.6323,0.58169 -2.84649,-0.75141 -0.91493,-5.69505 -0.35848,-11.47253 0.10863,-17.18484 l 0.1722,-2.12077 c 0.20866,-2.53301 0.43592,-5.06604 0.73875,-7.58872 0.13542,-1.12849 0.2703,-2.2563 0.41954,-3.38263 l 0.11485,-0.84447 c 0.18656,-1.33504 0.30834,-2.6621 0.70606,-3.94251 -0.12545,-0.0406 -0.24615,-0.1071 -0.35411,-0.20944 -1.19577,-1.134459 -0.61926,-3.103009 -0.0736,-4.452519 0.53873,-1.33202 1.36031,-2.49455 2.38917,-3.49513 0.22435,-0.21851 0.54067,-0.35908 0.85851,-0.36642 2.49454,-1.65266 5.23113,-2.47748 8.07935,-1.57536 0.08,-0.38251 0.16158,-0.7644 0.24747,-1.14533 l 0.0874,-0.38059 c 0.22153,-0.94509 0.3038,-2.5062 1.11912,-3.13842 z M 104.54825,235.67705 c 0.77408,-0.2129 1.62157,0.0114 2.1888,0.57867 0.56701,0.56722 0.79157,1.4145 0.57823,2.18858 -0.10666,0.3811 -0.29948,0.71189 -0.57823,0.9928 -0.26065,0.25885 -0.56468,0.44359 -0.91191,0.55424 l -0.0809,0.0242 -0.12653,0.0527 c -0.38801,0.10429 -0.77624,0.10429 -1.16403,0 -0.37096,-0.10407 -0.6929,-0.29171 -0.96625,-0.5629 -0.27142,-0.27336 -0.45905,-0.5953 -0.56313,-0.96647 -0.10429,-0.38801 -0.10429,-0.77602 0,-1.16403 l 0.0529,-0.12653 v 0 c 0.10667,-0.3811 0.29949,-0.71211 0.57824,-0.99259 0.2807,-0.27876 0.61171,-0.47179 0.99281,-0.57867 z m 45.96308,-77.13554 c 0.12718,-0.14596 0.33338,0.041 0.25436,0.19627 -1.20571,2.3637 -2.54961,4.71055 -3.8704,7.01422 0.1058,0.63848 0.21074,1.27178 0.33144,1.8891 0.51454,2.63122 1.14482,5.21493 1.55572,7.8712 1.4769,9.54784 2.24364,19.19932 2.90155,28.83288 0.65986,9.6681 0.74428,19.34053 0.84339,29.02764 0.009,0.8395 -0.63718,1.81525 -1.5026,1.97352 -0.39621,0.0723 -0.69267,0.0583 -1.08803,0 -0.90061,-0.13258 -1.46394,-1.16425 -1.50259,-1.97352 -0.25825,-5.41402 -0.60566,-10.82113 -1.00814,-16.22673 -0.71341,-9.58346 -1.14935,-19.19198 -1.72565,-28.78537 l -0.20296,-3.35291 c -0.21781,-3.63309 -0.41705,-7.2687 -0.48194,-10.9072 -0.0432,-2.41055 0.0857,-4.82045 0.006,-7.22819 -0.0732,-2.22292 -0.29862,-4.63994 0.19152,-6.82399 0.0181,-0.0818 0.14747,-0.10256 0.18483,-0.0242 0.50957,1.07269 0.83238,2.23867 1.08112,3.42883 1.31323,-1.66087 2.65065,-3.32541 4.0319,-4.91157 z M 64.488904,99.822101 c 0.18439,-0.0132 0.17705,0.263799 0,0.284309 -2.57724,0.29893 -5.06692,1.3477 -7.50039,2.23911 l -0.20845,0.076 c -2.45848,0.89197 -4.85543,1.92926 -7.16208,3.16563 -4.51,2.41746 -8.6514,5.5345 -12.313,9.10282 -14.6189,14.24478 -21.2812,34.78627 -26.163,54.09009 -2.7123998,10.72504 -4.6411998,21.63146 -5.8913998,32.62144 -0.6182,5.43518 -1.0552,10.89108 -1.31,16.35541 -0.1304,2.80051 -0.2127,5.6036 -0.247,8.40691 -0.018,1.43588 -0.023,2.87219 -0.021,4.30807 9e-4,0.65813 0.1183,1.48662 -0.058,2.12553 -0.1632,0.59184 -0.6236,1.11308 -0.9641,1.60624 -0.4036,0.58515 -1.1288,0.55427 -1.538,0 l -0.15090002,-0.20173 c -0.4364,-0.57883 -0.8634,-1.13229 -0.9257,-1.88882 -0.067,-0.811 -0.02,-1.64705 -0.023,-2.46172 -0.01,-1.64122 0.013,-3.28266 0.046,-4.92345 0.063,-3.14511 0.1872,-6.28893 0.3714,-9.4293 0.374,-6.37292 0.98960002,-12.73289 1.87100002,-19.05573 1.5667,-11.23872 3.915,-22.37012 6.9911,-33.2923 2.9019998,-10.30356 6.3398998,-20.57668 11.2373998,-30.12085 4.5473,-8.86142 10.5128,-17.10509 18.3844,-23.29816 3.6605,-2.87996 7.6454,-5.28014 11.94157,-7.08762 2.16677,-0.91162 4.44215,-1.65591 6.75618,-2.08019 2.28834,-0.419539 4.56675,-0.36102 6.87624,-0.541689 z M 104.99188,217.46486 c 0.40874,-0.003 0.86455,0.0868 1.21521,0.31287 l 0.46855,0.3621 v 0 c 0.12696,0.16302 0.25327,0.32669 0.37916,0.49079 0.293,0.38175 0.33187,0.9995 0.27076,1.45445 -0.0138,0.3038 -0.10407,0.58622 -0.27076,0.84814 l -0.35671,0.46185 v 0 c -0.34288,0.27962 -0.62876,0.47913 -1.04398,0.61365 -0.21706,0.0702 -0.42608,0.0849 -0.63446,0.0742 l -0.0694,-0.004 0.0417,0.006 -0.073,-0.008 v 0 c -0.0678,-0.006 -0.13581,-0.0132 -0.20405,-0.0225 -0.0464,-0.006 -0.0931,-0.009 -0.13948,-0.0158 -0.0447,-0.004 -0.0879,-0.005 -0.13301,-0.001 -0.52771,0.0497 -1.05823,-0.24961 -1.43285,-0.59336 -0.33749,-0.30984 -0.64043,-0.96689 -0.59336,-1.43264 l 0.0201,-0.19464 c 0.0356,-0.32837 0.0647,-0.45756 0.20384,-0.78737 0.13516,-0.32086 0.32409,-0.60393 0.58126,-0.84317 0.4923,-0.45797 1.09494,-0.71557 1.77055,-0.72032 z m -1.63351,-24.02845 c 0.70045,-0.76328 1.90335,-0.81942 2.772,-0.35778 0.21161,0.11271 0.40593,0.29343 0.59249,0.44415 0.47006,0.38002 0.65468,1.06557 0.68059,1.64316 0.0257,0.57111 -0.27552,1.24932 -0.68059,1.6436 l -0.0982,0.0952 v 0 c -0.24205,0.23535 -0.58882,0.44005 -0.92739,0.50223 -0.54606,0.1004 -1.00468,0.0974 -1.51318,-0.11724 -0.43693,-0.18431 -0.8134,-0.48063 -1.06956,-0.88272 l -0.0416,-0.068 c -0.0175,-0.0282 -0.0342,-0.0569 -0.0497,-0.0862 l -0.0226,-0.0444 c -0.48669,-0.9358 -0.35584,-1.99512 0.35778,-2.772 z m 0.36279,-24.15504 c 0.31589,-0.0991 0.63157,-0.11315 0.94747,-0.0423 0.21441,4.3e-4 0.41435,0.0546 0.59961,0.16194 0.20124,0.0563 0.37614,0.15827 0.52426,0.30574 0.17835,0.10537 0.32064,0.24745 0.42623,0.42602 0.21009,0.22952 0.35173,0.49877 0.42536,0.80797 l 0.0846,0.63157 -0.0846,0.63179 -0.23967,0.56766 v 0 c -0.0659,0.0859 -0.13214,0.17187 -0.19908,0.25738 -0.1058,0.179 -0.24831,0.32172 -0.42731,0.42752 -0.11638,0.11574 -0.24982,0.20232 -0.39902,0.26235 -0.52901,0.37916 -1.23378,0.50288 -1.8606,0.33014 -0.37225,-0.10407 -0.69548,-0.29257 -0.96949,-0.56485 -0.27227,-0.27422 -0.46077,-0.59745 -0.56485,-0.96949 l -0.0429,-0.29714 c -0.0553,-0.39856 -0.0641,-0.61933 0.0488,-1.126 0.0495,-0.22283 0.19304,-0.53699 0.26818,-0.66935 0.32129,-0.56485 0.84619,-0.952 1.46308,-1.14093 z m 27.42909,-17.37783 c 0.90704,-0.006 1.81408,-0.005 2.72102,0.005 l 0.68017,0.009 c 1.13899,0.0179 2.11452,-0.0995 3.00995,0.69073 0.64992,0.57349 0.36361,1.53564 -0.25328,1.9677 -0.93472,0.65424 -2.10718,0.32517 -3.1816,0.25306 -1.13316,-0.076 -2.26718,-0.13906 -3.40163,-0.19002 -2.19657,-0.0982 -4.39401,-0.16086 -6.59273,-0.17057 -2.19398,-0.009 -4.3912,0.0114 -6.58497,0.0469 -2.23219,0.0363 -4.55637,0.24421 -6.77605,0.0132 -0.30488,-0.0317 -0.37354,-0.4327 -0.0726,-0.53699 2.09163,-0.72356 4.44453,-0.95805 6.63657,-1.23464 2.26091,-0.28567 4.52183,-0.48777 6.797,-0.61884 2.33691,-0.13408 4.67729,-0.21851 7.0181,-0.23492 z m -27.43324,-7.10684 0.0748,0.002 c 0.39923,0.001 0.77287,0.0949 1.12129,0.28177 l 0.0743,0.0415 0.47935,0.37009 c 0.29344,0.29581 0.49662,0.64409 0.6089,1.04528 l 0.0846,0.62962 v 0 c 0.0125,0.32605 -0.0557,0.63006 -0.20383,0.91249 -0.0957,0.29365 -0.25889,0.54758 -0.48971,0.7622 -0.21463,0.23082 -0.46877,0.39406 -0.7622,0.48971 -0.2607,0.13673 -0.5398,0.20538 -0.83781,0.20546 l -0.0749,-0.002 c -0.4273,-0.002 -0.8259,-0.10926 -1.19512,-0.32345 l -0.47956,-0.37031 v 0 c -0.29344,-0.2956 -0.49662,-0.64388 -0.6089,-1.04506 l -0.0849,-0.62963 v 0 c -0.0121,-0.32604 0.0557,-0.63049 0.20426,-0.91248 0.0954,-0.29366 0.25868,-0.5478 0.4895,-0.76242 0.21462,-0.23082 0.46855,-0.39406 0.76242,-0.4895 0.2605,-0.13692 0.53958,-0.20541 0.83742,-0.20529 z m 7.0215,-55.636609 c 0.51022,-0.7391 1.43501,-0.0818 1.30265,0.51238 0.035,1.66886 0.12027,3.28849 0.50008,4.92323 0.17381,0.74838 0.40161,1.49763 0.75291,2.18318 l 0.14755,0.28868 c 0.45475,0.89838 0.80775,1.74565 0.19534,2.7312 -0.28869,0.464669 -0.81036,0.813599 -1.37585,0.789199 -2.50793,-0.10818 -2.85255,-3.598979 -3.00499,-5.547679 -0.15719,-2.00699 0.33166,-4.21263 1.48231,-5.88019 z"
     id="path29"
     fill="#0f0f1b"
     style="fill-rule:evenodd;stroke:none;stroke-width:0.215922" /><path
     d="m 130.93679,29.514208 c -7.63013,-20.07396 -21.38421,-34.77141 -44.571516,-25.54004 -0.66518,-0.45285 -1.53314,-0.5743 -2.36489,-0.044 -12.631,7.93117 -21.72682,20.64675 -25.66865,34.98505 -2.39894,0.4561 -4.72999,1.25163 -6.81206,2.55617 -4.52499,2.8353 -7.56939,7.34689 -10.42309,11.74092 -0.8582,1.32103 -0.064,3.50807 1.5491,3.80802 0.7006,0.13056 1.3948,0.2082 2.0852,0.22859 -0.1681,0.61009 -0.3893,1.19958 -0.6711,1.74026 -1.02,1.957153 0.907,4.035103 2.713,3.500053 0.2004,0.10605 0.4103,0.19324 0.6279,0.25874 0.025,1.1087 0.5944,2.59282 1.722,2.81686 1.82356,0.39126 4.247,-1.00438 3.81671,-3.04394 0.55088,0.0969 1.09981,0.10909 1.63485,0.0419 0.0599,1.06207 0.0412,2.17034 0.18782,3.15 0.47931,4.61698 5.0924,7.7184 9.49164,6.31387 0.2698,1.43858 0.58666,3.45992 2.00355,4.24026 1.65655,4.64714 4.51701,9.95056 9.2021,12.06798 -0.41707,1.06858 -0.19086,2.36857 1.06532,3.08363 8.57574,4.88918 18.86897,6.54355 28.564466,4.72586 3.87482,-0.23076 7.65009,-1.10631 11.27375,-2.97172 2.6425,-1.36028 5.07179,-3.08775 7.44318,-4.86857 2.37269,-1.78147 4.90956,-3.51609 6.80338,-5.82914 2.05691,-2.51215 3.01444,-5.46782 3.63581,-8.61369 2.84745,-14.279313 1.86396,-28.300063 -3.30847,-41.902483 -6.40265,-16.83766 6.40035,14.39403 0,-2.44451 z"
     id="path30"
     fill="#fafbf6"
     style="fill:#c6b7be;fill-opacity:1;fill-rule:evenodd;stroke:none;stroke-width:0.216882" /><path
     style="fill:#c6b7be;fill-opacity:1;stroke:none;stroke-width:2.13543;stroke-dasharray:none;stroke-opacity:1"
     d="m 103.43044,81.703051 2.75675,1.24095 2.95383,0.25932 3.50967,0.1792 3.39368,-0.40691 2.75185,-0.97296 -1.00743,-2.15854 c 0,0 -0.38901,-1.33128 -1.76895,-0.91152 -1.37993,0.41976 -3.9382,-0.0684 -4.14823,-0.17379 -0.21003,-0.10537 -3.25531,0.4411 -3.45737,0.40908 -0.20206,-0.032 -0.97247,-0.1385 -1.99794,0.16367 -1.02546,0.30218 -1.32315,0.48478 -1.90721,0.87325 -0.58406,0.38847 -1.07865,1.49825 -1.07865,1.49825 z"
     id="path155" /><path
     d="m 97.320444,75.572131 c 0.0203,-2.12981 1.86601,-2.49708 3.619246,-2.21312 2.96816,0.48016 5.94734,0.81806 8.95571,0.87894 l 0.51844,0.009 v 0 c 0.0835,-0.12178 0.22307,-0.21419 0.41251,-0.23448 1.66762,-0.18016 3.37119,-0.15097 5.0479,-0.20045 1.46272,-0.0429 2.96584,-0.18925 4.42837,-0.0745 l 0.11641,0.0102 c 1.7875,0.17307 3.67381,1.08538 3.45794,3.18312 -0.19851,1.9425 -2.05538,3.66212 -3.53821,4.74152 -0.29981,0.21631 -0.60639,0.41908 -0.92185,0.60388 -0.099,0.12622 -0.24337,0.21417 -0.41019,0.23215 -1.46021,0.78868 -3.07138,1.2553 -4.7392,1.41073 -3.53589,0.329 -7.64647,-0.0271 -11.0426,-1.55938 -1.10414,-0.49814 -2.13406,-1.12019 -3.04452,-1.88412 -1.403946,-1.17857 -2.875566,-2.96565 -2.859956,-4.9037 z m 13.931746,4.22308 c -1.41748,-0.0427 -2.83266,0.15561 -4.18268,0.59285 -0.9149,0.29518 -1.7488,0.86291 -2.62543,1.25744 2.95444,1.12676 6.38671,1.37245 9.4177,1.16735 1.32973,-0.0901 2.61885,-0.39665 3.82004,-0.92399 -0.18712,-0.13511 -0.37655,-0.27254 -0.57488,-0.3922 -0.59924,-0.36283 -1.22593,-0.67154 -1.87948,-0.91722 -1.27309,-0.47765 -2.61635,-0.74132 -3.97527,-0.78423 z"
     id="ðŸ–-Ink-3"
     fill="#0f0f1b"
     style="fill-rule:evenodd;stroke:none;stroke-width:0.193302"
     sodipodi:nodetypes="scccscccccccccccsscccccccc" /><path
     style="fill:#fafbf6;fill-opacity:1;stroke:none;stroke-width:2.13543;stroke-dasharray:none;stroke-opacity:1"
     d="m 48.886884,43.433118 -3.7091,3.00277 -2.7338,4.72849 c 0,0 -1.2266,1.83456 -1.3474,2.0479 -0.1209,0.21334 0.042,2.68763 0.042,2.68763 l 0.9854,0.94652 1.7001,0.34334 1.1338,-0.59487 -0.479,2.97877 -0.7013,0.599513 1.2137,2.05186 1.1908,0.34953 1.2754,-0.51652 0.1055,1.71859 1.0313,1.57141 1.97573,0.18824 1.79522,-1.01179 0.62453,-1.50467 1.58478,-0.45707 0.87664,-3.055443 2.6235,-4.32616 2.80949,-1.63988 2.8213,-1.53843 1.56549,-0.53177 1.40091,0.66253 1.52001,2.22445 1.2536,2.27662 1.00246,0.94828 2.0638,0.47306 1.57627,-0.22346 1.05434,-0.94688 -1.21702,-4.54804 -0.22788,-3.98534 -0.70042,-2.34088 -4.17283,-5.25975 -3.8489,-1.99612 -4.65645,-1.01889 -4.32762,1.10964 -4.75663,1.86992 -2.41392,2.77499 z"
     id="path147" /><path
     d="m 94.048974,0.06243802 c 3.90496,-0.27566 7.881056,0.38258 11.599726,1.56002998 5.93086,1.87734 11.37764,5.19043 15.85257,9.50356 4.61199,4.445 8.0229,9.9254 10.09695,15.97837 2.50108,7.29982 2.87542,15.09413 3.57942,22.71428 0.35562,3.85003 0.94162,7.64134 1.55086,11.454063 l 0.0964,0.6022 c 0.59512,3.71476 0.92999,7.47181 0.10779,11.18071 -1.36679,6.16423 -5.46413,11.39673 -10.32771,15.26309 -9.99111,7.94266 -25.5446,12.784979 -37.177506,5.47627 -1.79969,-1.13082 -0.0944,-4.02251 1.66262,-2.84419 1.23644,0.82957 2.54641,1.55678 3.95116,2.05886 5.869256,2.09747 12.315216,1.35031 18.115946,-0.60076 5.71636,-1.92266 11.20153,-5.17134 15.41945,-9.50638 4.43047,-4.55344 6.88579,-10.17785 6.53098,-16.57761 -0.21146,-3.8078 -1.07899,-7.545113 -1.56047,-11.321903 -0.42651,-3.34504 -0.68222,-6.70822 -0.97698,-10.0668 l -0.10804,-1.20805 c -0.62494,-6.84278 -1.52251,-13.87326 -4.6359,-20.08457 -2.61885,-5.22556 -6.45355,-9.87443 -11.06446,-13.4647 -4.82736,-3.75878 -10.59318,-6.38761 -16.64289,-7.36814 -7.114166,-1.15294 -13.924266,0.94366 -19.858816,4.84667 -5.26329,3.46144 -9.78832,8.0871 -13.258,13.33565 -1.68258,2.54489 -3.11595,5.26265 -4.3537,8.0498 -1.16639,2.62601 -1.97059,5.37824 -2.9086,8.08493 0.77188,-0.023 1.55656,0.007 2.35338,0.0948 4.08693,0.45285 7.89473,2.57092 10.31883,5.91069 2.96239,4.08107 2.16166,9.09062 3.31873,13.7319 0.0896,0.36024 -0.0627,0.71289 -0.37131,0.9122 -1.75436,1.13386 -4.10232,1.1716 -5.80029,-0.10518 -1.47372,-1.10805 -2.16557,-3.1114 -1.56893,-4.86185 0.0779,-0.22816 0.41013,-0.18782 0.41945,0.0568 0.11213,2.97887 2.87586,5.27284 5.58493,3.8553 -1.16205,-4.00213 -0.55044,-8.47186 -2.92725,-12.08685 -4.20687,-6.39802 -12.91252,-6.6624 -19.02708,-3.05565 -3.21795,1.89787 -5.76515,4.75161 -7.66175,7.94359 l -0.5465,0.92664 c -0.727,1.2381 -1.4969,2.63873 -1.6477,4.00216 -0.087,0.78685 0.2034,1.5262 1.1061,1.12974 0.7302,-0.32055 1.2956,-1.06858 1.7294,-1.71164 0.7397,-1.09677 2.4397,-0.14923 1.8287,1.01871 l -0.021,0.0382 c -0.8893,1.57551 -1.4369,3.31168 -1.5374,5.120633 l -0.026,0.50093 c -0.017,0.36509 -0.029,0.88397 0.048,0.90291 0.093,0.0228 0.7361,-0.72005 0.8432,-0.82286 0.5162,-0.49579 1.0478,-0.90092 1.7663,-1.033003 0.9446,-0.17312 1.89758,0.995543 1.0777,1.761693 l -0.034,0.0308 c -0.7318,0.63611 -0.6993,1.90466 0.1091,2.49956 1.14077,0.8396 2.54527,-0.5308 2.71085,-1.65911 l 0.006,-0.0417 c 0.1464,-1.21909 1.8396,-1.26225 1.93156,0 0.19975,2.73923 -3.06151,5.03514 -5.54291,3.65317 -0.9811,-0.54611 -1.6049,-1.54616 -1.8003,-2.61799 -0.3132,0.16548 -0.6511,0.28021 -1.0083,0.31188 -1.1629,0.10302 -1.9897,-0.71463 -2.1777,-1.81205 -0.219,-1.27852 -0.089,-2.647483 0.2477,-3.975233 -0.6316,0.15225 -1.2959,0.0941 -1.9637,-0.29128 -2.0202,-1.16574 -1.4401,-3.75878 -0.6773,-5.50945 3.2565,-7.47246 10.00327,-14.25285 18.36191,-14.79115 0.0458,-1.31843 0.22448,-2.56485 0.51683,-3.88501 2.85894,-12.91295 12.12068,-24.8701 24.17825,-30.45872 3.222,-1.49345 6.63898,-2.49804998 10.19129,-2.74897998 z m -31.62003,51.58234998 0.11458,-0.0258 c 1.30267,-0.28067 4.7308,-0.61038 4.31762,1.58173 -0.0195,0.10302 -0.16939,0.0904 -0.19606,0 -0.4047,-1.37828 -3.1539,-0.27609 -3.95658,0.0557 -1.10654,0.45719 -2.1981,1.1317 -3.10164,1.91572 -1.97818,1.71684 -3.3042,4.13638 -3.5059,6.764123 -0.19996,2.6067 0.55631,5.42227 2.43668,7.30784 0.92175,0.92414 2.09833,1.55158 3.42001,1.59777 1.18743,0.0412 2.49935,-0.88314 3.59504,-0.3418 0.21601,0.1067 0.38713,0.39971 0.36761,0.64088 -0.0369,0.45654 -0.24117,0.81201 -0.54524,1.08767 1.83439,3.3428 3.33565,6.88102 5.67559,9.92084 1.1742,1.52512 2.50478,2.93745 4.01146,4.13941 0.71614,0.57149 1.49475,1.07335 2.29765,1.51427 0.94083,0.51727 1.75501,0.84086 2.42647,1.71706 0.57257,0.74716 -2.1e-4,2.19181 -0.94408,2.32064 -2.22283,0.30277 -4.38298,-1.49432 -6.0148,-2.84051 -1.6303,-1.3451 -3.03939,-3.00425 -4.20383,-4.76468 -2.23605,-3.38054 -3.76572,-7.36857 -4.37733,-11.40323 -0.71007,0.22512 -1.5095,0.29387 -2.11091,0.29517 -1.60016,0.004 -3.12809,-0.57191 -4.38558,-1.54463 -4.60354,-3.56055 -5.11516,-10.871 -1.86648,-15.481043 1.55461,-2.20591 3.91689,-3.83578 6.54572,-4.45715 z m 0.0289,8.478793 c 1.06749,-0.0937 2.13412,0.0748 3.13742,0.43875 l 0.4136,0.14993 c 0.8737,0.31946 1.8037,0.69508 2.43471,1.35003 0.96404,1.00112 0.004,2.73575 -1.36917,2.35208 -1.5184,-0.42422 -2.75246,-1.70296 -4.27042,-2.23931 -1.35681,-0.4793 -2.89364,-0.41142 -4.09777,0.41403 -0.15898,0.10909 -0.36805,-0.10605 -0.26416,-0.26438 0.92109,-1.40257 2.37529,-2.05734 4.01579,-2.20113 z"
     id="path31"
     fill="#0f0f1b"
     style="fill-rule:evenodd;stroke:none;stroke-width:0.216882" /><g
     id="g34"
     stroke="none"
     stroke-width="1"
     fill="none"
     fill-rule="evenodd"
     transform="matrix(0.23839173,0,0,0.23839173,63.317874,61.521401)"><path
       d="m 245.36528,32.822685 c -14.02631,-2.365455 -28.59864,1.130516 -42.12249,4.855574 -21.48317,-14.105353 -49.32001,0.132125 -64.7058,17.75476 -5.26569,4.336667 -16.32384,10.096868 -10.49795,18.37063 -2.20839,5.84864 -2.79898,8.600878 1.77178,1.763436 25.86854,2.978128 53.62333,-2.647817 79.22443,-7.954107 8.71706,2.931246 16.41502,9.78467 25.9972,7.43733 9.06047,1.92646 18.86855,3.725058 27.0477,-2.087354 6.22806,-0.252528 20.08418,10.93117 19.86132,-2.074567 C 280.0147,58.421803 255.29669,37.678259 245.36528,32.822685 Z"
       id="path33"
       fill="#fafbf6" /><path
       d="m 255.8834,72.8453 c -15.228,1.685 -30.671,-0.791 -43.422,-9.633 -1.331,-0.923 -2.643,-0.913 -3.713,-0.372 -1.301,-0.144 -2.632,0.375 -3.404,1.861 -3.202,6.167 -13.815,4.793 -19.649,4.919 -19.083,0.368 -38.832,-0.685 -57.197,5.084 17.564,-34.334 41.855,-49.156 79.442,-35.677 -3.394,2.733 13.542,-3.665 15.028,-3.787 26.006,-6.516 47.461,15.296 57.942,36.91 -7.929,-1.887 -16.814,-0.214 -25.027,0.695 m 36.324,5.843 c -11.467,-25.829 -34.077,-54.229 -65.614,-49.765 -6.475,0.953 -13.286,5.376 -19.805,4.578 -18.875,-6.971 -34.455,-10.513 -53.358,0.759 -8.02,0.599 -53.152,56.476 -31.705,51.914 26.326,-15.118 72.1,-0.878 88.448,-14.4 32.095,21.069 58.191,-1.818 76.279,11.352 3.145,2.885 7.556,-0.708 5.755,-4.438"
       id="path34"
       fill="#0f0f1b" /></g><path
     d="m 130.52216,61.452471 c -2.60836,2.69516 -6.96273,3.46857 -10.43303,2.02313 -8.91068,-3.72294 -4.54922,-15.335003 2.32284,-18.453403 0.8585,-0.21398 2.0051,-0.72164 3.05072,-0.83679 0.0945,-0.0464 0.30034,0.0879 0.54977,-0.0391 7.5776,0.84603 9.30319,12.60892 4.5097,17.306163 m -28.74077,0.68985 c -2.925476,3.88021 -8.364346,5.0773 -12.808076,3.27351 -8.77877,-3.4572 -5.6651,-13.754243 0.34116,-17.791073 12.687766,-4.76749 17.927056,7.36319 12.466916,14.517563 M 82.750914,53.544888 c -0.008,-0.004 -0.0164,-0.005 -0.0247,-0.009 0.0464,-0.0204 0.0928,-0.0408 0.139,-0.0616 -0.0151,0.0393 -0.0313,0.0783 -0.046,0.11753 -0.0228,-0.0157 -0.0428,-0.0339 -0.0683,-0.0462 m 53.810816,-4.1943 c -0.71627,10e-4 -1.75094,0.11922 -2.3439,0.61615 -1.4622,-4.9312 -6.85938,-9.49503 -11.55319,-6.16718 -3.69632,1.18871 -6.43917,3.82501 -7.99805,7.3299 -2.81073,-1.67188 -7.23041,-0.95798 -9.66776,1.25294 -1.59626,-5.27452 -5.524806,-7.1215 -10.200786,-7.39413 -5.10372,-0.83594 -10.19069,4.12063 -11.77791,8.09687 -1.31977,-0.15017 -3.29178,-0.57018 -4.53334,0.24426 -8.05798,-2.11316 -22.14606,-3.27822 -23.78421,-2.10413 -1.16744,0.44795 -1.80809,3.20348 -0.17747,3.35214 1.42096,-0.20174 -0.16585,-2.01905 1.26649,-2.21736 7.63174,-0.47307 15.04048,1.06389 22.59143,1.70883 0.67417,0.90684 2.85243,1.2102 4.01449,0.84582 -1.83021,6.745093 2.12067,11.334073 8.04057,12.708613 9.16656,2.10563 17.141596,-6.09435 14.744636,-14.623463 2.7768,-1.38142 5.97081,-1.32212 8.99575,-0.59446 -5.05473,18.602933 24.90611,17.768283 20.22669,-1.80122 3.1141,1.549 3.79041,-0.94099 2.15656,-1.25358"
     id="path35"
     fill="#0f0f1b"
     style="fill-rule:evenodd;stroke:none;stroke-width:0.214839" /><path
     d="m 112.98676,62.079491 c 1.87561,1.14008 4.73345,3.79851 2.71573,6.62489 -2.37504,2.49211 -5.79459,-0.36527 -7.47968,-1.65755 -1.5625,-1.00152 -3.31803,1.57433 -1.86836,2.74377 12.17649,9.015 17.11797,-7.41299 7.58096,-9.05155 -1.05005,-0.18057 -1.44004,0.98775 -0.94865,1.34044 z M 91.166384,51.592728 c 0.20722,-2.57229 4.12484,-3.15641 4.51454,-0.61102 0.34897,2.28013 -0.0618,4.37471 -1.0889,6.42756 -0.98134,1.9612 -3.44787,1.04621 -3.63441,-0.73964 -0.25004,-2.39385 0.0798,-3.47679 0.20877,-5.0769 z m 29.821336,-1.1388 c 0.54619,-0.71533 1.33479,-1.20365 2.27964,-0.9277 2.95198,0.86263 2.08191,5.05353 1.04517,7.09347 -0.56331,1.10777 -2.38419,1.3887 -3.20706,0.4133 -1.34126,-1.59062 -1.98357,-4.76714 -0.27844,-6.33392 0.0462,-0.081 0.0976,-0.16269 0.16069,-0.24515 z m -26.437266,-10.11674 0.46629,-0.0816 c 1.44255,-0.24948 3.23617,-0.48921 4.25664,0.67053 0.54122,0.61498 0.727496,1.75802 0,2.34668 -1.27964,1.03575 -2.69442,0.63436 -4.22791,0.72204 -1.26376,0.0725 -2.47833,0.28167 -3.69564,0.62965 -2.67057,0.76327 -4.84663,2.15667 -7.12749,3.68669 -0.29929,0.20069 -0.60481,-0.18206 -0.46199,-0.46199 1.31666,-2.57892 3.86827,-4.69735 6.42409,-5.98867 1.36409,-0.68925 2.85685,-1.26102 4.36601,-1.52331 z m 23.746306,-1.15524 0.3569,0.073 c 3.88396,0.81186 8.93015,2.4336 10.7694,6.24858 0.0701,0.53944 -0.003,0.65506 -0.0642,0.73059 l -0.0201,0.0251 c -0.0496,0.0645 -0.0892,0.15343 -0.32303,0.22685 -0.0648,-0.0154 -0.13041,-0.0318 -0.19665,-0.0492 -0.84307,-0.22094 -1.51011,-0.52532 -2.15587,-0.84115 l -0.70017,-0.34495 c -0.81234,-0.3983 -1.63185,-0.78211 -2.50035,-1.06545 -1.85344,-0.60454 -3.75986,-1.03041 -5.69582,-1.25781 -0.41959,-0.0492 -0.82364,-0.19086 -1.14242,-0.43356 -0.30257,-0.23038 -0.53372,-0.54935 -0.63911,-0.97332 -0.13659,-0.54869 -0.0973,-0.96409 0.19705,-1.45908 0.22137,-0.37174 0.53811,-0.62939 0.9018,-0.77735 0.37078,-0.15084 0.7929,-0.1864 1.2125,-0.10234 z"
     id="path71"
     fill="#0f0f1b"
     style="fill-rule:evenodd;stroke:none;stroke-width:0.24838"
     sodipodi:nodetypes="cccccccccsccccccccccccccccscccccccsccccsccssc" /><g
     id="g73"
     stroke="none"
     stroke-width="1"
     fill="none"
     fill-rule="evenodd"
     transform="matrix(0.23839173,0,0,0.23839173,63.317874,61.521401)"><path
       d="m 245.36528,32.822685 c -14.02631,-2.365455 -28.59864,1.130516 -42.12249,4.855574 -21.48317,-14.105353 -49.32001,0.132125 -64.7058,17.75476 -5.26569,4.336667 -16.32384,10.096868 -10.49795,18.37063 -2.20839,5.84864 -2.79898,8.600878 1.77178,1.763436 25.86854,2.978128 53.62333,-2.647817 79.22443,-7.954107 8.71706,2.931246 16.41502,9.78467 25.9972,7.43733 9.06047,1.92646 18.86855,3.725058 27.0477,-2.087354 6.22806,-0.252528 20.08418,10.93117 19.86132,-2.074567 C 280.0147,58.421803 255.29669,37.678259 245.36528,32.822685 Z"
       id="path72"
       fill="#fafbf6" /><path
       d="m 255.8834,72.8453 c -15.228,1.685 -30.671,-0.791 -43.422,-9.633 -1.331,-0.923 -2.643,-0.913 -3.713,-0.372 -1.301,-0.144 -2.632,0.375 -3.404,1.861 -3.202,6.167 -13.815,4.793 -19.649,4.919 -19.083,0.368 -38.832,-0.685 -57.197,5.084 17.564,-34.334 41.855,-49.156 79.442,-35.677 -3.394,2.733 13.542,-3.665 15.028,-3.787 26.006,-6.516 47.461,15.296 57.942,36.91 -7.929,-1.887 -16.814,-0.214 -25.027,0.695 m 36.324,5.843 c -11.467,-25.829 -34.077,-54.229 -65.614,-49.765 -6.475,0.953 -13.286,5.376 -19.805,4.578 -18.875,-6.971 -34.455,-10.513 -53.358,0.759 -8.02,0.599 -53.152,56.476 -31.705,51.914 26.326,-15.118 72.1,-0.878 88.448,-14.4 32.095,21.069 58.191,-1.818 76.279,11.352 3.145,2.885 7.556,-0.708 5.755,-4.438"
       id="path73"
       fill="#0f0f1b" /></g></svg>
