<?xml version="1.0" encoding="UTF-8" standalone="no"?>
<svg
   version="1.0"
   width="45.245182mm"
   height="64.408592mm"
   id="svg24"
   sodipodi:docname="all.wmf"
   xml:space="preserve"
   xmlns:inkscape="http://www.inkscape.org/namespaces/inkscape"
   xmlns:sodipodi="http://sodipodi.sourceforge.net/DTD/sodipodi-0.dtd"
   xmlns="http://www.w3.org/2000/svg"
   xmlns:svg="http://www.w3.org/2000/svg"><sodipodi:namedview
     id="namedview24"
     pagecolor="#fafbf6"
     bordercolor="#0f0f1b"
     borderopacity="0.25"
     inkscape:showpageshadow="2"
     inkscape:pageopacity="0.0"
     inkscape:pagecheckerboard="0"
     inkscape:deskcolor="#c6b7be"
     inkscape:document-units="mm"><inkscape:page
       x="0"
       y="0"
       width="171.00542"
       height="243.43405"
       id="page1"
       margin="0"
       bleed="0" /></sodipodi:namedview><defs
     id="defs1" /><path
     d="m 11.587362,239.58946 c 28.2091,4.28475 56.9298,4.50024 85.3733,2.94431 11.256798,-0.84275 22.548198,-0.99454 33.795898,0.0829 6.6464,0.49424 35.7872,2.72169 38.1682,-3.23105 -1.4985,-31.69837 -4.5335,-63.66665 -13.8439,-94.15262 -3.829,-10.8248 -7.1176,-19.80924 -14.5908,-28.76697 -2.3552,-2.44574 -7.4346,-7.57521 -10.3449,-9.24817 -2.5215,-1.44905 -3.5754,-0.9321 -5.0232,-3.37979 -1.4388,-2.70392 -2.5,-7.219689 -4.5429,-9.127659 -2.08,-1.94265 -5.1625,-1.24761 -8.9832,-0.6219 0.7019,-9.48557 -3.6766,-11.90138 -9.7086,-13.70519 -10.602798,-4.04659 -21.074198,-2.0137 -23.742698,10.89345 -4.9481,0 -7.7275,2.12933 -10.7323,4.17532 -1.2283,0.83636 -0.3739,2.96722 -1.841,3.62458 -2.7145,0.966459 -7.5114,0.72973 -10.125,1.919169 -11.8851,5.40878 -22.4707,13.25229 -29.4226,24.70727 -15.5852,24.45657 -26.29109989,75.97461 -24.4384999,104.96122 -0.81169999,1.27286 0.3107,3.09804 0.596,4.46677 0.3602,1.19059 1.5264,1.98259 2.7435,1.84721 1.6984,1.82648 4.3253,2.23306 6.6626999,2.61114 z"
     id="ðŸŽ¨-Background"
     fill="#fafbf6"
     style="fill:#565a75;fill-opacity:1;fill-rule:evenodd;stroke:none;stroke-width:0.215922"
     inkscape:export-filename="grandpa_idle0.png"
     inkscape:export-xdpi="96"
     inkscape:export-ydpi="96" /><path
     style="fill:#c6b7be;fill-opacity:1;stroke:none;stroke-width:2.13543;stroke-dasharray:none;stroke-opacity:1"
     d="m 78.144562,91.425731 -0.1088,6.75593 1.2017,3.696179 4.2065,6.08321 4.9993,6.69248 6.4968,6.64879 1.6521,1.88459 4.327798,6.32209 6.5363,-13.9373 6.9471,-15.20669 -2.1909,-3.674599 -2.3071,-5.81625 z"
     id="path143" /><path
     d="m 128.34896,106.50084 c -0.1732,-0.0965 -0.021,-0.34396 0.1533,-0.26213 8.3659,3.92459 14.7837,10.81012 19.2995,18.76575 4.676,8.2377 7.3411,17.59059 9.6388,26.732 l 0.083,0.33032 c 2.45,9.77909 4.5333,19.65923 6.4088,29.56355 1.8994,10.02978 3.424,20.12174 4.6505,30.25537 0.6067,5.01046 1.1476,10.02978 1.5695,15.05924 0.2108,2.51333 0.4023,5.0286 0.5744,7.54495 0.069,1.00636 0.1335,2.01273 0.189,3.01998 l 0.04,0.75562 c 0.034,0.68534 0.1157,1.3724 -0.054,2.04845 -0.1462,0.58277 -0.4547,1.11049 -0.7261,1.64554 -0.5368,1.05758 -2.0083,0.88333 -2.5868,0 l -0.168,-0.25731 c -0.3836,-0.59286 -0.7023,-1.14383 -0.8226,-1.88161 -0.1164,-0.71449 -0.1207,-1.46309 -0.173,-2.1847 -0.096,-1.3277 -0.1779,-2.65669 -0.2712,-3.98483 -0.1958,-2.79575 -0.4158,-5.58978 -0.6594,-8.38164 -0.4817,-5.51162 -0.9984,-11.01827 -1.633,-16.51477 -1.1276,-9.76829 -2.5425,-19.51067 -4.2105,-29.20124 -1.6297,-9.46648 -3.69,-18.83691 -5.8393,-28.19557 l -0.2227,-0.96809 c -3.7633,-16.33966 -9.5634,-35.15679 -25.2404,-43.88888 z m -89.108098,63.98241 c 0.062,-0.16345 0.3263,-0.20102 0.3709,0 0.5636,2.5373 0.6193,5.15059 0.7055,7.74835 0.085,2.56256 0.081,5.13677 0.044,7.70084 -0.1378,9.42347 -0.3965,18.83895 -0.6202,28.2609 -0.1118,4.71292 -0.2167,9.42649 -0.2973,14.14006 -0.031,1.76791 -0.056,3.5357 -0.077,5.30365 l -0.026,2.33171 c -0.013,1.0309 -0.04,2.04921 -0.1657,3.0791 -0.083,0.67735 -0.2595,1.32339 -0.6335,1.904 -0.2654,0.41213 -0.6437,0.62133 -1.0124,0.90139 l -0.069,0.0534 c -0.4702,0.37161 -0.9656,0.3742 -1.4313,0 l -0.1352,-0.10701 c -0.4449,-0.34791 -0.8294,-0.61974 -1.1135,-1.16995 -0.3951,-0.76501 -0.4584,-1.59609 -0.5255,-2.43905 -0.1019,-1.27825 -0.034,-2.57529 -0.021,-3.85722 0.026,-2.57163 0.062,-5.14282 0.1071,-7.71423 0.1656,-9.42951 0.4929,-18.86075 1.0895,-28.27342 0.2811,-4.43366 0.6621,-8.88167 1.1733,-13.29739 l 0.097,-0.82756 c 0.1551,-1.2992 0.2965,-2.6215 0.4558,-3.94813 -2.3788,-1.67317 -4.4698,-3.70327 -6.2528,-6.00629 -0.1313,-0.1695 0.085,-0.40722 0.2433,-0.24312 1.822,1.8865 3.911,3.3904 6.2237,4.573 0.379,-2.77697 0.9,-5.53904 1.8703,-8.11304 z m 39.7409,-84.055259 c 0.033,-0.0253 0.084,-0.0363 0.1146,0 0.5114,0.5961 0.4077,1.50751 0.4241,2.2629 v 0.0703 c 0.037,1.10444 0.044,2.20542 0.04,3.31051 l -0.011,3.51758 v 0 c 0,0.48366 -0.041,0.98712 -0.016,1.47366 l 0.013,0.18829 v 0 c 0.2687,0.27508 0.3935,0.67259 0.3023,1.07183 -0.016,0.51217 -0.2841,0.93948 -0.6747,1.20808 l 0.8371,1.187679 v 0 l 0.838,1.18703 c 1.7272,2.44963 3.4733,4.87745 5.2931,7.25972 1.8556,2.4289 3.8352,4.76625 5.9068,7.01356 1.012,1.09818 2.0413,2.18103 3.0945,3.23969 0.4281,0.43028 0.8668,0.84987 1.3006,1.27416 l 0.4316,0.42644 c 0.255,0.255 0.5758,0.5072 0.7451,0.83043 0.1,0.19066 0.1222,0.66051 0.1579,0.73824 0.3195,0.70239 -0.2257,1.82238 -1.1317,1.47194 l 0.041,-0.0274 c 0.165,-0.11472 0.059,-0.11639 -0.3173,-0.005 -0.2375,-8.7e-4 -0.4602,-0.0555 -0.6682,-0.16371 l -0.062,-0.0341 c -0.293,-0.14888 -0.5546,-0.43705 -0.7926,-0.66748 l -0.059,-0.0563 c -0.5443,-0.51 -1.0632,-1.05089 -1.5849,-1.584 -1.0889,-1.11221 -2.1531,-2.24817 -3.1835,-3.41458 -2.0556,-2.32721 -4.0043,-4.74877 -5.8498,-7.24547 -1.8798,-2.54291 -3.627,-5.21645 -5.1296,-7.99968 -0.5703,-1.05629 -1.093,-2.13287 -1.5942,-3.221979 -0.9755,-0.31309 -1.202,-1.35059 -1.134,-2.51937 -0.3599,-0.83821 -0.6842,-1.69369 -0.876,-2.56774 -0.026,-0.11984 0.1279,-0.23277 0.22,-0.12804 0.3121,0.35454 0.601,0.73197 0.8786,1.11912 0.1676,-0.81943 0.3796,-1.57364 0.4794,-2.0545 l 0.4325,-2.12207 v 0 c -2.4371,-0.12697 -5.1077,0.87426 -6.7877,2.62711 -0.09,0.45646 -0.4416,0.78315 -0.7841,1.20981 -0.3912,0.48777 -0.7326,1.03513 -0.9871,1.60754 -0.5647,1.26875 -0.246,3.138419 -1.3418,4.069259 -0.1142,0.0969 -0.2418,0.16431 -0.3735,0.20599 0.5199,2.54954 0.284,5.35887 0.2726,7.94543 l -4e-4,0.22763 c 0,2.89486 -0.094,5.7921 -0.206,8.68458 l -0.1138,2.86269 c -0.1474,3.81789 -0.2432,7.63763 0.1279,11.43456 1.6939,-1.50022 3.4454,-2.932 5.2572,-4.29597 1.1913,-0.89709 2.4065,-1.76226 3.6438,-2.59493 l 1.0053,-0.67174 c 1.2047,-0.80782 2.4386,-1.63904 3.7576,-2.21753 1.7252,-0.75637 3.3658,-0.4964 5.0314,0.27941 1.6587,0.77278 3.268,1.67037 4.895,2.50793 1.6548,0.85159 3.3131,1.69606 4.9703,2.54269 1.0977,0.56096 2.7063,1.0673 3.5115,2.09984 0.051,-0.22845 0.1112,-0.45625 0.1811,-0.68318 -0.08,-0.34612 -0.049,-0.7201 0.1451,-1.07658 2.705498,-4.97117 5.208698,-10.06109 7.694398,-15.14475 1.2582,-2.5727 2.4544,-5.17585 3.7149,-7.74705 l 1.2255,-2.50421 c 0.2047,-0.41716 0.4101,-0.83401 0.6166,-1.25023 0.3092,-0.62315 0.6311,-1.24026 0.9438,-1.861889 0.1321,-0.26263 0.2977,-0.5235 0.4264,-0.78862 l 0.061,-0.13294 c 0,-0.007 0.2998,-0.94058 0.071,-0.85159 l -0.02,0.01 c -0.117,0.0663 -0.2108,-0.081 -0.135,-0.1749 0.3243,-0.40097 0.7761,-0.0458 0.9611,0.32539 0.5099,1.02147 -0.4244,2.624919 -0.7837,3.603029 l -0.02,0.0547 c -1.1153,3.15655 -2.378,6.25395 -3.6718,9.34055 -2.4807,5.91776 -5.1456,11.74462 -7.8047,17.58163 l -0.032,0.1004 v 0 c 0.567,-0.43465 1.1725,-0.82913 1.6909,-1.21304 1.3078,-0.96884 2.6539,-1.88996 3.9978,-2.80806 2.4645,-1.68379 4.9959,-3.25655 7.5691,-4.76723 l 0.5152,-0.30132 c 1.2854,-0.74881 2.5587,-1.35598 4.0844,-1.13121 1.4174,0.20893 2.7352,0.9703 4.0157,1.58879 l 0.1324,0.0634 3.9567,1.88111 c -0.423,-1.68678 -0.8809,-3.36535 -1.3588,-5.03766 -0.9319,-3.26193 -1.9573,-6.49644 -3.0693,-9.70201 -1.0386,-2.99505 -2.1613,-5.95733 -3.3488,-8.896179 l -0.3576,-0.88202 c -0.4842,-1.21002 -0.9657,-2.52948 -2.3496,-2.90201 -1.3829,-0.37247 -2.9693,0.17986 -4.2333,-0.60847 -0.1149,-0.0717 -0.1006,-0.26105 0.039,-0.29603 l 0.7799,-0.19658 c 1.4645,-0.36429 3.1813,-0.73075 4.5661,-0.37648 1.5069,0.38607 2.7536,1.65073 3.4848,2.96547 0.8129,1.46255 1.3859,3.09931 2.0028,4.658879 l 0.098,0.24557 c 0.708,1.76494 1.3891,3.54046 2.0407,5.32721 1.3029,3.57135 2.4889,7.18566 3.5625,10.83258 0.5173,1.7576 1.0081,3.52362 1.4799,5.29396 0.1356,0.50915 0.3593,1.12647 0.5429,1.77034 0.2103,0.20513 0.4093,0.43401 0.5961,0.69505 0.3099,0.43314 0.087,0.94099 -0.2977,1.20031 -0.015,0.44307 -0.1134,0.8598 -0.3487,1.21694 -0.9188,1.39464 -3.3477,1.03534 -3.249,-0.83951 0.015,-0.28696 0.1267,-0.56096 0.296,-0.79243 l -0.01,-0.0376 v 0 l -0.019,-0.0687 v 0 c -0.4217,-0.20211 -0.8451,-0.42731 -1.2914,-0.64777 l -4.1526,-2.0519 v 0 c -1.2027,-0.59443 -2.5358,-1.51275 -3.8732,-1.73925 -1.2469,-0.21112 -2.5624,0.71782 -3.6338,1.2783 l -0.07,0.036 c -2.59,1.32749 -5.1607,2.69902 -7.7213,4.08179 -1.25,0.67518 -2.4838,1.37844 -3.729,2.06162 -1.0412,0.57132 -2.1648,1.3914 -3.3351,1.71377 -0.4999,0.38866 -1.0937,0.33662 -1.5709,0.0427 0.2181,1.35059 0.2047,2.73659 0.2717,4.11741 0.09,1.84598 0.1037,3.69709 0.1334,5.54558 l 0.012,0.69304 c 0.079,4.08653 0.1207,8.17415 0.1363,12.26154 0.055,14.55485 -0.1056,29.11401 -0.1432,43.66885 -0.019,7.31283 -0.1639,14.63193 -0.3539,21.94196 -0.081,3.09754 -0.2489,6.19137 -0.430798,9.28425 l -0.1001,1.68694 c -0.2118,3.55947 -0.3368,7.15823 -0.9958,10.66976 -0.086,0.45797 -0.8611,0.46963 -0.9371,0 -0.6065,-3.7627 -0.6402,-7.60795 -0.7568,-11.41478 l -0.025,-0.76082 c -0.1402,-4.0874 -0.2067,-8.1722 -0.1924,-12.26176 0.052,-14.56067 0.4303,-29.11227 0.7399,-43.66885 0.1557,-7.31369 0.2604,-14.63063 0.5023,-21.94195 0.1209,-3.65836 0.2578,-7.31434 0.4202,-10.97119 0.072,-1.63275 0.1422,-3.26384 0.2507,-4.89415 l 0.049,-0.69865 c 0.034,-0.45581 0.061,-0.90601 0.094,-1.35211 -1.4732,0.53808 -2.8206,-0.45818 -4.1459,-1.13985 -1.5275,-0.78573 -3.0542,-1.57277 -4.5823,-2.357 l -1.5293,-0.78286 v 0 l -3.0606,-1.56161 c -1.378,-0.70326 -2.4397,-1.40306 -3.9094,-0.57824 -5.2951,2.97065 -10.1609,6.92331 -14.5704,11.07095 -0.8456,0.79545 -2.6323,0.58169 -2.8465,-0.75141 -0.9149,-5.69505 -0.3585,-11.47253 0.1086,-17.18484 l 0.1722,-2.12077 c 0.2087,-2.53301 0.4359,-5.06604 0.7388,-7.58872 0.1354,-1.12849 0.2703,-2.2563 0.4195,-3.38263 l 0.1149,-0.84447 c 0.1865,-1.33504 0.3083,-2.6621 0.706,-3.94251 -0.1254,-0.0406 -0.2461,-0.1071 -0.3541,-0.20944 -1.1958,-1.134459 -0.6193,-3.103009 -0.074,-4.452519 0.5387,-1.33202 1.3603,-2.49455 2.3892,-3.49513 0.2243,-0.21851 0.5406,-0.35908 0.8585,-0.36642 2.4945,-1.65266 5.2311,-2.47748 8.0793,-1.57536 0.08,-0.38251 0.1616,-0.7644 0.2475,-1.14533 l 0.087,-0.38059 c 0.2215,-0.94509 0.3038,-2.5062 1.1191,-3.13842 z M 104.54806,235.67705 c 0.7741,-0.2129 1.6216,0.0114 2.1889,0.57867 0.567,0.56722 0.7915,1.4145 0.5782,2.18858 -0.1067,0.3811 -0.2995,0.71189 -0.5782,0.9928 -0.2607,0.25885 -0.5647,0.44359 -0.912,0.55424 l -0.081,0.0242 -0.1265,0.0527 c -0.388,0.10429 -0.7762,0.10429 -1.164,0 -0.371,-0.10407 -0.6929,-0.29171 -0.9663,-0.5629 -0.2714,-0.27336 -0.459,-0.5953 -0.5631,-0.96647 -0.1043,-0.38801 -0.1043,-0.77602 0,-1.16403 l 0.053,-0.12653 v 0 c 0.1067,-0.3811 0.2995,-0.71211 0.5782,-0.99259 0.2807,-0.27876 0.6118,-0.47179 0.9928,-0.57867 z m 45.9631,-77.13554 c 0.1272,-0.14596 0.3334,0.041 0.2544,0.19627 -1.2057,2.3637 -2.5496,4.71055 -3.8704,7.01422 0.1058,0.63848 0.2107,1.27178 0.3314,1.8891 0.5146,2.63122 1.1449,5.21493 1.5558,7.8712 1.4768,9.54784 2.2436,19.19932 2.9015,28.83288 0.6599,9.6681 0.7443,19.34053 0.8434,29.02764 0.01,0.8395 -0.6372,1.81525 -1.5026,1.97352 -0.3962,0.0723 -0.6927,0.0583 -1.088,0 -0.9007,-0.13258 -1.464,-1.16425 -1.5026,-1.97352 -0.2583,-5.41402 -0.6057,-10.82113 -1.0082,-16.22673 -0.7134,-9.58346 -1.1493,-19.19198 -1.7256,-28.78537 l -0.203,-3.35291 c -0.2178,-3.63309 -0.417,-7.2687 -0.4819,-10.9072 -0.043,-2.41055 0.086,-4.82045 0.01,-7.22819 -0.073,-2.22292 -0.2986,-4.63994 0.1915,-6.82399 0.018,-0.0818 0.1475,-0.10256 0.1848,-0.0242 0.5096,1.07269 0.8324,2.23867 1.0812,3.42883 1.3132,-1.66087 2.6506,-3.32541 4.0319,-4.91157 z M 64.488762,99.822101 c 0.1844,-0.0132 0.1771,0.263799 0,0.284309 -2.5772,0.29893 -5.0669,1.3477 -7.5004,2.23911 l -0.2084,0.076 c -2.4585,0.89197 -4.8555,1.92926 -7.1622,3.16563 -4.5099,2.41746 -8.6513,5.5345 -12.3129,9.10282 -14.619,14.24478 -21.2812,34.78627 -26.163,54.09009 -2.7123999,10.72504 -4.6411999,21.63146 -5.8913999,32.62144 -0.6182,5.43518 -1.0552,10.89108 -1.31,16.35541 -0.1304,2.80051 -0.2127,5.6036 -0.247,8.40691 -0.018,1.43588 -0.023,2.87219 -0.021,4.30807 8e-4,0.65813 0.1183,1.48662 -0.058,2.12553 -0.1633,0.59184 -0.6236,1.11308 -0.9641,1.60624 -0.4036,0.58515 -1.1288,0.55427 -1.538,0 l -0.15089999,-0.20173 c -0.4364,-0.57883 -0.8634,-1.13229 -0.9257,-1.88882 -0.067,-0.811 -0.02,-1.64705 -0.023,-2.46172 -0.01,-1.64122 0.013,-3.28266 0.046,-4.92345 0.063,-3.14511 0.1872,-6.28893 0.3714,-9.4293 0.374,-6.37292 0.98959999,-12.73289 1.87089999,-19.05573 1.5668,-11.23872 3.9151,-22.37012 6.9912,-33.2923 2.9018999,-10.30356 6.3397999,-20.57668 11.2373999,-30.12085 4.5473,-8.86142 10.5128,-17.10509 18.3844,-23.29816 3.6605,-2.87996 7.6454,-5.28014 11.9416,-7.08762 2.1667,-0.91162 4.4421,-1.65591 6.7561,-2.08019 2.2884,-0.419539 4.5668,-0.36102 6.8763,-0.541689 z M 104.99176,217.46486 c 0.4087,-0.003 0.8645,0.0868 1.2152,0.31287 l 0.4685,0.3621 v 0 c 0.127,0.16302 0.2533,0.32669 0.3792,0.49079 0.293,0.38175 0.3319,0.9995 0.2708,1.45445 -0.014,0.3038 -0.1041,0.58622 -0.2708,0.84814 l -0.3567,0.46185 v 0 c -0.3429,0.27962 -0.6288,0.47913 -1.044,0.61365 -0.2171,0.0702 -0.4261,0.0849 -0.6345,0.0742 l -0.069,-0.004 0.042,0.006 -0.073,-0.008 v 0 c -0.068,-0.006 -0.1358,-0.0132 -0.204,-0.0225 -0.046,-0.006 -0.093,-0.009 -0.1395,-0.0158 -0.045,-0.004 -0.088,-0.005 -0.133,-0.001 -0.5277,0.0497 -1.0582,-0.24961 -1.4328,-0.59336 -0.3375,-0.30984 -0.6405,-0.96689 -0.5934,-1.43264 l 0.02,-0.19464 c 0.036,-0.32837 0.065,-0.45756 0.2038,-0.78737 0.1352,-0.32086 0.3241,-0.60393 0.5813,-0.84317 0.4923,-0.45797 1.0949,-0.71557 1.7705,-0.72032 z m -1.6335,-24.02845 c 0.7004,-0.76328 1.9033,-0.81942 2.772,-0.35778 0.2116,0.11271 0.4059,0.29343 0.5925,0.44415 0.47,0.38002 0.6546,1.06557 0.6806,1.64316 0.026,0.57111 -0.2756,1.24932 -0.6806,1.6436 l -0.098,0.0952 v 0 c -0.2421,0.23535 -0.5889,0.44005 -0.9274,0.50223 -0.5461,0.1004 -1.0047,0.0974 -1.5132,-0.11724 -0.4369,-0.18431 -0.8134,-0.48063 -1.0696,-0.88272 l -0.042,-0.068 c -0.017,-0.0282 -0.034,-0.0569 -0.05,-0.0862 l -0.023,-0.0444 c -0.4867,-0.9358 -0.3558,-1.99512 0.3578,-2.772 z m 0.3628,-24.15504 c 0.3158,-0.0991 0.6315,-0.11315 0.9474,-0.0423 0.2144,4.3e-4 0.4144,0.0546 0.5996,0.16194 0.2013,0.0563 0.3762,0.15827 0.5243,0.30574 0.1784,0.10537 0.3206,0.24745 0.4262,0.42602 0.2101,0.22952 0.3518,0.49877 0.4254,0.80797 l 0.085,0.63157 -0.085,0.63179 -0.2397,0.56766 v 0 c -0.066,0.0859 -0.1321,0.17187 -0.1991,0.25738 -0.1058,0.179 -0.2483,0.32172 -0.4273,0.42752 -0.1164,0.11574 -0.2498,0.20232 -0.399,0.26235 -0.529,0.37916 -1.2338,0.50288 -1.8606,0.33014 -0.3722,-0.10407 -0.6955,-0.29257 -0.9695,-0.56485 -0.2723,-0.27422 -0.4608,-0.59745 -0.5648,-0.96949 l -0.043,-0.29714 c -0.055,-0.39856 -0.064,-0.61933 0.049,-1.126 0.049,-0.22283 0.193,-0.53699 0.2682,-0.66935 0.3212,-0.56485 0.8461,-0.952 1.463,-1.14093 z m 27.4291,-17.37783 c 0.907,-0.006 1.814,-0.005 2.721,0.005 l 0.6801,0.009 c 1.139,0.0179 2.1146,-0.0995 3.01,0.69073 0.6499,0.57349 0.3636,1.53564 -0.2533,1.9677 -0.9347,0.65424 -2.1072,0.32517 -3.1816,0.25306 -1.1332,-0.076 -2.2672,-0.13906 -3.4016,-0.19002 -2.1966,-0.0982 -4.394,-0.16086 -6.5928,-0.17057 -2.1939,-0.009 -4.3912,0.0114 -6.5849,0.0469 -2.2322,0.0363 -4.5564,0.24421 -6.7761,0.0132 -0.3049,-0.0317 -0.3735,-0.4327 -0.073,-0.53699 2.0917,-0.72356 4.4446,-0.95805 6.6366,-1.23464 2.2609,-0.28567 4.5218,-0.48777 6.797,-0.61884 2.3369,-0.13408 4.6773,-0.21851 7.0181,-0.23492 z m -27.4333,-7.10684 0.075,0.002 c 0.3992,0.001 0.7729,0.0949 1.1213,0.28177 l 0.074,0.0415 0.4793,0.37009 c 0.2935,0.29581 0.4967,0.64409 0.6089,1.04528 l 0.085,0.62962 v 0 c 0.013,0.32605 -0.056,0.63006 -0.2038,0.91249 -0.096,0.29365 -0.2589,0.54758 -0.4897,0.7622 -0.2146,0.23082 -0.4688,0.39406 -0.7622,0.48971 -0.2607,0.13673 -0.5398,0.20538 -0.8378,0.20546 l -0.075,-0.002 c -0.4273,-0.002 -0.8259,-0.10926 -1.1951,-0.32345 l -0.4796,-0.37031 v 0 c -0.2934,-0.2956 -0.4966,-0.64388 -0.6089,-1.04506 l -0.085,-0.62963 v 0 c -0.012,-0.32604 0.056,-0.63049 0.2043,-0.91248 0.095,-0.29366 0.2587,-0.5478 0.4895,-0.76242 0.2146,-0.23082 0.4685,-0.39406 0.7624,-0.4895 0.2605,-0.13692 0.5396,-0.20541 0.8374,-0.20529 z m 7.0215,-55.636609 c 0.5102,-0.7391 1.435,-0.0818 1.3027,0.51238 0.035,1.66886 0.1202,3.28849 0.5,4.92323 0.1738,0.74838 0.4016,1.49763 0.753,2.18318 l 0.1475,0.28868 c 0.4548,0.89838 0.8078,1.74565 0.1953,2.7312 -0.2886,0.464669 -0.8103,0.813599 -1.3758,0.789199 -2.5079,-0.10818 -2.8526,-3.598979 -3.005,-5.547679 -0.1572,-2.00699 0.3317,-4.21263 1.4823,-5.88019 z"
     id="ðŸ–-Ink"
     fill="#0f0f1b"
     style="fill-rule:evenodd;stroke:none;stroke-width:0.215922" /><path
     d="m 130.93666,29.514208 c -7.6301,-20.07396 -21.3842,-34.77141 -44.571498,-25.54004 -0.6652,-0.45285 -1.5332,-0.5743 -2.3649,-0.044 -12.631,7.93117 -21.7268,20.64675 -25.6687,34.98505 -2.3989,0.4561 -4.73,1.25163 -6.812,2.55617 -4.5251,2.8353 -7.5694,7.34689 -10.4232,11.74092 -0.8582,1.32103 -0.064,3.50807 1.5492,3.80802 0.7006,0.13056 1.3948,0.2082 2.0851,0.22859 -0.168,0.61009 -0.3893,1.19958 -0.671,1.74026 -1.02,1.957153 0.907,4.035103 2.713,3.500053 0.2004,0.10605 0.4103,0.19324 0.6279,0.25874 0.025,1.1087 0.5944,2.59282 1.722,2.81686 1.8235,0.39126 4.247,-1.00438 3.8167,-3.04394 0.5509,0.0969 1.0998,0.10909 1.6348,0.0419 0.06,1.06207 0.041,2.17034 0.1879,3.15 0.4793,4.61698 5.0924,7.7184 9.4916,6.31387 0.2698,1.43858 0.5867,3.45992 2.0036,4.24026 1.6565,4.64714 4.517,9.95056 9.2021,12.06798 -0.4171,1.06858 -0.1909,2.36857 1.0653,3.08363 8.5757,4.88918 18.8689,6.54355 28.564398,4.72586 3.8749,-0.23076 7.6501,-1.10631 11.2738,-2.97172 2.6425,-1.36028 5.0718,-3.08775 7.4432,-4.86857 2.3727,-1.78147 4.9095,-3.51609 6.8033,-5.82914 2.057,-2.51215 3.0145,-5.46782 3.6359,-8.61369 2.8474,-14.279313 1.8639,-28.300063 -3.3085,-41.902483 -6.4027,-16.83766 6.4003,14.39403 0,-2.44451 z"
     id="ðŸŽ¨-Background-7"
     fill="#fafbf6"
     style="fill:#c6b7be;fill-opacity:1;fill-rule:evenodd;stroke:none;stroke-width:0.216882" /><path
     style="fill:#fafbf6;fill-opacity:1;stroke:none;stroke-width:2.13543;stroke-dasharray:none;stroke-opacity:1"
     d="m 48.886662,43.433118 -3.709,3.00277 -2.7338,4.72849 c 0,0 -1.2266,1.83456 -1.3475,2.0479 -0.1209,0.21334 0.042,2.68763 0.042,2.68763 l 0.9855,0.94652 1.7001,0.34334 1.1338,-0.59487 -0.479,2.97877 -0.7013,0.599513 1.2137,2.05186 1.1908,0.34953 1.2754,-0.51652 0.1055,1.71859 1.0313,1.57141 1.9757,0.18824 1.7952,-1.01179 0.6246,-1.50467 1.5847,-0.45707 0.8767,-3.055443 2.6235,-4.32616 2.8095,-1.63988 2.8213,-1.53843 1.5655,-0.53177 1.4009,0.66253 1.52,2.22445 1.2536,2.27662 1.0024,0.94828 2.0638,0.47306 1.5763,-0.22346 1.0544,-0.94688 -1.2171,-4.54804 -0.2278,-3.98534 -0.7005,-2.34088 -4.1728,-5.25975 -3.8489,-1.99612 -4.6564,-1.01889 -4.3277,1.10964 -4.7566,1.86992 -2.4139,2.77499 z"
     id="path146" /><path
     d="m 94.048862,0.06243802 c 3.9049,-0.27566 7.880998,0.38258 11.599698,1.56002998 5.9309,1.87734 11.3776,5.19043 15.8526,9.50356 4.612,4.445 8.0229,9.9254 10.0969,15.97837 2.5011,7.29982 2.8754,15.09413 3.5794,22.71428 0.3557,3.85003 0.9417,7.64134 1.5509,11.454063 l 0.096,0.6022 c 0.5951,3.71476 0.93,7.47181 0.1078,11.18071 -1.3668,6.16423 -5.4641,11.39673 -10.3277,15.26309 -9.9911,7.94266 -25.5446,12.784979 -37.177498,5.47627 -1.7997,-1.13082 -0.094,-4.02251 1.6626,-2.84419 1.2364,0.82957 2.5464,1.55678 3.9511,2.05886 5.869298,2.09747 12.315298,1.35031 18.115998,-0.60076 5.7164,-1.92266 11.2015,-5.17134 15.4194,-9.50638 4.4305,-4.55344 6.8858,-10.17785 6.531,-16.57761 -0.2114,-3.8078 -1.079,-7.545113 -1.5604,-11.321903 -0.4266,-3.34504 -0.6823,-6.70822 -0.977,-10.0668 l -0.1081,-1.20805 c -0.6249,-6.84278 -1.5225,-13.87326 -4.6359,-20.08457 -2.6188,-5.22556 -6.4535,-9.87443 -11.0644,-13.4647 -4.8274,-3.75878 -10.5932,-6.38761 -16.6429,-7.36814 -7.114198,-1.15294 -13.924298,0.94366 -19.858798,4.84667 -5.2633,3.46144 -9.7884,8.0871 -13.258,13.33565 -1.6826,2.54489 -3.116,5.26265 -4.3537,8.0498 -1.1664,2.62601 -1.9706,5.37824 -2.9086,8.08493 0.7718,-0.023 1.5565,0.007 2.3533,0.0948 4.087,0.45285 7.8948,2.57092 10.3189,5.91069 2.9624,4.08107 2.1616,9.09062 3.3187,13.7319 0.09,0.36024 -0.063,0.71289 -0.3713,0.9122 -1.7544,1.13386 -4.1023,1.1716 -5.8003,-0.10518 -1.4737,-1.10805 -2.1656,-3.1114 -1.5689,-4.86185 0.078,-0.22816 0.4101,-0.18782 0.4194,0.0568 0.1122,2.97887 2.8759,5.27284 5.585,3.8553 -1.1621,-4.00213 -0.5505,-8.47186 -2.9273,-12.08685 -4.2069,-6.39802 -12.9125,-6.6624 -19.0271,-3.05565 -3.218,1.89787 -5.7651,4.75161 -7.6617,7.94359 l -0.5465,0.92664 c -0.727,1.2381 -1.4969,2.63873 -1.6478,4.00216 -0.087,0.78685 0.2035,1.5262 1.1061,1.12974 0.7303,-0.32055 1.2957,-1.06858 1.7295,-1.71164 0.7397,-1.09677 2.4397,-0.14923 1.8286,1.01871 l -0.021,0.0382 c -0.8893,1.57551 -1.4368,3.31168 -1.5373,5.120633 l -0.025,0.50093 c -0.017,0.36509 -0.029,0.88397 0.048,0.90291 0.093,0.0228 0.7361,-0.72005 0.8432,-0.82286 0.5162,-0.49579 1.0478,-0.90092 1.7663,-1.033003 0.9446,-0.17312 1.8975,0.995543 1.0776,1.761693 l -0.034,0.0308 c -0.7317,0.63611 -0.6992,1.90466 0.1091,2.49956 1.1408,0.8396 2.5453,-0.5308 2.7109,-1.65911 l 0.01,-0.0417 c 0.1464,-1.21909 1.8396,-1.26225 1.9316,0 0.1997,2.73923 -3.0615,5.03514 -5.5429,3.65317 -0.9812,-0.54611 -1.6049,-1.54616 -1.8003,-2.61799 -0.3132,0.16548 -0.6511,0.28021 -1.0083,0.31188 -1.1629,0.10302 -1.9897,-0.71463 -2.1777,-1.81205 -0.2191,-1.27852 -0.089,-2.647483 0.2477,-3.975233 -0.6316,0.15225 -1.2959,0.0941 -1.9637,-0.29128 -2.0203,-1.16574 -1.4401,-3.75878 -0.6773,-5.50945 3.2565,-7.47246 10.0032,-14.25285 18.3619,-14.79115 0.046,-1.31843 0.2245,-2.56485 0.5168,-3.88501 2.8589,-12.91295 12.1207,-24.8701 24.1783,-30.45872 3.2219,-1.49345 6.6389,-2.49804998 10.1912,-2.74897998 z m -31.6201,51.58234998 0.1146,-0.0258 c 1.3027,-0.28067 4.7308,-0.61038 4.3176,1.58173 -0.019,0.10302 -0.1694,0.0904 -0.196,0 -0.4047,-1.37828 -3.1539,-0.27609 -3.9566,0.0557 -1.1065,0.45719 -2.1981,1.1317 -3.1016,1.91572 -1.9782,1.71684 -3.3042,4.13638 -3.5059,6.764123 -0.2,2.6067 0.5563,5.42227 2.4366,7.30784 0.9218,0.92414 2.0984,1.55158 3.42,1.59777 1.1875,0.0412 2.4994,-0.88314 3.5951,-0.3418 0.216,0.1067 0.3871,0.39971 0.3676,0.64088 -0.037,0.45654 -0.2412,0.81201 -0.5452,1.08767 1.8343,3.3428 3.3356,6.88102 5.6755,9.92084 1.1743,1.52512 2.5048,2.93745 4.0115,4.13941 0.7161,0.57149 1.4948,1.07335 2.2977,1.51427 0.9408,0.51727 1.755,0.84086 2.4264,1.71706 0.5726,0.74716 -2e-4,2.19181 -0.9441,2.32064 -2.2228,0.30277 -4.3829,-1.49432 -6.0148,-2.84051 -1.6303,-1.3451 -3.0393,-3.00425 -4.2038,-4.76468 -2.236,-3.38054 -3.7657,-7.36857 -4.3773,-11.40323 -0.7101,0.22512 -1.5095,0.29387 -2.1109,0.29517 -1.6002,0.004 -3.1281,-0.57191 -4.3856,-1.54463 -4.6035,-3.56055 -5.1152,-10.871 -1.8665,-15.481043 1.5546,-2.20591 3.9169,-3.83578 6.5457,-4.45715 z m 0.029,8.478793 c 1.0675,-0.0937 2.1342,0.0748 3.1375,0.43875 l 0.4136,0.14993 c 0.8737,0.31946 1.8037,0.69508 2.4347,1.35003 0.964,1.00112 0,2.73575 -1.3692,2.35208 -1.5184,-0.42422 -2.7525,-1.70296 -4.2704,-2.23931 -1.3568,-0.4793 -2.8937,-0.41142 -4.0978,0.41403 -0.159,0.10909 -0.368,-0.10605 -0.2641,-0.26438 0.921,-1.40257 2.3752,-2.05734 4.0157,-2.20113 z"
     id="ðŸ–-Ink-5"
     fill="#0f0f1b"
     style="fill-rule:evenodd;stroke:none;stroke-width:0.216882" /><path
     d="m 130.52206,61.452471 c -2.6084,2.69516 -6.9628,3.46857 -10.4331,2.02313 -8.9107,-3.72294 -4.5492,-15.335003 2.3229,-18.453403 0.8585,-0.21398 2.0051,-0.72164 3.0507,-0.83679 0.094,-0.0464 0.3003,0.0879 0.5498,-0.0391 7.5776,0.84603 9.3031,12.60892 4.5097,17.306163 m -28.7408,0.68985 c -2.925498,3.88021 -8.364398,5.0773 -12.808098,3.27351 -8.7788,-3.4572 -5.6651,-13.754243 0.3412,-17.791073 12.687698,-4.76749 17.926998,7.36319 12.466898,14.517563 M 82.750762,53.544888 c -0.01,-0.004 -0.016,-0.005 -0.025,-0.009 0.046,-0.0204 0.093,-0.0408 0.139,-0.0616 -0.015,0.0393 -0.031,0.0783 -0.046,0.11753 -0.023,-0.0157 -0.043,-0.0339 -0.068,-0.0462 m 53.810798,-4.1943 c -0.7162,10e-4 -1.7509,0.11922 -2.3439,0.61615 -1.4622,-4.9312 -6.8594,-9.49503 -11.5532,-6.16718 -3.6963,1.18871 -6.4391,3.82501 -7.998,7.3299 -2.8107,-1.67188 -7.2304,-0.95798 -9.6678,1.25294 -1.5962,-5.27452 -5.524798,-7.1215 -10.200798,-7.39413 -5.1037,-0.83594 -10.1907,4.12063 -11.7779,8.09687 -1.3197,-0.15017 -3.2918,-0.57018 -4.5333,0.24426 -8.058,-2.11316 -22.1461,-3.27822 -23.7842,-2.10413 -1.1675,0.44795 -1.8081,3.20348 -0.1775,3.35214 1.421,-0.20174 -0.1658,-2.01905 1.2665,-2.21736 7.6317,-0.47307 15.0405,1.06389 22.5914,1.70883 0.6742,0.90684 2.8525,1.2102 4.0145,0.84582 -1.8302,6.745093 2.1207,11.334073 8.0406,12.708613 9.1665,2.10563 17.141598,-6.09435 14.744598,-14.623463 2.7768,-1.38142 5.9708,-1.32212 8.9958,-0.59446 -5.0548,18.602933 24.9061,17.768283 20.2267,-1.80122 3.1141,1.549 3.7904,-0.94099 2.1565,-1.25358"
     id="ðŸ–-Ink-0"
     fill="#0f0f1b"
     style="fill-rule:evenodd;stroke:none;stroke-width:0.214839" /><path
     d="m 112.98666,62.079491 c 1.8756,1.14008 4.7334,3.79851 2.7157,6.62489 -2.3751,2.49211 -5.7946,-0.36527 -7.4797,-1.65755 -1.5625,-1.00152 -3.318,1.57433 -1.8684,2.74377 12.1765,9.015 17.118,-7.41299 7.581,-9.05155 -1.05,-0.18057 -1.44,0.98775 -0.9486,1.34044 z M 91.166262,51.592728 c 0.2072,-2.57229 4.1248,-3.15641 4.5145,-0.61102 0.349,2.28013 -0.062,4.37471 -1.0889,6.42756 -0.9813,1.9612 -3.4478,1.04621 -3.6344,-0.73964 -0.25,-2.39385 0.08,-3.47679 0.2088,-5.0769 z m 29.821298,-1.1388 c 0.5462,-0.71533 1.3348,-1.20365 2.2797,-0.9277 2.9519,0.86263 2.0819,5.05353 1.0451,7.09347 -0.5633,1.10777 -2.3842,1.3887 -3.207,0.4133 -1.3413,-1.59062 -1.9836,-4.76714 -0.2785,-6.33392 0.046,-0.081 0.098,-0.16269 0.1607,-0.24515 z m -26.437298,-10.11674 0.4663,-0.0816 c 1.4426,-0.24948 3.2362,-0.48921 4.2567,0.67053 0.5412,0.61498 0.727498,1.75802 0,2.34668 -1.2797,1.03575 -2.6944,0.63436 -4.2279,0.72204 -1.2638,0.0725 -2.4784,0.28167 -3.6957,0.62965 -2.6705,0.76327 -4.8466,2.15667 -7.1275,3.68669 -0.2993,0.20069 -0.6048,-0.18206 -0.462,-0.46199 1.3167,-2.57892 3.8683,-4.69735 6.4241,-5.98867 1.3641,-0.68925 2.8569,-1.26102 4.366,-1.52331 z m 23.746398,-1.15524 0.3569,0.073 c 3.8839,0.81186 8.9301,2.4336 10.7694,6.24858 0.07,0.53944 0,0.65506 -0.064,0.73059 l -0.02,0.0251 c -0.05,0.0645 -0.089,0.15343 -0.3231,0.22685 -0.065,-0.0154 -0.1304,-0.0318 -0.1966,-0.0492 -0.8431,-0.22094 -1.5101,-0.52532 -2.1559,-0.84115 l -0.7002,-0.34495 c -0.8123,-0.3983 -1.6318,-0.78211 -2.5003,-1.06545 -1.8535,-0.60454 -3.7599,-1.03041 -5.6958,-1.25781 -0.4196,-0.0492 -0.8237,-0.19086 -1.1425,-0.43356 -0.3025,-0.23038 -0.5337,-0.54935 -0.6391,-0.97332 -0.1365,-0.54869 -0.097,-0.96409 0.1971,-1.45908 0.2214,-0.37174 0.5381,-0.62939 0.9018,-0.77735 0.3708,-0.15084 0.7929,-0.1864 1.2125,-0.10234 z"
     id="ðŸ–-Ink-06"
     fill="#0f0f1b"
     style="fill-rule:evenodd;stroke:none;stroke-width:0.24838"
     sodipodi:nodetypes="cccccccccsccccccccccccccccscccccccsccccsccssc" /><g
     id="facial-hair/Moustache-9"
     stroke="none"
     stroke-width="1"
     fill="none"
     fill-rule="evenodd"
     transform="matrix(0.23839173,0,0,0.23839173,63.317762,61.521401)"><path
       d="m 245.36528,32.822685 c -14.02631,-2.365455 -28.59864,1.130516 -42.12249,4.855574 -21.48317,-14.105353 -49.32001,0.132125 -64.7058,17.75476 -5.26569,4.336667 -16.32384,10.096868 -10.49795,18.37063 -2.20839,5.84864 -2.79898,8.600878 1.77178,1.763436 25.86854,2.978128 53.62333,-2.647817 79.22443,-7.954107 8.71706,2.931246 16.41502,9.78467 25.9972,7.43733 9.06047,1.92646 18.86855,3.725058 27.0477,-2.087354 6.22806,-0.252528 20.08418,10.93117 19.86132,-2.074567 C 280.0147,58.421803 255.29669,37.678259 245.36528,32.822685 Z"
       id="ðŸŽ¨-Background-2"
       fill="#fafbf6" /><path
       d="m 255.8834,72.8453 c -15.228,1.685 -30.671,-0.791 -43.422,-9.633 -1.331,-0.923 -2.643,-0.913 -3.713,-0.372 -1.301,-0.144 -2.632,0.375 -3.404,1.861 -3.202,6.167 -13.815,4.793 -19.649,4.919 -19.083,0.368 -38.832,-0.685 -57.197,5.084 17.564,-34.334 41.855,-49.156 79.442,-35.677 -3.394,2.733 13.542,-3.665 15.028,-3.787 26.006,-6.516 47.461,15.296 57.942,36.91 -7.929,-1.887 -16.814,-0.214 -25.027,0.695 m 36.324,5.843 c -11.467,-25.829 -34.077,-54.229 -65.614,-49.765 -6.475,0.953 -13.286,5.376 -19.805,4.578 -18.875,-6.971 -34.455,-10.513 -53.358,0.759 -8.02,0.599 -53.152,56.476 -31.705,51.914 26.326,-15.118 72.1,-0.878 88.448,-14.4 32.095,21.069 58.191,-1.818 76.279,11.352 3.145,2.885 7.556,-0.708 5.755,-4.438"
       id="ðŸ–-Ink-9"
       fill="#0f0f1b" /></g></svg>
